<svg xmlns="http://www.w3.org/2000/svg" viewBox="0 0 500 500"><g id="freepik--Character--inject-932"><circle cx="240.21" cy="224.22" r="76.82" transform="translate(-88.19 235.53) rotate(-45)" style="fill:#fff"></circle><path d="M287.7,201.75c-.2-5.66,3.28-11.46,1.23-16.73-1.53-3.92-5.72-6.28-7.4-10.13s-.62-8,.06-12,.82-8.64-2-11.55c-2.33-2.39-6.06-2.92-8.51-5.19-2.23-2-3.05-5.23-3.24-8.26s.15-6.08-.24-9.09a19.36,19.36,0,0,0-10.37-14.6c-5.56-2.77-12.51-2.57-17.71,2.79l18.67,71C268.68,189.82,278.42,194.83,287.7,201.75Z" style="fill:#263238"></path><path d="M288.11,172.73a1.55,1.55,0,0,1,.58.3,2.59,2.59,0,0,1,.95,1.61,3.07,3.07,0,0,1-.79,2.81,3.87,3.87,0,0,1-3.78.77,5,5,0,0,1-3.23-3.4,9.23,9.23,0,0,1,.08-5.45c.5-1.87,1.37-3.7,2-5.66a12.42,12.42,0,0,0,.45-6.25,13,13,0,0,0-7.07-9.45c-1.7-.82-3.45-1.36-5-2.12a9.7,9.7,0,0,1-5.48-6.46,9.56,9.56,0,0,1-.32-2.94,8.62,8.62,0,0,1,.29-1.85A3,3,0,0,1,267,134a12,12,0,0,0-.33,2.47,9.64,9.64,0,0,0,5.78,9.09c1.52.72,3.26,1.25,5,2.08a13.31,13.31,0,0,1,7.31,9.72,12.85,12.85,0,0,1-.46,6.45c-.65,2-1.52,3.82-2,5.64a9,9,0,0,0-.12,5.24,4.73,4.73,0,0,0,3,3.23,3.64,3.64,0,0,0,3.53-.66,2.92,2.92,0,0,0,.79-2.61,2.6,2.6,0,0,0-.84-1.57C288.32,172.83,288.1,172.76,288.11,172.73Z" style="fill:#263238"></path><path d="M221.88,123.53c-2.68,7.28-3.88,13.19-6.51,19-1.48,3.28-3.45,6.57-3.27,10.17.13,2.46,1.28,4.82,1.21,7.29-.11,4.35-3.8,7.62-7.08,10.48s-6.7,6.64-6,10.93c.29,1.87,1.36,3.57,1.52,5.46.2,2.3-1,4.5-2.41,6.32a48.52,48.52,0,0,0-4.27,5.45l-.51,3.47,41-13" style="fill:#263238"></path><path d="M322.08,186.86c-1-6.86-.05-13.81-.32-17.39-.5-6.66-1.1-6.64-1.87-6.46-2.07.46.44,11.73-1.51,9.59s-1.47-14.11-3.61-13.54c-2.79.74.06,12.51.22,13.52s-1.29,1.25-1.39.33c-.15-1.33-2-15.19-4.78-14.48-1.52.39-.5,3-.5,3s2.73,12.87,1.42,13.16-3.19-7.22-3.63-9.79-1.83-3.39-2.8-2.29c-.66.75.52,8.65,1,11.18s2,9.46-1.53,6.57-7.3-3.81-8.48-3.37-.94,2.26.42,2.63a17.28,17.28,0,0,1,4,2.2,16,16,0,0,1,2.66,2.55c.9,1,4.14,4.93,4.92,8.91l15.73-6.37" style="fill:#ffbe9d"></path><path d="M317.71,183.34c0,.07-.43.17-1,.59a4.23,4.23,0,0,0-1.72,2.37l-.15.56-.29-.5a6.93,6.93,0,0,0-1.59-1.83,7.94,7.94,0,0,0-4.33-1.74c-1.22-.11-2,.11-2,0a3.75,3.75,0,0,1,2-.38,7.51,7.51,0,0,1,4.63,1.7,6.91,6.91,0,0,1,1.68,2l-.43.06a4.15,4.15,0,0,1,2-2.5A2.05,2.05,0,0,1,317.71,183.34Z" style="fill:#eb996e"></path><path d="M322.61,185.53l-17.42,6.87,5.06,39-3.67-5.6-6.89-9c-18.47-31.79-42.12-26.77-42.12-26.77l-31.13-2.42s-19.71.35-31.07,13.24c-2.92,3.31-19.82,37.11-26.8,51.19a76.76,76.76,0,0,0,19.72,28.76l17.76-36.7,3,12.87a39,39,0,0,1,.08,21.4l-4.78,13.75a76.91,76.91,0,0,0,74-1.34L273.81,280a39.57,39.57,0,0,1-2.29-23.08l3.33-16.63,18.6,17.7a52.35,52.35,0,0,0,6.32,6h0c8.61,6.84,15.34,7,15.34,7C344.6,269.82,322.61,185.53,322.61,185.53Z" style="fill:#FF725E"></path><path d="M216.47,220.15a1.15,1.15,0,1,1-1.15-1.15A1.14,1.14,0,0,1,216.47,220.15Z" style="fill:#fafafa"></path><path d="M208.23,232.05a1.14,1.14,0,1,1-1.14-1.14A1.14,1.14,0,0,1,208.23,232.05Z" style="fill:#fafafa"></path><path d="M234.22,220.15a1.14,1.14,0,1,1-1.14-1.15A1.14,1.14,0,0,1,234.22,220.15Z" style="fill:#fafafa"></path><path d="M207.91,196.3a1.14,1.14,0,1,1-1.14-1.15A1.14,1.14,0,0,1,207.91,196.3Z" style="fill:#fafafa"></path><path d="M242.44,233.74a1.14,1.14,0,1,1-1.14-1.15A1.14,1.14,0,0,1,242.44,233.74Z" style="fill:#fafafa"></path><path d="M256.53,228.93a1.15,1.15,0,1,1-1.15-1.15A1.15,1.15,0,0,1,256.53,228.93Z" style="fill:#fafafa"></path><path d="M279.24,217.54a1.14,1.14,0,1,1-1.14-1.14A1.14,1.14,0,0,1,279.24,217.54Z" style="fill:#fafafa"></path><path d="M300.3,236.28a1.14,1.14,0,1,1-1.14-1.14A1.14,1.14,0,0,1,300.3,236.28Z" style="fill:#fafafa"></path><path d="M311.42,242.66a1.15,1.15,0,1,1-1.15-1.14A1.14,1.14,0,0,1,311.42,242.66Z" style="fill:#fafafa"></path><path d="M314.58,258.77a1.14,1.14,0,1,1-1.14-1.14A1.14,1.14,0,0,1,314.58,258.77Z" style="fill:#fafafa"></path><path d="M325.42,247.32a1.14,1.14,0,1,1-1.14-1.15A1.14,1.14,0,0,1,325.42,247.32Z" style="fill:#fafafa"></path><path d="M318.12,232.05a1.15,1.15,0,1,1-1.15-1.14A1.15,1.15,0,0,1,318.12,232.05Z" style="fill:#fafafa"></path><path d="M325.42,219a1.14,1.14,0,1,1-1.14-1.14A1.15,1.15,0,0,1,325.42,219Z" style="fill:#fafafa"></path><path d="M316.31,207.59a1.15,1.15,0,1,1-1.14-1.14A1.14,1.14,0,0,1,316.31,207.59Z" style="fill:#fafafa"></path><path d="M322.73,195.15a1.15,1.15,0,1,1-2.29,0,1.15,1.15,0,0,1,2.29,0Z" style="fill:#fafafa"></path><path d="M297.71,253a1.15,1.15,0,1,1-1.15-1.15A1.14,1.14,0,0,1,297.71,253Z" style="fill:#fafafa"></path><path d="M285,234.88a1.14,1.14,0,1,1-1.14-1.14A1.14,1.14,0,0,1,285,234.88Z" style="fill:#fafafa"></path><path d="M300.3,222.81a1.14,1.14,0,1,1-1.14-1.14A1.15,1.15,0,0,1,300.3,222.81Z" style="fill:#fafafa"></path><circle cx="221.51" cy="205.31" r="1.14" style="fill:#fafafa"></circle><path d="M191.87,230.91a1.14,1.14,0,1,1-1.14-1.15A1.14,1.14,0,0,1,191.87,230.91Z" style="fill:#fafafa"></path><path d="M190.73,261a1.15,1.15,0,1,1-1.14-1.14A1.14,1.14,0,0,1,190.73,261Z" style="fill:#fafafa"></path><circle cx="179.79" cy="267.54" r="1.14" style="fill:#fafafa"></circle><path d="M218.75,236.28a1.14,1.14,0,1,1-1.14-1.14A1.14,1.14,0,0,1,218.75,236.28Z" style="fill:#fafafa"></path><path d="M234.62,243.8a1.15,1.15,0,1,1-1.14-1.14A1.14,1.14,0,0,1,234.62,243.8Z" style="fill:#fafafa"></path><path d="M263,244.94a1.14,1.14,0,1,1-1.14-1.14A1.15,1.15,0,0,1,263,244.94Z" style="fill:#fafafa"></path><path d="M270.4,229.76a1.15,1.15,0,1,1-2.29,0,1.15,1.15,0,0,1,2.29,0Z" style="fill:#fafafa"></path><path d="M264.86,283.11a1.14,1.14,0,1,1-1.14-1.14A1.14,1.14,0,0,1,264.86,283.11Z" style="fill:#fafafa"></path><path d="M264.86,295a1.14,1.14,0,1,1-1.14-1.14A1.15,1.15,0,0,1,264.86,295Z" style="fill:#fafafa"></path><path d="M269.25,263.31a1.14,1.14,0,1,1-1.14-1.14A1.15,1.15,0,0,1,269.25,263.31Z" style="fill:#fafafa"></path><path d="M249.68,254.11a1.14,1.14,0,1,1-1.14-1.14A1.14,1.14,0,0,1,249.68,254.11Z" style="fill:#fafafa"></path><path d="M254.24,268.68a1.14,1.14,0,1,1-1.14-1.14A1.14,1.14,0,0,1,254.24,268.68Z" style="fill:#fafafa"></path><path d="M232.33,262.17a1.14,1.14,0,1,1-1.14-1.14A1.14,1.14,0,0,1,232.33,262.17Z" style="fill:#fafafa"></path><path d="M227.52,289.05a1.14,1.14,0,1,1-1.14-1.14A1.14,1.14,0,0,1,227.52,289.05Z" style="fill:#fafafa"></path><path d="M238.26,278.3a1.14,1.14,0,1,1-1.14-1.14A1.14,1.14,0,0,1,238.26,278.3Z" style="fill:#fafafa"></path><path d="M215.48,292.73a1.14,1.14,0,1,1-1.14-1.14A1.14,1.14,0,0,1,215.48,292.73Z" style="fill:#fafafa"></path><circle cx="238.26" cy="299.24" r="1.14" style="fill:#fafafa"></circle><path d="M250.71,290.19a1.14,1.14,0,1,1-1.14-1.14A1.15,1.15,0,0,1,250.71,290.19Z" style="fill:#fafafa"></path><path d="M217.61,254.11a1.15,1.15,0,1,1-1.14-1.14A1.14,1.14,0,0,1,217.61,254.11Z" style="fill:#fafafa"></path><circle cx="217.03" cy="276.04" r="1.14" style="fill:#fafafa"></circle><path d="M178.88,248.46a1.15,1.15,0,1,1-1.14-1.14A1.14,1.14,0,0,1,178.88,248.46Z" style="fill:#fafafa"></path><path d="M195.68,247.32a1.14,1.14,0,1,1-1.14-1.15A1.14,1.14,0,0,1,195.68,247.32Z" style="fill:#fafafa"></path><path d="M201.21,211.81a1.15,1.15,0,0,1-2.29,0,1.15,1.15,0,1,1,2.29,0Z" style="fill:#fafafa"></path><g style="opacity:0.2"><path d="M206.05,244.18s3-6.86,2.87-6.76,2.88,26.14,1.55,33.58C210.47,271,209.3,255.81,206.05,244.18Z"></path></g><g style="opacity:0.2"><path d="M254,204.41l-7.44,8.07c-.26,3.76,2.11,9.24,4.3,12.31,1,1.39,2.31,2.77,4,2.9a6.67,6.67,0,0,0,2.62-.53l19.86-6.86c-.55-.89-1.1-1.78-1.64-2.67A10.14,10.14,0,0,0,290.65,213a18.84,18.84,0,0,1-11.53-17l-3.68-2.08Z"></path></g><g style="opacity:0.2"><path d="M266.39,258.49c.2.56-8.71,4.32-19.68,9s-19.88,8.4-20.14,7.86,8.29-5.15,19.32-9.81S266.19,258,266.39,258.49Z"></path></g><path d="M312.88,247.19c-.11,0-.88-3.55-1.72-8a81.12,81.12,0,0,1-1.3-8.06,75.68,75.68,0,0,1,1.72,8A77.8,77.8,0,0,1,312.88,247.19Z" style="fill:#263238"></path><path d="M316.79,245.57a10.12,10.12,0,0,1-1.34-1.86,43,43,0,0,1-2.6-4.87,40.74,40.74,0,0,1-1.92-5.18,10,10,0,0,1-.51-2.23,14.81,14.81,0,0,1,.79,2.14c.47,1.33,1.15,3.14,2,5.09s1.79,3.67,2.47,4.9A16.3,16.3,0,0,1,316.79,245.57Z" style="fill:#263238"></path><path d="M209.29,232.07s0-.13,0-.39,0-.67.05-1.11c.06-1,.13-2.41.23-4.09a51.85,51.85,0,0,0-.77-13.39,24.28,24.28,0,0,0-6.07-11.76,22.36,22.36,0,0,0-4.41-3.37,1.72,1.72,0,0,1,.36.15,7.94,7.94,0,0,1,1,.51,16,16,0,0,1,3.27,2.49A23.82,23.82,0,0,1,209.2,213a48.76,48.76,0,0,1,.66,13.5c-.12,1.73-.26,3.12-.37,4.08-.05.44-.09.81-.13,1.11A1.36,1.36,0,0,1,209.29,232.07Z" style="fill:#263238"></path><path d="M274.09,218.12a14.13,14.13,0,0,1,.44,2.55c.19,1.59.38,3.8.44,6.25s0,4.66-.15,6.26a12.61,12.61,0,0,1-.32,2.57,20.06,20.06,0,0,1,0-2.59c.05-1.59.08-3.8,0-6.23s-.2-4.64-.32-6.23A18.69,18.69,0,0,1,274.09,218.12Z" style="fill:#263238"></path><path d="M230.05,186.86c.63-7.94,9.79-3.11,8.77-11a333.15,333.15,0,0,1-2.57-53.67" style="fill:#263238"></path><path d="M257.84,187.06l3.54-54.25c-9-12.42-21.25-15-36.1-10.63,0,0-6.3,26.22-5.55,38.75.78,13.14,10.53,15.76,10.53,15.76s-.34,4.42-.82,9.84c-2.52.41-5.17.95-7.93,1.63-1.06.27,19.63,30.17,19.63,30.17l25.83-28A36,36,0,0,0,257.84,187.06Z" style="fill:#ffbe9d"></path><path d="M225.3,142.73a1.66,1.66,0,0,0,1.43,1.83,1.6,1.6,0,0,0,1.86-1.33,1.66,1.66,0,0,0-1.43-1.83A1.59,1.59,0,0,0,225.3,142.73Z" style="fill:#263238"></path><path d="M223.31,141.3c.18.23,1.53-.57,3.32-.39s3,1.2,3.22,1-.07-.5-.6-1a4.53,4.53,0,0,0-2.55-1.07,4.33,4.33,0,0,0-2.67.58C223.44,140.82,223.22,141.19,223.31,141.3Z" style="fill:#263238"></path><path d="M243.54,144.84a1.68,1.68,0,0,0,1.44,1.83,1.59,1.59,0,0,0,1.86-1.33,1.68,1.68,0,0,0-1.44-1.83A1.6,1.6,0,0,0,243.54,144.84Z" style="fill:#263238"></path><path d="M241.58,143.38c.18.24,1.53-.57,3.32-.39s3,1.2,3.22,1-.07-.49-.6-1A4.68,4.68,0,0,0,245,142a4.48,4.48,0,0,0-2.67.58C241.71,142.9,241.49,143.27,241.58,143.38Z" style="fill:#263238"></path><path d="M233.57,155.69a11.41,11.41,0,0,0-2.84-.81c-.46-.09-.88-.23-.92-.55a2.3,2.3,0,0,1,.43-1.32l1.69-3.34c2.36-4.75,4.12-8.68,3.92-8.78s-2.26,3.69-4.62,8.45l-1.63,3.36a2.65,2.65,0,0,0-.41,1.77,1.17,1.17,0,0,0,.68.74,2.76,2.76,0,0,0,.76.18A11.72,11.72,0,0,0,233.57,155.69Z" style="fill:#263238"></path><path d="M230.26,176.69A33,33,0,0,0,248,173.77s-5.08,8.48-17.9,6Z" style="fill:#eb996e"></path><path d="M233.91,160.06a3.24,3.24,0,0,1,3-.91,3,3,0,0,1,1.92,1.29,1.86,1.86,0,0,1-.07,2.14,2.16,2.16,0,0,1-2.4.36,6.76,6.76,0,0,1-2.15-1.58,2.06,2.06,0,0,1-.45-.58.62.62,0,0,1,.06-.67" style="fill:#eb996e"></path><path d="M238.71,157.44c-.29-.05-.49,1.89-2.28,3.1s-3.84.8-3.88,1.07c0,.12.42.42,1.29.53a4.88,4.88,0,0,0,3.23-.78,4.21,4.21,0,0,0,1.78-2.62C239,157.94,238.84,157.44,238.71,157.44Z" style="fill:#263238"></path><path d="M229.42,138.68c-.11.27-1.34,0-2.84,0s-2.73.22-2.83,0,1.12-1,2.84-1S229.53,138.43,229.42,138.68Z" style="fill:#263238"></path><path d="M247.39,139.45c-.06,0-.06-.14,0-.31l0,.27a12,12,0,0,0-2.79-.69c-1.69-.18-3,.37-3.18.11s.21-.43.79-.71a4.77,4.77,0,0,1,2.48-.42,4.17,4.17,0,0,1,2.93,1.4l.12.2-.08.06C247.54,139.46,247.44,139.49,247.39,139.45Z" style="fill:#263238"></path><path d="M247.85,151.08c-.14,0-.28-.18-.31-.43s.06-.48.2-.5.28.18.31.44S248,151.07,247.85,151.08Z" style="fill:#eb996e"></path><path d="M243.75,150.91c-.14,0-.23-.24-.13-.49s.34-.34.44-.24a.38.38,0,0,1,0,.44C244,150.78,243.9,150.92,243.75,150.91Z" style="fill:#eb996e"></path><path d="M246,152.67a.32.32,0,1,1,.27-.3A.28.28,0,0,1,246,152.67Z" style="fill:#eb996e"></path><path d="M222.61,150.11c-.14,0-.23-.24-.2-.5s.17-.45.31-.43.23.24.2.49S222.75,150.12,222.61,150.11Z" style="fill:#eb996e"></path><path d="M226.73,150.19c-.14,0-.25-.19-.24-.39s.14-.38.28-.37.25.18.24.39S226.87,150.2,226.73,150.19Z" style="fill:#eb996e"></path><path d="M224.72,151.49c-.14,0-.26-.2-.26-.46s.11-.46.25-.46.26.2.26.46S224.86,151.49,224.72,151.49Z" style="fill:#eb996e"></path><path d="M237.78,115.94a28.88,28.88,0,0,1-7.34,16.83c-4.2,4.61-8.93,8.64-15.07,9.75,1.67-5.29,2-9.54,3.38-14s3.24-8.84,6.69-11.9A15.63,15.63,0,0,1,241.56,114" style="fill:#263238"></path><path d="M216.69,137.54a17,17,0,0,0,3.91-.49,13.46,13.46,0,0,0,3.81-1.89,30.21,30.21,0,0,0,4-3.4,45.49,45.49,0,0,0,5.86-7.57l1.54-2.47a5.41,5.41,0,0,1,.59-.89,4.5,4.5,0,0,1-.45,1c-.32.61-.8,1.49-1.43,2.55a39.72,39.72,0,0,1-5.81,7.71,29.18,29.18,0,0,1-4.09,3.43,13,13,0,0,1-3.95,1.84,10.15,10.15,0,0,1-2.92.33A3.73,3.73,0,0,1,216.69,137.54Z" style="fill:#455a64"></path><path d="M220.66,138.19a3,3,0,0,1-.37.48c-.25.32-.61.78-1,1.42a17.21,17.21,0,0,0-2.49,5.85,16.49,16.49,0,0,0-.4,4.38,29.5,29.5,0,0,0,.75,5A30.65,30.65,0,0,1,218,161a12.9,12.9,0,0,1-1.26,6,13.18,13.18,0,0,1-3.83,4.75c-1.59,1.2-3.33,2-4.68,3.15a5.56,5.56,0,0,0-2.29,4.2,8.77,8.77,0,0,0,1.38,4.09,20.06,20.06,0,0,1,1.68,3.28,6.78,6.78,0,0,1,.43,2.76,3.55,3.55,0,0,1-.53,1.68,2.24,2.24,0,0,1-.39.48,4.89,4.89,0,0,1,.32-.52,3.7,3.7,0,0,0,.44-1.65,6.87,6.87,0,0,0-.49-2.67,21.86,21.86,0,0,0-1.72-3.21,9,9,0,0,1-1.47-4.24,4.75,4.75,0,0,1,.65-2.46,7.68,7.68,0,0,1,1.74-2c1.4-1.2,3.14-2,4.68-3.18a12.74,12.74,0,0,0,3.69-4.61,12.55,12.55,0,0,0,1.24-5.77,31.45,31.45,0,0,0-.81-5.54,28.72,28.72,0,0,1-.72-5.09,16.45,16.45,0,0,1,.46-4.45,17.09,17.09,0,0,1,2.64-5.89,13.58,13.58,0,0,1,1.1-1.37A2.64,2.64,0,0,1,220.66,138.19Z" style="fill:#455a64"></path><path d="M206,165.64s.09.23.35.62a3.69,3.69,0,0,0,1.48,1.3,4.9,4.9,0,0,0,3.07.44,4.82,4.82,0,0,0,3.27-2.35,7.52,7.52,0,0,0,.94-4.88,12.79,12.79,0,0,0-2.24-5.35c-1.13-1.74-2.69-3.3-3.93-5.26a9.13,9.13,0,0,1-1.3-3.28,8.12,8.12,0,0,1,.19-3.63,8.86,8.86,0,0,1,4.51-5.38,11.79,11.79,0,0,1,3.23-1c1.07-.22,2.12-.44,3.12-.72,4.06-1,7-3.63,9.37-5.62a27.64,27.64,0,0,0,5-5.49,15.6,15.6,0,0,0,1.25-2.43,6.11,6.11,0,0,1-.2.69,11.63,11.63,0,0,1-.91,1.83,26.79,26.79,0,0,1-5,5.63,44.52,44.52,0,0,1-4.07,3.22,17.15,17.15,0,0,1-5.4,2.54c-1,.3-2.07.52-3.13.75a11.11,11.11,0,0,0-3.13,1,8.51,8.51,0,0,0-4.3,5.13,7.71,7.71,0,0,0-.18,3.44,8.72,8.72,0,0,0,1.25,3.13c1.19,1.9,2.75,3.49,3.9,5.26a13.05,13.05,0,0,1,2.26,5.53,7.88,7.88,0,0,1-1,5.08,5,5,0,0,1-6.68,1.9,3.8,3.8,0,0,1-1.48-1.41A2.25,2.25,0,0,1,206,165.64Z" style="fill:#263238"></path><path d="M282.73,197.79a18,18,0,0,0,1.59-2.52,12.74,12.74,0,0,0,1-3.3,12.17,12.17,0,0,0-.06-4.57,11.41,11.41,0,0,0-2.32-5,30.12,30.12,0,0,0-4.7-4.37,21.52,21.52,0,0,1-5-5.17,9.61,9.61,0,0,1-1.38-3.58,7.44,7.44,0,0,1,.51-3.92c1-2.49,2.77-4.45,3.71-6.7a6.19,6.19,0,0,0-.77-6.55,16.58,16.58,0,0,0-4.85-4.1A26.33,26.33,0,0,1,266,144.7a11.35,11.35,0,0,1-2.63-3.86,6.79,6.79,0,0,1-.44-3.49,7,7,0,0,1,.31-1.26c.15-.34.26-.64.38-.86l.3-.5c.07-.11.1-.16.11-.16s0,.07-.07.19l-.26.51c-.11.22-.21.52-.34.86a7.26,7.26,0,0,0-.26,1.24,6.66,6.66,0,0,0,.49,3.38,11.08,11.08,0,0,0,2.62,3.73,25.33,25.33,0,0,0,4.54,3.25,16.85,16.85,0,0,1,5,4.17,6.59,6.59,0,0,1,.83,6.94c-1,2.33-2.74,4.3-3.7,6.7a7.16,7.16,0,0,0-.49,3.7,9.44,9.44,0,0,0,1.32,3.42,21.49,21.49,0,0,0,4.87,5.09,30.54,30.54,0,0,1,4.72,4.45,11.55,11.55,0,0,1,2.34,5.14,12.41,12.41,0,0,1,0,4.67,12.75,12.75,0,0,1-1.13,3.34,11.32,11.32,0,0,1-1.21,1.86l-.38.44Z" style="fill:#455a64"></path><path d="M276.1,195.65c-.68-5.94-1.84-8.39-1.81-14.37,0-5.48-5-12.77-1.9-19.21a72.83,72.83,0,0,0-4.34-11.82c-1.05-2.38-4.87-9.59-5.84-12,.64-4.45,3.84-4.12,3.22-8.56-.74-5.33-3.25-10.66-7.77-13.57a21.68,21.68,0,0,0-9.59-2.9,19.54,19.54,0,0,0-7,.32,9.11,9.11,0,0,0-5.59,4l1.18-1.12a16.81,16.81,0,0,0,3.93,14.15,24.72,24.72,0,0,0,12.91,7.57,9.94,9.94,0,0,0,1.09,4.79l-.12.17.29.16a10.42,10.42,0,0,0,1.08,1.57,9.76,9.76,0,0,0,1.89,1.68,7.28,7.28,0,0,1,0,6.45c-1.24,2.31-3.73,4-4.23,6.53-.57,2.89,1.63,5.66,1.58,8.6a9.28,9.28,0,0,1-1.46,4.38c-5.34,6.86-4.4,13.92-1.38,22.06,1.12,3,2.85,6.19,2,9.3-.83,2.93-3.78,4.86-4.7,7.76-1.29,4,1.68,8.06,4.46,11.25a94.53,94.53,0,0,1,18.47-6.1,33.79,33.79,0,0,1-.94-8.14,7.09,7.09,0,0,0,13.26,2C279.48,207.75,276.79,201.6,276.1,195.65Z" style="fill:#263238"></path><path d="M267.59,132.13s-.09.12-.29.29a10.33,10.33,0,0,1-.9.76,17.77,17.77,0,0,1-3.75,2.18,18.93,18.93,0,0,1-6.23,1.56,18.75,18.75,0,0,1-7.8-1,18.09,18.09,0,0,1-6.62-4.25,20.35,20.35,0,0,1-5.28-9.27c-.14-.5-.2-.89-.25-1.15a2.13,2.13,0,0,1-.06-.41,13.78,13.78,0,0,1,.46,1.51,23.35,23.35,0,0,0,1.64,4,20.28,20.28,0,0,0,3.76,5.08,18.1,18.1,0,0,0,6.49,4.14,19.12,19.12,0,0,0,7.63,1,19.93,19.93,0,0,0,6.15-1.45A24.45,24.45,0,0,0,267.59,132.13Z" style="fill:#455a64"></path><path d="M266.67,125.53a4,4,0,0,1-.94.29,16.39,16.39,0,0,1-2.64.43,19.46,19.46,0,0,1-16-6.17,17.4,17.4,0,0,1-1.67-2.09,4,4,0,0,1-.49-.85c.07,0,.81,1.14,2.38,2.73A20.37,20.37,0,0,0,263.07,126C265.3,125.83,266.65,125.45,266.67,125.53Z" style="fill:#455a64"></path><path d="M267.59,128.46a8.22,8.22,0,0,1-7.12,3.6,20.82,20.82,0,0,0,3.84-1.26A20.4,20.4,0,0,0,267.59,128.46Z" style="fill:#455a64"></path><path d="M266.12,218.33s-.08-.33-.26-.93a4.45,4.45,0,0,0-1.46-2.24c-.46-.38-1-.72-1.59-1.21A5.38,5.38,0,0,1,261.4,212a9.46,9.46,0,0,1-.43-1.27,6.3,6.3,0,0,1-.23-1.41,4.77,4.77,0,0,1,.79-3,6.6,6.6,0,0,1,2.59-2.21,5,5,0,0,0,2.44-2.44,4.36,4.36,0,0,0,.35-1.79,5.63,5.63,0,0,0-.45-1.86,26.26,26.26,0,0,0-2-3.56,14.38,14.38,0,0,1-2.12-8.61,14.63,14.63,0,0,1,3.64-8.77c1-1.24,2-2.59,2-4.15a7.35,7.35,0,0,0-1.66-4.17c-.89-1.24-2-2.33-2.77-3.6a6.81,6.81,0,0,1-1.35-4.19,7,7,0,0,1,1.82-3.77,12.79,12.79,0,0,0,2.13-3.19,7.53,7.53,0,0,0-.17-6.62,7.33,7.33,0,0,0-2-2.18c-.76-.58-1.53-1.06-2.22-1.56a7.29,7.29,0,0,1-1.76-1.63,6.68,6.68,0,0,1-.94-1.78,4.8,4.8,0,0,1-.23-2.74,2.25,2.25,0,0,1,.41-.88,5,5,0,0,0-.32.9,4.7,4.7,0,0,0,.3,2.67,6.35,6.35,0,0,0,.94,1.71,7,7,0,0,0,1.74,1.55c.69.49,1.46,1,2.25,1.55a7.6,7.6,0,0,1,2.12,2.24,7.85,7.85,0,0,1,.24,6.91,13.25,13.25,0,0,1-2.17,3.28,6.69,6.69,0,0,0-1.72,3.57,6.45,6.45,0,0,0,1.29,3.93c.8,1.24,1.86,2.32,2.77,3.59a7.7,7.7,0,0,1,1.75,4.42,5,5,0,0,1-.66,2.39,14.36,14.36,0,0,1-1.42,2,14.25,14.25,0,0,0-3.56,8.53,14.07,14.07,0,0,0,2,8.37,26.17,26.17,0,0,1,2,3.63,5.68,5.68,0,0,1,.47,2,4.55,4.55,0,0,1-.39,1.94,5.26,5.26,0,0,1-2.61,2.59,6.33,6.33,0,0,0-2.49,2.08,4.49,4.49,0,0,0-.77,2.81,8,8,0,0,0,.61,2.6,5,5,0,0,0,1.32,1.88c.53.49,1.1.84,1.56,1.24a4.42,4.42,0,0,1,1.45,2.34,5.29,5.29,0,0,1,.14.7A.79.79,0,0,1,266.12,218.33Z" style="fill:#455a64"></path><path d="M267.73,130.57a1.41,1.41,0,0,1-.24.34,11,11,0,0,1-.8.91,13.58,13.58,0,0,1-3.59,2.6,14.54,14.54,0,0,1-6.39,1.54,17.29,17.29,0,0,1-7.84-1.83,11.8,11.8,0,0,1-3.34-2.55,12.7,12.7,0,0,1-2.12-3.29c-1-2.27-1.63-4.42-2.32-6.14a16.15,16.15,0,0,0-2-3.87c-.62-.83-1.06-1.21-1-1.24a1.57,1.57,0,0,1,.32.26,8.46,8.46,0,0,1,.83.88,14.79,14.79,0,0,1,2.19,3.86c.73,1.72,1.37,3.86,2.4,6.08a12.45,12.45,0,0,0,2.06,3.18,11.76,11.76,0,0,0,3.24,2.46,17.3,17.3,0,0,0,7.64,1.81,14.54,14.54,0,0,0,9.87-3.87C267.33,131,267.69,130.54,267.73,130.57Z" style="fill:#455a64"></path></g></svg>