<svg xmlns="http://www.w3.org/2000/svg" viewBox="0 0 500 500"><g id="freepik--background-simple--inject-453"><path d="M94,178.92l1.66-3.46c14-29.19,42.63-48.76,74.69-49.86a83.87,83.87,0,0,1,12.37.48c29.58,3.37,56.94,22.81,70.14,49.85,7.76,15.9,11.33,34.74,24.28,46.69,16.85,15.57,42.67,13.58,65.26,10.66s48.44-4.85,65.22,10.79c10.51,9.79,15,24.74,15.65,39.17,1.7,38.21-21.46,74.78-53.49,95S298.29,403.8,260.7,400c-52.66-5.36-104.57-29.14-138.41-70.4S75.09,228.89,94,178.92Z" style="fill:#f5f5f5"></path><circle cx="319.13" cy="169.08" r="36.41" style="fill:#f5f5f5"></circle></g><g id="freepik--Plant--inject-453"><path d="M426.43,365.3c-7.84-12-6.7-29.13,2.67-40,2.9-3.37,7-6.29,11.4-5.91s8.19,4.28,9.57,8.62.9,9,.09,13.52c-1.13,6.28-3,12.7-7.39,17.36s-10.75,9.45-16.34,6.39" style="fill:#FF725E"></path><path d="M430.76,423a17.93,17.93,0,0,1,5-20.36c1.8-1.47,4.16-2.61,6.41-2s3.84,2.95,4.15,5.31a14.75,14.75,0,0,1-1.17,7c-1.16,3.13-2.72,6.27-5.38,8.28s-6.4,3.89-9,1.81" style="fill:#FF725E"></path><path d="M411.85,418.92a26,26,0,0,0-13.07-27.38c-3-1.55-6.67-2.47-9.68-1s-4.56,5.3-4.32,8.74,1.9,6.62,3.72,9.54c2.56,4.1,5.7,8.08,10.06,10.14s10.21,3.64,13.29-.08" style="fill:#FF725E"></path><path d="M413.21,390.16c3.76-12.11-2.61-26.8-13.22-33.76-3.29-2.15-7.46-3.66-11.14-2.25s-5.94,5.63-6.05,9.66,1.43,7.92,3.21,11.53c2.49,5.07,5.67,10.07,10.51,13s12.67,5.81,16.69,1.84" style="fill:#FF725E"></path><path d="M420.75,449.39a3.21,3.21,0,0,1-.12-.59c-.07-.44-.15-1-.25-1.69-.05-.37-.11-.78-.17-1.22s-.18-.93-.28-1.44c-.2-1-.4-2.22-.74-3.5-.16-.64-.32-1.32-.49-2l-.63-2.16c-.41-1.5-1-3.06-1.56-4.72a82.67,82.67,0,0,0-10.74-20c-1.07-1.38-2-2.74-3.07-3.91l-1.45-1.72-1.41-1.53c-.88-1-1.75-1.81-2.51-2.55l-1-1-.93-.82-1.27-1.14a3.58,3.58,0,0,1-.42-.43,3.19,3.19,0,0,1,.49.35l1.33,1.07,1,.79,1.08,1c.78.71,1.67,1.52,2.57,2.5.46.49.94,1,1.45,1.51l1.48,1.72c1.05,1.16,2,2.51,3.12,3.9A79.17,79.17,0,0,1,417,431.89c.55,1.67,1.14,3.24,1.53,4.76.21.75.41,1.48.61,2.18s.31,1.39.45,2c.32,1.3.5,2.49.67,3.53.09.52.17,1,.24,1.45s.09.86.13,1.24c.06.69.11,1.26.15,1.7A2.48,2.48,0,0,1,420.75,449.39Z" style="fill:#263238"></path><path d="M420.48,451.57a.84.84,0,0,1,0-.25c0-.18,0-.42,0-.7.06-.66.14-1.55.25-2.69.05-.59.12-1.24.19-1.94s.07-1.49.11-2.32c.07-1.67.23-3.56.17-5.66,0-1.05,0-2.15,0-3.29s-.12-2.33-.18-3.56c-.08-2.47-.41-5.08-.71-7.83a112.44,112.44,0,0,0-10.21-34.43c-1.25-2.47-2.4-4.84-3.67-6.95-.62-1.07-1.18-2.12-1.79-3.09s-1.22-1.88-1.78-2.76c-1.1-1.79-2.26-3.29-3.22-4.66-.49-.67-.93-1.31-1.36-1.88s-.85-1.06-1.22-1.52l-1.68-2.12-.43-.56-.13-.2s.07,0,.17.16l.47.53,1.75,2.06,1.26,1.5c.44.56.9,1.2,1.4,1.86,1,1.35,2.17,2.84,3.29,4.63l1.81,2.76c.63,1,1.2,2,1.83,3.07,1.3,2.12,2.46,4.49,3.73,7a110,110,0,0,1,10.25,34.57c.28,2.76.6,5.39.67,7.87,0,1.23.15,2.42.15,3.57s0,2.25,0,3.3c0,2.11-.15,4-.24,5.67-.06.84-.09,1.61-.16,2.33s-.16,1.35-.24,1.94c-.14,1.13-.26,2-.34,2.68,0,.29-.07.51-.1.7S420.48,451.57,420.48,451.57Z" style="fill:#263238"></path><path d="M440.89,333.89s0,.08-.1.23l-.34.63-1.34,2.39c-.28.52-.63,1.09-1,1.73s-.68,1.35-1,2.11l-1.21,2.42c-.41.87-.8,1.8-1.23,2.78s-.89,2-1.33,3.06-.85,2.21-1.3,3.38l-.68,1.78q-.32.92-.63,1.86l-1.32,3.9c-1.66,5.37-3.23,11.36-4.57,17.72S422.64,390.37,422,396s-1,10.65-1.11,14.91c-.11,2.13-.13,4.05-.14,5.74s0,3.15,0,4.34,0,2.07,0,2.74v.72a.64.64,0,0,1,0,.24.75.75,0,0,1,0-.24l-.05-.71c0-.67-.08-1.59-.13-2.74s-.1-2.65-.1-4.35,0-3.62.06-5.75c.07-4.27.46-9.34,1-14.95s1.53-11.75,2.82-18.14S427.26,365.4,429,360c.46-1.33.91-2.63,1.34-3.9l.64-1.86.7-1.78,1.34-3.38c.44-1.08.93-2.09,1.36-3.06s.84-1.91,1.26-2.77.86-1.66,1.25-2.41l1.09-2.1c.35-.64.71-1.2,1-1.71l1.43-2.35.38-.6A1,1,0,0,1,440.89,333.89Z" style="fill:#263238"></path><path d="M438.23,407.5a10.23,10.23,0,0,1-.84,1.46c-.57.92-1.36,2.27-2.28,4s-1.94,3.76-3,6.09-2,5-2.88,7.79a80.79,80.79,0,0,0-2,8.05c-.47,2.51-.8,4.79-1,6.71s-.31,3.48-.35,4.56a10.48,10.48,0,0,1-.14,1.68,12.38,12.38,0,0,1-.06-1.68c0-1.09,0-2.66.19-4.59a66.88,66.88,0,0,1,.88-6.77,76.94,76.94,0,0,1,2-8.12,73.79,73.79,0,0,1,2.94-7.82,68,68,0,0,1,3.08-6.08c1-1.68,1.81-3,2.44-3.9A9.59,9.59,0,0,1,438.23,407.5Z" style="fill:#263238"></path><polygon points="405.35 443.99 439.8 443.99 435.63 479.17 409.64 479.17 405.35 443.99" style="fill:#455a64"></polygon><polygon points="406.61 475.38 409.53 479.17 435.63 479.17 438.64 475.5 406.61 475.38" style="fill:#263238"></polygon><path d="M438.46,454.34c0,.14-7.15.25-16,.25s-16-.11-16-.25,7.15-.26,16-.26S438.46,454.2,438.46,454.34Z" style="fill:#fafafa"></path><path d="M438.46,456.68c0,.14-7.15.26-16,.26s-16-.12-16-.26,7.15-.26,16-.26S438.46,456.54,438.46,456.68Z" style="fill:#fafafa"></path><path d="M438,459c0,.14-6.9.25-15.41.25s-15.41-.11-15.41-.25,6.9-.26,15.41-.26S438,458.81,438,459Z" style="fill:#fafafa"></path></g><g id="freepik--Character--inject-453"><path d="M79.53,441.47l-15.94,37.8-11.23-.1,5-37.73Z" style="fill:#263238"></path><path d="M140.6,441.59l-15.73,37.63-11.23-.1,4.91-37.57Z" style="fill:#263238"></path><path d="M53.32,214.77c6.17-9.25,127.84-10.6,133.05-1l44.45,84.49,66.86-3.07s9-.43,17.79,8c4.34,4.15,4.12,30.32,2.9,40.44-.82,6.73-11.07,98.29-11.07,98.29l-251.91-.51S47.16,224,53.32,214.77Z" style="fill:#455a64"></path><path d="M126.83,443.81s0-.27,0-.8,0-1.34.07-2.36c.06-2.09.13-5.14.22-9,.17-7.85.4-19.16.69-33l-.21.2,76.51.55,79.26.43-.2-.16a129.6,129.6,0,0,1,1.41,30.9c-.27,3.67-.62,6.5-.87,8.42-.14.95-.24,1.68-.31,2.19s-.09.75-.09.75a98.52,98.52,0,0,0,1.49-11.34,127.05,127.05,0,0,0-1.23-31l0-.17h-.17l-79.27-.57-76.5-.42h-.21v.2c-.22,13.86-.39,25.16-.51,33-.05,3.91-.08,6.95-.11,9,0,1,0,1.81,0,2.36S126.83,443.81,126.83,443.81Z" style="fill:#263238"></path><path d="M134.55,302H134a10.19,10.19,0,0,0-1.51.08,15.29,15.29,0,0,0-5.58,1.75,20.86,20.86,0,0,0-7,6.2,28.23,28.23,0,0,0-4.78,11.66,81,81,0,0,0-1,15.58c0,5.65.2,11.75.58,18.23.75,13,2.35,27.42,4.08,43l0,.22H119l63.7.44,115.53.67h.18v-.19a102.52,102.52,0,0,0-1.13-23c-1.18-6.66-3.19-12.3-6-16.22a16.77,16.77,0,0,0-4.48-4.47l-.56-.39-.58-.3-1.09-.56c-.73-.25-1.38-.53-2-.68l-1.62-.35c-.48-.06-.88-.07-1.2-.1l-1,0s.32,0,1,.11c.32,0,.72.06,1.19.13l1.61.36c.61.16,1.25.45,2,.71l1.06.57.57.3.55.39a16.53,16.53,0,0,1,4.4,4.46c2.74,3.89,4.71,9.5,5.85,16.15a102.68,102.68,0,0,1,1.05,22.87l.2-.18-115.53-.82-63.7-.39.25.22c-1.75-15.59-3.39-30-4.17-43-.39-6.47-.6-12.56-.62-18.22a82.14,82.14,0,0,1,1-15.51,28.08,28.08,0,0,1,4.68-11.58A20.93,20.93,0,0,1,127,304a15.76,15.76,0,0,1,5.52-1.81C133.86,302,134.56,302.07,134.55,302Z" style="fill:#263238"></path><polygon points="303.6 441.93 307.25 479.17 296.02 479.07 281.96 441.88 303.6 441.93" style="fill:#263238"></polygon><path d="M282.62,354.1a5.08,5.08,0,0,1-1.11-.12l-3-.5c-2.54-.43-6-1.05-9.93-1.47a90.82,90.82,0,0,0-10-.48l-3,0a4.28,4.28,0,0,1-1.12,0,5,5,0,0,1,1.11-.16c.72-.08,1.76-.14,3.05-.2a68.87,68.87,0,0,1,10.07.32c3.92.42,7.43,1.1,9.95,1.62,1.26.27,2.28.5,3,.67A4.07,4.07,0,0,1,282.62,354.1Z" style="fill:#263238"></path><path d="M300.37,295.37c0,.05-.81.41-2.23,1.2a28.79,28.79,0,0,0-5.55,4.06,35,35,0,0,0-6.34,8,44.82,44.82,0,0,0-4.7,11.55c-2.12,8.66-2,16.83-1.85,22.64.08,2.93.2,5.29.26,6.92,0,.78.05,1.4.07,1.89a3,3,0,0,1,0,.66,3,3,0,0,1-.09-.66c-.05-.48-.1-1.1-.17-1.87-.13-1.63-.3-4-.43-6.92s-.21-6.42,0-10.3A64.47,64.47,0,0,1,281.05,320a44.12,44.12,0,0,1,4.79-11.67,34.5,34.5,0,0,1,6.5-8,27.12,27.12,0,0,1,5.7-4c.71-.4,1.33-.6,1.72-.79A5,5,0,0,1,300.37,295.37Z" style="fill:#263238"></path><g style="opacity:0.30000000000000004"><path d="M168.68,365.4a89.86,89.86,0,0,0,23.17,2.32,581.85,581.85,0,0,0,6.3,72.67,16.27,16.27,0,0,0,6.08,1.79c2.13.06,4.43-.91,5.31-2.85a8.27,8.27,0,0,0,.43-3.74,611,611,0,0,0-7.47-72.31c-.29-1.78-.7-3.74-2.19-4.75s-3.3-.7-5-.38q-14.09,2.63-27.89,6.51"></path></g><g style="opacity:0.30000000000000004"><path d="M157.58,363.37l2.35,33.28s7.87-18,5.85-24.89A12.22,12.22,0,0,0,157.58,363.37Z"></path></g><path d="M155.57,231l-2.34-78.71-2.54-4.53c-2.24-2-5.87-1.63-8.29.11s-3.84,4.56-4.81,7.38c-4.68,13.54-1,28.42-2,42.71-.21,3.1-.7,6.32-2.5,8.85-2.45,3.44-7,5.13-8.86,8.91A8.12,8.12,0,0,0,127,225.79c-2.29,1.34-4.66,2.74-6.19,4.91s-1.94,5.36-.26,7.41c1.83,2.22,5.16,2.25,8,2a112.82,112.82,0,0,0,23.88-4.7,4.69,4.69,0,0,0,2.58-1.52A4.76,4.76,0,0,0,155.57,231Z" style="fill:#263238"></path><path d="M138.87,217.45a5.89,5.89,0,0,0,2.18-1.48c1.18-1.26,2.07-3.7,2.33-6.77a164.77,164.77,0,0,0-.11-24.21c-.37-4.72-.93-9.2-1.57-13.25s-1-7.86-.13-10.92a10.72,10.72,0,0,1,4.08-6.07,7.66,7.66,0,0,1,1.8-.89,4.7,4.7,0,0,1,.69-.16,9.46,9.46,0,0,0-6.22,7.22c-.8,3-.44,6.71.25,10.74s1.25,8.55,1.61,13.29a150.68,150.68,0,0,1,0,24.29c-.32,3.11-1.28,5.6-2.55,6.87a5.29,5.29,0,0,1-1.66,1.15A2.78,2.78,0,0,1,138.87,217.45Z" style="fill:#455a64"></path><path d="M156.77,151.94c-.23,1.1.54-.93,0,0Z" style="fill:#FF725E"></path><path d="M155.89,147.53c-.9-.95-2.31-.55-3.35.2a12.4,12.4,0,0,0-4,5.71,30.26,30.26,0,0,0-1.6,7.44c-.16,1.47-.16,3.24.79,4.09a1.91,1.91,0,0,0,2.39,0,7.07,7.07,0,0,0,1.8-2.21,52.69,52.69,0,0,0,4.88-10.78C157,150.83,156.59,148.26,155.89,147.53Z" style="fill:#FF725E"></path><path d="M148.48,167.21c2-8.53,5.6-17.25,12.67-22.44,6.3-4.61,15.49-6.37,23.28-5.79,3.84.28,8.12,2.2,11.4,4.2,4.51,2.75,6.28,8.08,8.34,12.93,4.12,9.73,3.13,22.69,0,26.2l-40.74,19.85c-7-3.92-14.52-9.2-16.14-17C146.19,179.8,147.23,172.51,148.48,167.21Z" style="fill:#263238"></path><path d="M163.91,152.07l25.45-6.62c8.15-.91,13.65,9.1,14.22,17.29.64,9.1,1.06,20.23,0,27-2.07,13.67-12.54,16.92-12.54,16.92s0,11.87-.07,15.93l-11.87,36.16-16.88-36.16L159.64,157A4.81,4.81,0,0,1,163.91,152.07Z" style="fill:#ffbe9d"></path><path d="M199,173.76a1.76,1.76,0,0,1-1.68,1.78,1.68,1.68,0,0,1-1.82-1.57,1.76,1.76,0,0,1,1.68-1.78A1.69,1.69,0,0,1,199,173.76Z" style="fill:#263238"></path><path d="M201.21,168.55c-.22.23-1.55-.74-3.44-.73s-3.26,1-3.46.75.11-.52.71-1a4.87,4.87,0,0,1,2.78-.88,4.68,4.68,0,0,1,2.73.86C201.11,168,201.31,168.45,201.21,168.55Z" style="fill:#263238"></path><path d="M181.93,173.76a1.75,1.75,0,0,1-1.67,1.78,1.67,1.67,0,0,1-1.82-1.57,1.76,1.76,0,0,1,1.68-1.78A1.68,1.68,0,0,1,181.93,173.76Z" style="fill:#263238"></path><path d="M182.68,169c-.21.23-1.55-.75-3.43-.73s-3.26,1-3.47.74.12-.51.72-.95a4.72,4.72,0,0,1,2.77-.88,4.62,4.62,0,0,1,2.74.86C182.59,168.51,182.79,168.92,182.68,169Z" style="fill:#263238"></path><path d="M189.62,183a12.06,12.06,0,0,1,3-.57c.49-.06.94-.16,1-.49a2.44,2.44,0,0,0-.33-1.42c-.46-1.16-.94-2.38-1.45-3.65-2-5.21-3.47-9.49-3.26-9.57s2,4.08,4,9.28c.49,1.28,1,2.51,1.39,3.68a2.76,2.76,0,0,1,.26,1.89,1.15,1.15,0,0,1-.78.7,2.9,2.9,0,0,1-.82.12A12,12,0,0,1,189.62,183Z" style="fill:#263238"></path><path d="M191.1,206.79l-.08,3.4c-13.66,1.37-18.25-8.15-18.25-8.15A34.73,34.73,0,0,0,191.1,206.79Z" style="fill:#eb996e"></path><path d="M183.42,186.52a3,3,0,0,1,2.5-1.39,3.92,3.92,0,0,1,3.6,1.75,2.37,2.37,0,0,1,.17,1.77c-.13.3,0,.15-.26.36a6.88,6.88,0,0,1-2.8,1.77,3,3,0,0,1-3.13-1.13A3,3,0,0,1,183.42,186.52Z" style="fill:#eb996e"></path><path d="M184.08,184.3c.31,0,.32,2,2.09,3.47s3.93,1.2,4,1.48c0,.13-.48.4-1.4.43a5,5,0,0,1-3.3-1.12,4.39,4.39,0,0,1-1.62-2.91C183.72,184.8,183.94,184.29,184.08,184.3Z" style="fill:#263238"></path><path d="M183.53,163c-.19.51-2.07.28-4.28.56s-4,.9-4.29.44c-.13-.22.18-.7.89-1.2a7.49,7.49,0,0,1,6.53-.77C183.19,162.34,183.61,162.74,183.53,163Z" style="fill:#263238"></path><path d="M200.48,162c-.33.43-1.63,0-3.2,0s-2.88.31-3.18-.13c-.14-.22.07-.65.64-1.06a4.62,4.62,0,0,1,5.14.12C200.44,161.39,200.62,161.83,200.48,162Z" style="fill:#263238"></path><path d="M163.32,173.59c-.19-.08-7.61-2.44-7.54,5.19s7.71,6,7.72,5.76S163.32,173.59,163.32,173.59Z" style="fill:#ffbe9d"></path><path d="M161.15,181.67s-.14.1-.36.2a1.31,1.31,0,0,1-1,0,3.28,3.28,0,0,1-1.55-2.93,4.49,4.49,0,0,1,.36-1.91,1.52,1.52,0,0,1,1-1,.68.68,0,0,1,.78.36c.11.21.06.37.1.38s.16-.13.1-.45a.8.8,0,0,0-.3-.47,1,1,0,0,0-.74-.19,1.88,1.88,0,0,0-1.38,1.2,4.57,4.57,0,0,0-.44,2.13c.06,1.53.86,3,2,3.27a1.41,1.41,0,0,0,1.21-.21C161.13,181.86,161.17,181.69,161.15,181.67Z" style="fill:#eb996e"></path><path d="M158.63,184.21s-.33.33-.29,1a1.43,1.43,0,0,0,.54,1.06,1.72,1.72,0,0,0,2.48-.95,1.64,1.64,0,0,0-.21-1.17c-.38-.59-.86-.64-.86-.6s.36.2.62.73a1.4,1.4,0,0,1,.1,1,1.24,1.24,0,0,1-.8.78,1.3,1.3,0,0,1-1.13,0,1.22,1.22,0,0,1-.47-.81A4.21,4.21,0,0,1,158.63,184.21Z" style="fill:#e0e0e0"></path><path d="M204.19,164.9a11.82,11.82,0,0,0-5.14-5c-2.12-1.21-4.41-2.09-6.52-3.31a22.9,22.9,0,0,1-10.24-12.81,13.74,13.74,0,0,1,12.2.15,18.64,18.64,0,0,1,8.44,9.12,29.23,29.23,0,0,1,2.33,12.34" style="fill:#263238"></path><path d="M161.57,150c5.63-5.35,16.29-8.31,23.63-5.8-1.09,6.42-5.93,13.62-10.19,18.55s-6.88,13.63-16.2,10.68c-.64-.21-1.38.38-2,0a2.43,2.43,0,0,1-.9-1.41A21.86,21.86,0,0,1,161.57,150Z" style="fill:#263238"></path><path d="M158.36,148.79s0,.09.16.26.28.4.53.68a13.92,13.92,0,0,0,2.31,2.19,15.34,15.34,0,0,0,4.17,2.22,15,15,0,0,0,5.72.84,15.3,15.3,0,0,0,5.6-1.46,15.54,15.54,0,0,0,3.9-2.67,14.28,14.28,0,0,0,2.06-2.42c.22-.31.34-.57.45-.74a1.29,1.29,0,0,0,.13-.28,20.76,20.76,0,0,1-2.82,3.25,15.4,15.4,0,0,1-3.86,2.56,14.56,14.56,0,0,1-11.07.61,15.46,15.46,0,0,1-4.13-2.12A20.9,20.9,0,0,1,158.36,148.79Z" style="fill:#fff"></path><path d="M154.7,159.17a2.42,2.42,0,0,0,.26.26,8,8,0,0,0,.8.67,11.77,11.77,0,0,0,3.4,1.78,14.89,14.89,0,0,0,5.64.76,17.43,17.43,0,0,0,6.75-1.73,22.43,22.43,0,0,0,5.65-4.09,29.08,29.08,0,0,0,3.62-4.39,34.19,34.19,0,0,0,2-3.28c.22-.4.37-.72.47-.93a1.12,1.12,0,0,0,.14-.34,1.74,1.74,0,0,0-.2.3l-.53.9c-.45.78-1.13,1.89-2.06,3.21a31.1,31.1,0,0,1-3.65,4.29,22.6,22.6,0,0,1-5.58,4,17.46,17.46,0,0,1-6.61,1.73,15.36,15.36,0,0,1-5.54-.68,12.63,12.63,0,0,1-3.4-1.65C155.1,159.47,154.73,159.14,154.7,159.17Z" style="fill:#455a64"></path><path d="M161.39,200.88s-.15,0-.4-.18-.64-.34-1.11-.64a29.65,29.65,0,0,1-3.79-2.74,26.8,26.8,0,0,1-4.7-5.13,26.39,26.39,0,0,1-3.65-7.7,30.4,30.4,0,0,1-.37-15.35,28.32,28.32,0,0,1,1.46-4.46c.21-.51.41-.89.54-1.15a1.54,1.54,0,0,1,.22-.38,12.74,12.74,0,0,1-.57,1.61,33.77,33.77,0,0,0-1.29,4.46,31.26,31.26,0,0,0,.51,15.12,26.65,26.65,0,0,0,3.54,7.58,28.34,28.34,0,0,0,4.55,5.12,37.78,37.78,0,0,0,3.66,2.85A13.65,13.65,0,0,1,161.39,200.88Z" style="fill:#455a64"></path><path d="M272.43,393.05l12.73,23.14s26.79-6.8,29.56-2.76l-43,27.94-21.33-35.24Z" style="fill:#FF725E"></path><g style="opacity:0.6000000000000001"><path d="M270.42,422.42a2.08,2.08,0,0,0,0,2.79,2,2,0,0,0,2.76,0,2.18,2.18,0,0,0,0-2.95,2.08,2.08,0,0,0-2.88.27" style="fill:#fff"></path></g><g style="opacity:0.6000000000000001"><path d="M271.75,441.37l-2.15-3.55L312,412.29a3.54,3.54,0,0,1,3.11,1.32Z" style="fill:#fff"></path></g><path d="M285.74,415.54c.12.22-.89,1-1.54,2.28s-.66,2.57-.91,2.6-.67-1.4.13-3S285.67,415.32,285.74,415.54Z" style="fill:#263238"></path><path d="M291.5,414.69c.17.18-.54,1.1-.73,2.45s.18,2.43,0,2.55-1.08-1-.82-2.69S291.37,414.49,291.5,414.69Z" style="fill:#263238"></path><path d="M297.42,418.65c-.17.16-1.11-.74-1.26-2.24s.57-2.58.77-2.45-.05,1.12.09,2.36S297.62,418.5,297.42,418.65Z" style="fill:#263238"></path><path d="M282.25,410.59c0,.25-1.13.54-2.3,1.35s-1.88,1.76-2.1,1.64.23-1.43,1.61-2.36S282.26,410.36,282.25,410.59Z" style="fill:#263238"></path><g style="opacity:0.30000000000000004"><polygon points="274.94 397.64 277.22 401.76 255.48 414.49 253.28 410.87 274.94 397.64"></polygon></g><path d="M279.6,406c0,.09-.72.73-2.21,1.31a12,12,0,0,1-2.73.67A12.89,12.89,0,0,1,273,408a3.24,3.24,0,0,1-1-.12,1.08,1.08,0,0,1-.78-1.08,1.37,1.37,0,0,1,.64-1.06,3.71,3.71,0,0,1,.9-.38,10.37,10.37,0,0,1,1.65-.35,9.18,9.18,0,0,1,2.83.12c1.58.34,2.41.93,2.36,1s-.95-.25-2.46-.41a10.22,10.22,0,0,0-2.62.07,9.65,9.65,0,0,0-1.5.37c-.54.15-.94.39-.93.66,0,.11,0,.14.19.22a2.43,2.43,0,0,0,.72.09,13.36,13.36,0,0,0,1.56,0,14.58,14.58,0,0,0,2.62-.46A17.53,17.53,0,0,1,279.6,406Z" style="fill:#263238"></path><path d="M279.5,406.44c-.05.08-.94-.43-1.85-1.78a8.34,8.34,0,0,1-1.38-4.26,2.11,2.11,0,0,1,.74-1.95,1.19,1.19,0,0,1,1.29.06,3.47,3.47,0,0,1,.7.67,5.92,5.92,0,0,1,1.31,4.32c-.17,1.66-.92,2.45-1,2.39a18.81,18.81,0,0,0,.37-2.42,6,6,0,0,0-.54-2.48,5.41,5.41,0,0,0-.8-1.25c-.35-.43-.75-.7-.9-.55a1.48,1.48,0,0,0-.34,1.18,8.22,8.22,0,0,0,.17,1.52,9,9,0,0,0,.89,2.46C278.89,405.68,279.6,406.34,279.5,406.44Z" style="fill:#263238"></path><path d="M233.5,438l-1.31,26.38s27.32,8.15,26.88,14.62l-51.41-.07.25-41.35Z" style="fill:#FF725E"></path><g style="opacity:0.6000000000000001"><path d="M216.38,461.91a2.09,2.09,0,0,0-1.48,2.37,2,2,0,0,0,2.33,1.49,2.22,2.22,0,0,0,1.56-2.52,2.08,2.08,0,0,0-2.6-1.27" style="fill:#fff"></path></g><g style="opacity:0.6000000000000001"><path d="M207.66,478.9l-.07-4.31,49.06.54s2.42,1.72,2.42,3.84Z" style="fill:#fff"></path></g><path d="M233,464.1c0,.25-1.27.35-2.51,1.14s-1.91,1.83-2.14,1.73.16-1.55,1.68-2.47S233.09,463.87,233,464.1Z" style="fill:#263238"></path><path d="M238.37,466.4c.06.24-1,.65-1.9,1.7s-1.12,2.16-1.37,2.15-.39-1.43.71-2.71S238.37,466.16,238.37,466.4Z" style="fill:#263238"></path><path d="M241.34,472.87c-.23.06-.56-1.2.1-2.56s1.84-1.89,1.94-1.68-.63.93-1.16,2.06S241.59,472.85,241.34,472.87Z" style="fill:#263238"></path><path d="M232.66,458.06c-.11.22-1.25-.14-2.67-.06s-2.52.51-2.65.29.95-1.09,2.61-1.16S232.79,457.86,232.66,458.06Z" style="fill:#263238"></path><g style="opacity:0.30000000000000004"><polygon points="232.61 456.65 232.31 461.9 207.71 461.26 207.74 457.02 232.61 456.65"></polygon></g><path d="M232.83,452.73a4.92,4.92,0,0,1-2.57-.05,12,12,0,0,1-4.14-1.66,3.09,3.09,0,0,1-.76-.62,1.07,1.07,0,0,1-.1-1.33,1.39,1.39,0,0,1,1.1-.56,3.65,3.65,0,0,1,1,.15,9,9,0,0,1,1.59.57,9.15,9.15,0,0,1,2.35,1.58c1.17,1.12,1.56,2.06,1.48,2.11s-.68-.71-1.88-1.64a10.62,10.62,0,0,0-2.27-1.32,9.36,9.36,0,0,0-1.47-.47c-.54-.15-1-.16-1.15.08s-.05.13.06.29a2.54,2.54,0,0,0,.56.44,11.94,11.94,0,0,0,1.35.8,13.93,13.93,0,0,0,2.46,1A17,17,0,0,1,232.83,452.73Z" style="fill:#263238"></path><path d="M232.49,453.08a4.14,4.14,0,0,1-.64-2.48,8.5,8.5,0,0,1,.39-2.81,8,8,0,0,1,.68-1.55,2.11,2.11,0,0,1,1.65-1.27,1.2,1.2,0,0,1,1.06.73,3.14,3.14,0,0,1,.25.94,5.55,5.55,0,0,1,0,1.73,5.94,5.94,0,0,1-1.13,2.64c-1,1.31-2.07,1.6-2.09,1.51s.8-.6,1.58-1.86a5.88,5.88,0,0,0,.85-2.4,5.75,5.75,0,0,0,0-1.49c-.07-.54-.27-1-.48-.93s-.69.4-.91.83a8.8,8.8,0,0,0-1.18,3.93C232.38,452.11,232.63,453.05,232.49,453.08Z" style="fill:#263238"></path><path d="M158.92,212.72l2.88-1.22c-.88-1.4,6,12,15.34,12.09,12.78.12,14.06-12.62,14.06-12.62l.67.09,21,21.77,2.77,61-2.28,7.83L168.24,318,152.5,286.67l-1.39-19.31Z" style="fill:#f5f5f5"></path><path d="M160.29,212s-25.63,5.83-29.81,16.77c-1.84,4.83-2.43,82.74-2.43,82.74s-3.19,7.13-3,21.84c.2,14.1,9.52,23.21,21.16,25.85,0,0,3.06-22.15,15.33-33.26,11.62-10.52,12.69-9.24,12.69-9.24l-2.8-25.41-2.91-22.12c-2.91-15.8.37-32.94-5-48.09Z" style="fill:#FF725E"></path><path d="M214.4,227.53l17.48,76.89-18.79-4.27-6-46.14-15.42-43s2.59.34,5.93.86A20.45,20.45,0,0,1,214.4,227.53Z" style="fill:#FF725E"></path><g style="opacity:0.30000000000000004"><path d="M128.23,324.75a2.77,2.77,0,0,0,1.25,2.36,6.32,6.32,0,0,0,2.6.94c4.33.76,8.78-.06,13-1.4a104.4,104.4,0,0,0,13.87-6c6.63-3.28,8.72-4.77,15-8.72-6.5,2.66-8.65,3-15.51,4.56-10.23,2.35-21,3.51-30.21,8.45"></path></g><path d="M165.84,295.7l11.43-2.46s13.14-7.33,16.09-7.32c2.65,0,13.14,4.76,15.2,5.7a1.14,1.14,0,0,1,.54.5h0a2,2,0,0,1-.7,2.76l-.19.11.13.27a3.18,3.18,0,0,1,.33,1.11,1.38,1.38,0,0,1-2.44,1l.46.58a1.51,1.51,0,0,1,.34.81l.06.58a1.57,1.57,0,0,1-.84,1.57h0a1.59,1.59,0,0,1-1.7-.16c-1.41-1.13-4.44-3.35-6.24-3.35a41.24,41.24,0,0,0-5.77.64,2,2,0,0,0-1.6,1.54h0c1.05-.1,8.92,2.5,11.71,3.43a2.79,2.79,0,0,1,1.83,1.83c.22.78,0,1.69-1.69,1.58a71.16,71.16,0,0,1-10.14-2.06s-3.32-.38-5.13,1.4c-2.55,2.5-3.75,3.47-6.36,3.05a21.38,21.38,0,0,1-4.63-1.3l-4.14.79Z" style="fill:#ffbe9d"></path><path d="M189.91,293.59a26.7,26.7,0,0,1,2.56-.79,13.72,13.72,0,0,1,12.07,3c1.25,1.08,1.86,1.93,1.9,1.89a3.28,3.28,0,0,0-.42-.59,11.74,11.74,0,0,0-1.36-1.44,13.28,13.28,0,0,0-12.24-3,11.27,11.27,0,0,0-1.87.64A3.15,3.15,0,0,0,189.91,293.59Z" style="fill:#eb996e"></path><path d="M190.83,290a11.4,11.4,0,0,1,2.65-.92,12.07,12.07,0,0,1,6.64.76,25.84,25.84,0,0,1,5.83,3.49l1.64,1.26a3.59,3.59,0,0,0,.62.44,4.09,4.09,0,0,0-.55-.52c-.37-.32-.91-.78-1.6-1.33a23.73,23.73,0,0,0-5.84-3.59,11.76,11.76,0,0,0-6.78-.7,8.22,8.22,0,0,0-2,.7c-.23.11-.38.23-.49.29S190.82,290,190.83,290Z" style="fill:#eb996e"></path><path d="M146,231.16l-5.71,61.41h-1.62l25.89.52,9.36,18.81s-33.94,16.51-48.44,12c-17.2-5.4-12.29-24.58-12.16-31.36,0-1.19,9.67-58.24,19-66.79C132.3,225.71,144.63,226.53,146,231.16Z" style="fill:#FF725E"></path><path d="M146.76,248.3a8.82,8.82,0,0,1-.14,1.66c-.16,1.15-.37,2.66-.61,4.49-.58,3.87-1.36,9.05-2.22,14.77s-1.65,11-2.18,14.78c-.26,1.82-.48,3.33-.65,4.48a8.69,8.69,0,0,1-.3,1.64,10.72,10.72,0,0,1,.1-1.66c.09-1.07.25-2.61.47-4.51.44-3.8,1.15-9,2-14.81s1.74-11,2.37-14.75c.32-1.81.58-3.32.78-4.46A11.2,11.2,0,0,1,146.76,248.3Z" style="fill:#263238"></path><path d="M144.8,221.85s.21.21.5.64a14.5,14.5,0,0,1,1.09,1.95,18.76,18.76,0,0,1,1.18,3.09,24.7,24.7,0,0,1,.78,4,35.93,35.93,0,0,1,0,7.33,14.18,14.18,0,0,1-.45,3,20.49,20.49,0,0,1,.07-3,47.51,47.51,0,0,0-.19-7.24,28,28,0,0,0-.72-3.9,26.5,26.5,0,0,0-1-3.07C145.33,222.88,144.72,221.9,144.8,221.85Z" style="fill:#263238"></path><path d="M125.44,323.86a.68.68,0,0,1,.25,0l.73.19a19.94,19.94,0,0,0,2.86.42,40.51,40.51,0,0,0,10.55-1c2.2-.47,4.63-1,7.19-1.57s5.21-1.65,8-2.68c5.57-2.1,11.64-4.57,18-7.24l.79-.34-.14.36-9.34-18.82.22.14c-4.17,0-8-.27-11.37-.37s-6.37-.2-8.82-.18-4.38.12-5.7.26-2,.26-2,.22a3.14,3.14,0,0,1,.5-.12c.34-.07.84-.18,1.5-.26a51.83,51.83,0,0,1,5.71-.38c2.46-.06,5.43,0,8.83.06s7.22.27,11.35.28h.15l.07.13c2.81,5.63,6,12,9.39,18.8l.13.25-.26.11-.79.34c-6.34,2.68-12.42,5.14-18,7.21-2.8,1-5.47,2-8.06,2.65s-5,1.06-7.22,1.51a38.16,38.16,0,0,1-10.65.86A12.89,12.89,0,0,1,125.44,323.86Z" style="fill:#263238"></path><path d="M143.28,292.73c-.07.06-.65-.6-1.81-1.33a13,13,0,0,0-5-1.76,29.44,29.44,0,0,0-5.4-.17,11.93,11.93,0,0,1-2.27,0,8.35,8.35,0,0,1,2.24-.39,22,22,0,0,1,5.51,0,11.56,11.56,0,0,1,5.16,2A4.67,4.67,0,0,1,143.28,292.73Z" style="fill:#263238"></path><g style="opacity:0.30000000000000004"><path d="M142.84,292.65a25.12,25.12,0,0,0-11,.79c-2.18.67-4.38,1.72-5.6,3.65-.4.62-.64,1.51-.11,2a1.68,1.68,0,0,0,1.81.05,16.71,16.71,0,0,0,3.44-2.31,23.07,23.07,0,0,1,5.69-3.33,12.87,12.87,0,0,1,6.49-.81"></path></g><g style="opacity:0.30000000000000004"><path d="M141.7,291.33c-.77-2.16-3.61-4.18-5.44-4.8-4.17-1.42-9-1.95-12.66.44a1.53,1.53,0,0,0-.84,1.09c0,.66.71,1.06,1.35,1.24,2.63.72,5.42.28,8.14,0s5.63-.3,8,1.09"></path></g><g style="opacity:0.30000000000000004"><path d="M140.84,288.63a66,66,0,0,0,5.6-38.24Z"></path></g><path d="M146.23,359.24s9.26,6.14,27.65,6.14,22.61-1.27,22.61-1.27l17.23-15.65,37.8,66.2s30-18.6,30.19-18c.36.36-28-62.71-34.18-73.62a81.92,81.92,0,0,0-7-10.19,26.72,26.72,0,0,0-26.84-9.75,122.94,122.94,0,0,0-15.72,4.39c-13.72,5-25.35,8.4-35.27,17.2C151.19,334.86,144.24,354.6,146.23,359.24Z" style="fill:#263238"></path><path d="M209.42,340.84s-13.6,9.41-13.23,17c.3,6.32,8.71,99.33,8.71,99.33l33.47-.56,2.3-60.91Z" style="fill:#263238"></path><path d="M243.36,400.37a1,1,0,0,1-.15-.23l-.4-.68c-.37-.64-.87-1.53-1.5-2.65L235.89,387l-17.71-32.46-7-13,.26.13a17,17,0,0,0-12.12,7.69,16.3,16.3,0,0,0-2.26,5.85,27.44,27.44,0,0,0-.37,5.43c.09,3.31.4,6,.48,7.77.05.91.07,1.62.07,2.09a4.87,4.87,0,0,1,0,.72,4,4,0,0,1-.08-.72c0-.51-.09-1.2-.15-2.07-.14-1.82-.49-4.44-.63-7.79a26.54,26.54,0,0,1,.31-5.5,16.64,16.64,0,0,1,2.27-6,17.42,17.42,0,0,1,12.43-8l.17,0,.08.16c2.21,4.05,4.59,8.44,7.06,13l17.57,32.53c2.21,4.14,4,7.51,5.27,9.89l1.41,2.7.35.71C243.33,400.28,243.37,400.36,243.36,400.37Z" style="fill:#455a64"></path><path d="M215.39,328.19A17.85,17.85,0,0,0,211.16,342a5.77,5.77,0,0,1-.46-2.18,14.61,14.61,0,0,1,3.09-10.11A5.75,5.75,0,0,1,215.39,328.19Z" style="fill:#455a64"></path><path d="M208.35,325.62c.09,0-.18,1-.38,2.49a19.33,19.33,0,0,0,.16,6,19.73,19.73,0,0,0,2,5.65c.75,1.36,1.34,2.13,1.27,2.18a7.24,7.24,0,0,1-1.59-2,16.93,16.93,0,0,1-2.24-11.9A7.75,7.75,0,0,1,208.35,325.62Z" style="fill:#455a64"></path><path d="M182.26,282.9c-.08-.06,1-1.23,2.25-3.35a30.33,30.33,0,0,0,2-3.86,32.52,32.52,0,0,0,1.65-5.05,33.06,33.06,0,0,0,.75-5.27,30,30,0,0,0-.1-4.35c-.23-2.48-.64-4-.54-4a4.92,4.92,0,0,1,.34,1,10,10,0,0,1,.29,1.24c.09.49.22,1.05.28,1.68a26,26,0,0,1,.2,4.41,29.62,29.62,0,0,1-.71,5.36,30.53,30.53,0,0,1-1.72,5.13,26,26,0,0,1-2.13,3.87,16.75,16.75,0,0,1-1,1.38,9.63,9.63,0,0,1-.81,1A4,4,0,0,1,182.26,282.9Z" style="fill:#263238"></path><path d="M213,223.5s36.29,62.34,37.1,67.13c.6,3.56-.55,13.71-3.8,15-9.1,3.68-19.62-.59-29.23-7.24l-1.44-1Z" style="fill:#FF725E"></path><path d="M53.32,214.77s5.69-3.31,7,5.9,10.69,76.74,10.69,76.74l58.05-.55s12.27-.46,20.59,24.53c5.82,17.49,11.76,77,11.76,77l-1.1,43.06-105,0S52.15,351.16,51.61,311,49.92,227.11,53.32,214.77Z" style="fill:#455a64"></path><path d="M58.56,214.17s.1.1.32.28a7.36,7.36,0,0,1,.85.88,7.66,7.66,0,0,1,1.77,4.35c.51,4.2,1.24,10.27,2.15,17.8,1.87,15.13,4.47,36.17,7.4,59.93l0,.24h.24l12.11-.25c13.09-.21,25.57-.3,36.9,0,2.83.09,5.59.21,8.27.42l2,.17c.65.06,1.29.17,1.94.26a6.66,6.66,0,0,1,3.46,1.33,22.55,22.55,0,0,1,4.92,5.38,57.24,57.24,0,0,1,3.55,5.83,107.72,107.72,0,0,1,7.92,19.13,40.94,40.94,0,0,1,1.34,5.48,12.1,12.1,0,0,1,.15,1.46c0,.33,0,.5,0,.5a4.93,4.93,0,0,0,.05-.5,10.83,10.83,0,0,0-.11-1.48,38.24,38.24,0,0,0-1.24-5.52c-.68-2.37-1.63-5.22-2.89-8.48a103.67,103.67,0,0,0-4.9-10.77,60.19,60.19,0,0,0-3.55-5.89,23.15,23.15,0,0,0-5-5.51l-.82-.53c-.29-.16-.6-.28-.89-.43s-.64-.2-1-.3-.65-.1-1-.15c-.65-.09-1.31-.21-2-.27l-2-.18c-2.68-.22-5.45-.34-8.28-.44-11.35-.35-23.83-.28-36.93-.07l-12.12.26.27.24c-3-23.76-5.67-44.79-7.58-59.91-1-7.53-1.76-13.59-2.31-17.78a7.73,7.73,0,0,0-1.87-4.4A5.29,5.29,0,0,0,58.56,214.17Z" style="fill:#263238"></path><path d="M134.55,302a3.74,3.74,0,0,1-.38.07c-.25,0-.62.1-1.11.21a20.75,20.75,0,0,0-4.12,1.31,21,21,0,0,0-5.79,3.62,24,24,0,0,0-3,3.06l-1.32,1.92-.34.5-.28.55-.56,1.1c-.19.38-.39.75-.58,1.14s-.3.81-.46,1.22c-.29.83-.62,1.66-.89,2.54a39,39,0,0,0-1.06,5.61c-.1,1-.25,2-.31,3s0,2.06,0,3.12c-.07,2.1.12,4.29.18,6.52.4,8.93,1,18.73,1.83,29,.91,11.6,1.9,22.56,2.88,32.19l-.23-.21,30.64.26,8.69.11,2.3.05.59,0,.2,0s-.07,0-.2,0l-.59,0-2.3,0-8.69,0L119,399h-.21l0-.21c-1-9.63-2-20.6-2.94-32.2-.78-10.29-1.42-20.1-1.79-29-.06-2.24-.24-4.41-.16-6.54,0-1.06,0-2.11,0-3.14s.22-2,.32-3a38.19,38.19,0,0,1,1.11-5.67c.27-.89.62-1.73.91-2.57.16-.42.29-.84.47-1.24l.6-1.14.58-1.12.29-.55c.11-.17.23-.34.35-.5l1.35-1.94a24.77,24.77,0,0,1,3-3.09,20.76,20.76,0,0,1,5.89-3.57A19.69,19.69,0,0,1,133,302.2c.49-.09.87-.13,1.13-.16A2.72,2.72,0,0,1,134.55,302Z" style="fill:#263238"></path><path d="M133.91,442c-.14,0-.26-9.36-.26-20.91s.12-20.92.26-20.92.26,9.36.26,20.92S134.06,442,133.91,442Z" style="fill:#263238"></path><path d="M264.38,259.91l-59.07,5.34a1.35,1.35,0,0,0-1.17.95L191,308.36a1.34,1.34,0,0,1-.84.88l-22.69,6.18a1.35,1.35,0,0,0,.76,2.59l24.41-5.17,54.9-6.85a1.37,1.37,0,0,0,1.11-.85l17.11-43.38A1.36,1.36,0,0,0,264.38,259.91Z" style="fill:#e0e0e0"></path><path d="M264.38,259.91a1.2,1.2,0,0,1,.53,0,1.4,1.4,0,0,1,1,1.14,2.26,2.26,0,0,1-.25,1.13c-.15.4-.32.83-.5,1.29l-1.25,3.24c-1.91,4.88-4.67,11.95-8.11,20.77L250.1,302l-.78,2-.39,1a1.76,1.76,0,0,1-.72,1,1.4,1.4,0,0,1-.59.21l-.55.08-1.1.13-2.22.28-9.25,1.17-41.82,5.25h0L180,315.78l-6.49,1.38-3.29.69-1.64.35a2.2,2.2,0,0,1-.94.08,1.65,1.65,0,0,1-.88-.47,1.62,1.62,0,0,1,.63-2.64h0L190.1,309h0a1.15,1.15,0,0,0,.73-.86l.42-1.35.84-2.68q.84-2.67,1.65-5.3,1.65-5.25,3.22-10.3,3.15-10.11,6-19.31c.24-.76.48-1.52.71-2.27a7.15,7.15,0,0,1,.42-1.16,1.59,1.59,0,0,1,1.1-.73l4.59-.41,8.73-.77,15.55-1.38,22.26-1.93,6-.5,1.55-.11.52,0-.52.07-1.54.17-6,.58-22.24,2.08-15.54,1.44-8.73.8-4.56.42a1.15,1.15,0,0,0-.8.53,8.09,8.09,0,0,0-.37,1.06l-.7,2.28q-2.85,9.18-6,19.31-1.56,5.06-3.2,10.31-.81,2.63-1.65,5.3c-.27.89-.55,1.78-.83,2.68l-.42,1.35a1.65,1.65,0,0,1-1.05,1.19h0l-22.68,6.18h0a1.1,1.1,0,0,0-.43,1.79,1.15,1.15,0,0,0,.59.32,1.74,1.74,0,0,0,.73-.07l1.65-.35,3.28-.7,6.5-1.37,12.71-2.69h0l41.83-5.18,9.25-1.14,2.22-.28,1.1-.13a2.32,2.32,0,0,0,1-.23,1.27,1.27,0,0,0,.55-.75l.4-1,.78-2c2.08-5.23,4-10.08,5.75-14.49,3.51-8.8,6.31-15.85,8.25-20.72.49-1.21.92-2.28,1.29-3.22l.52-1.28a2.05,2.05,0,0,0,.26-1.07,1.34,1.34,0,0,0-.9-1.11A2.46,2.46,0,0,0,264.38,259.91Z" style="fill:#263238"></path><path d="M207.52,265.05a2.6,2.6,0,0,1-.1.5c-.1.38-.22.85-.37,1.41-.33,1.23-.83,3-1.47,5.16-1.28,4.34-3.15,10.32-5.25,16.9s-4,12.47-5.39,16.85L193.31,311l-.46,1.38a2.26,2.26,0,0,1-.2.48,2.1,2.1,0,0,1,.09-.51c.1-.38.23-.84.37-1.41.33-1.22.84-3,1.48-5.15,1.28-4.35,3.14-10.32,5.25-16.91s4-12.47,5.39-16.85l1.63-5.11.46-1.38A1.58,1.58,0,0,1,207.52,265.05Z" style="fill:#263238"></path><path d="M230.19,282.26a2.76,2.76,0,0,0-2.31,1.08,2.16,2.16,0,0,0-.64,2.31,1.83,1.83,0,0,0,1.5,1,3.06,3.06,0,0,0,1.78-.47,2.6,2.6,0,0,0,1.43-2A1.89,1.89,0,0,0,230.19,282.26Z" style="fill:#fff"></path><path d="M223,263.33a6.82,6.82,0,0,1-.47-1.24l-1.14-3.44c-1-2.9-2.33-6.88-4-11.24s-3.29-8.25-4.51-11L211.41,233a6.68,6.68,0,0,1-.48-1.25,6,6,0,0,1,.66,1.16c.4.76.94,1.87,1.59,3.26,1.3,2.77,3,6.65,4.65,11s3,8.38,3.86,11.31c.44,1.47.77,2.66,1,3.49A5.57,5.57,0,0,1,223,263.33Z" style="fill:#263238"></path></g><g id="freepik--Floor--inject-453"><path d="M468,479.17c0,.15-97.15.26-217,.26s-217-.11-217-.26,97.13-.26,217-.26S468,479,468,479.17Z" style="fill:#263238"></path></g></svg>