<svg xmlns="http://www.w3.org/2000/svg" viewBox="0 0 500 500"><g id="freepik--background-complete--inject-5"><rect x="160.12" y="48.78" width="10.08" height="50.16" transform="translate(-0.39 0.89) rotate(-0.31)" style="fill:#e0e0e0"></rect><rect x="72.72" y="48.96" width="26.11" height="27.69" transform="translate(-0.33 0.46) rotate(-0.31)" style="fill:#ebebeb"></rect><rect x="98.7" y="48.82" width="26.11" height="27.69" transform="translate(-0.33 0.6) rotate(-0.31)" style="fill:#f5f5f5"></rect><path d="M72.69,56.68c17.34.14,34.74,0,52.08-.24a.28.28,0,0,0,0-.56q-26-.14-52.09.32a.24.24,0,0,0,0,.48Z" style="fill:#e0e0e0"></path><rect x="56.43" y="76.25" width="47.43" height="22.57" transform="translate(-0.47 0.43) rotate(-0.31)" style="fill:#ebebeb"></rect><rect x="103.63" y="75.99" width="47.43" height="22.57" transform="translate(-0.47 0.68) rotate(-0.31)" style="fill:#f5f5f5"></rect><path d="M56.4,82.65c31.51.36,63.13,0,94.64-.47a.28.28,0,0,0,0-.55c-31.52-.17-63.14-.15-94.64.55a.24.24,0,0,0,0,.47Z" style="fill:#e0e0e0"></path><rect x="38.66" y="98.94" width="183.77" height="8.09" style="fill:#e0e0e0"></rect><rect x="68.75" y="102.83" width="7.46" height="27.59" style="fill:#e0e0e0"></rect><rect x="180.11" y="102.83" width="7.46" height="27.59" style="fill:#e0e0e0"></rect><rect x="170" y="30.08" width="10.08" height="68.99" transform="translate(-0.34 0.94) rotate(-0.31)" style="fill:#ebebeb"></rect><rect x="180.14" y="42.94" width="15.66" height="55.91" transform="translate(-0.38 1.01) rotate(-0.31)" style="fill:#f5f5f5"></rect><path d="M195.55,53.67a57,57,0,0,1-7.84.27,56.89,56.89,0,0,1-7.83-.27,55.87,55.87,0,0,1,7.83-.28A56,56,0,0,1,195.55,53.67Z" style="fill:#e0e0e0"></path><path d="M195.55,51.32a57,57,0,0,1-7.84.27,56.89,56.89,0,0,1-7.83-.27,56.89,56.89,0,0,1,7.83-.27A57,57,0,0,1,195.55,51.32Z" style="fill:#e0e0e0"></path><path d="M195.55,90.39a57,57,0,0,1-7.84.27,56.89,56.89,0,0,1-7.83-.27,56.89,56.89,0,0,1,7.83-.27A57,57,0,0,1,195.55,90.39Z" style="fill:#e0e0e0"></path><path d="M195.55,88a56,56,0,0,1-7.84.28,55.87,55.87,0,0,1-7.83-.28,56.89,56.89,0,0,1,7.83-.27A57,57,0,0,1,195.55,88Z" style="fill:#e0e0e0"></path><path d="M188,82.92c-.15,0-.27-5.64-.27-12.6s.12-12.6.27-12.6.27,5.64.27,12.6S188.12,82.92,188,82.92Z" style="fill:#e0e0e0"></path><rect x="195.72" y="56.62" width="17.05" height="42.2" style="fill:#ebebeb"></rect><path d="M177.61,41.83a2.9,2.9,0,1,1-2.9-2.9A2.9,2.9,0,0,1,177.61,41.83Z" style="fill:#e0e0e0"></path><rect x="173.82" y="49.8" width="1.79" height="41.04" style="fill:#e0e0e0"></rect><rect x="345.46" y="34.64" width="104.54" height="151.52" style="fill:#e0e0e0"></rect><rect x="340.23" y="34.64" width="104.54" height="151.52" style="fill:#f5f5f5"></rect><rect x="353.21" y="51.06" width="78.56" height="118.7" style="fill:#fff"></rect><path d="M431.78,169.76s0-.2,0-.58,0-1,0-1.69c0-1.49,0-3.67,0-6.51,0-5.69,0-14-.07-24.45,0-20.93-.07-50.57-.12-85.47l.26.26-78.56,0h0l.29-.28c0,44.77,0,86.06-.06,118.7l-.23-.23,57.19.12,15.8.06,4.14,0,1.44,0-1.39,0-4.1,0-15.75.05-57.33.12H353v-.22c0-32.64,0-73.93-.06-118.7v-.29h.29l78.56,0H432v.27c-.06,35-.1,64.67-.13,85.64,0,10.45-.05,18.72-.07,24.39,0,2.82,0,5,0,6.46,0,.72,0,1.27,0,1.66S431.78,169.76,431.78,169.76Z" style="fill:#e0e0e0"></path><path d="M445.06,34.64a17.65,17.65,0,0,1-1.87,2.71c-1.21,1.63-2.93,3.83-4.9,6.22s-3.81,4.51-5.17,6a18.36,18.36,0,0,1-2.3,2.35,20.44,20.44,0,0,1,2-2.61l5-6.11c1.91-2.31,3.63-4.41,5-6.11A20.25,20.25,0,0,1,445.06,34.64Z" style="fill:#e0e0e0"></path><path d="M432.18,169.37a97.17,97.17,0,0,0,13.7,17.14" style="fill:#fff"></path><path d="M445.88,186.51a16.44,16.44,0,0,1-2.39-2.17,76.27,76.27,0,0,1-9.72-12.16,14.86,14.86,0,0,1-1.59-2.81A22.62,22.62,0,0,1,434.1,172c1.16,1.62,2.78,3.83,4.67,6.19s3.69,4.43,5,5.91A20.87,20.87,0,0,1,445.88,186.51Z" style="fill:#e0e0e0"></path><path d="M340.21,186.05q6.85-8.45,13.69-16.9" style="fill:#fff"></path><path d="M353.9,169.15a101.91,101.91,0,0,1-6.62,8.63,103,103,0,0,1-7.07,8.27,106.15,106.15,0,0,1,6.63-8.63A106.52,106.52,0,0,1,353.9,169.15Z" style="fill:#e0e0e0"></path><path d="M340.23,34.64a95.42,95.42,0,0,1,6.64,8,92.42,92.42,0,0,1,6.2,8.3,95.71,95.71,0,0,1-6.64-8A90.78,90.78,0,0,1,340.23,34.64Z" style="fill:#e0e0e0"></path><rect x="380.99" y="75.16" width="26.31" height="74.69" style="fill:#e0e0e0"></rect></g><g id="freepik--Sofa--inject-5"><path d="M444.51,351c-4.06-12.14-11.46-21.39-19.85-31-9.08-10.45-14.1-20.77-24.13-30.31-3.64-3.46-10.19-4.91-16.61-4.93l2.54-57.24a21.11,21.11,0,0,0-20.58-22l-218.16-5A33.41,33.41,0,0,0,113.61,236l4.32,48.74c-7-.29-14.47,1.09-18.46,4.89-10,9.54-15,19.86-24.13,30.31-8.39,9.65-15.79,18.9-19.85,31-4.27,12.73-2.7,33.27-2.14,46.69l2.13,60,62.34,1.35H379.31c.95,0,1.89-.05,2.82-.13l.05.13,62.34-1.35,2.12-60C447.21,384.28,448.78,363.74,444.51,351Z" style="fill:#455a64"></path><path d="M405.05,378.21a3,3,0,0,1-.07-.66c0-.43-.07-1.07-.09-1.89,0-1.65,0-4,.14-7a67.29,67.29,0,0,1,1.35-10.27,26.3,26.3,0,0,1,1.95-5.83,27.69,27.69,0,0,1,3.56-5.56,21.57,21.57,0,0,1,10.45-7.08,17.51,17.51,0,0,1,10.3.27,14.85,14.85,0,0,1,5.93,3.67,10.25,10.25,0,0,1,1.55,2.05c-.05,0-.53-.75-1.69-1.9a15.17,15.17,0,0,0-5.9-3.47,17.38,17.38,0,0,0-10.06-.16,21.28,21.28,0,0,0-10.18,7,27.83,27.83,0,0,0-3.5,5.45,25.68,25.68,0,0,0-1.94,5.71,70,70,0,0,0-1.45,10.19c-.23,2.93-.28,5.31-.31,7,0,.78,0,1.4,0,1.89A2.82,2.82,0,0,1,405.05,378.21Z" style="fill:#263238"></path><path d="M419.26,362.73c.06,0,0,.56.13,1.52a6.93,6.93,0,0,0,1.85,3.59,6.77,6.77,0,0,0,2.32,1.54,5.53,5.53,0,0,0,3.14.22,6.38,6.38,0,0,0,4.84-4.93,6,6,0,0,0-5.94-6.73h0c-.74.1-1.34.1-1.94.2a5.94,5.94,0,0,0-1.61.48,5.11,5.11,0,0,0-1.95,1.87,9.52,9.52,0,0,0-.88,2.25,2.21,2.21,0,0,1,.05-.64,5.67,5.67,0,0,1,.61-1.74,5.15,5.15,0,0,1,2-2.05,9.65,9.65,0,0,1,3.61-.79h0a6.47,6.47,0,0,1,6.47,7.26,6.43,6.43,0,0,1-1.94,3.54,7,7,0,0,1-3.31,1.77,5.84,5.84,0,0,1-3.39-.29,6.77,6.77,0,0,1-2.43-1.69,6.85,6.85,0,0,1-1.79-3.81,4.8,4.8,0,0,1,0-1.15A1.55,1.55,0,0,1,419.26,362.73Z" style="fill:#263238"></path><path d="M403.11,336.18c.13-.08,1.63,2.35,3.88,5s4.36,4.62,4.25,4.74a20.86,20.86,0,0,1-4.65-4.41A20.24,20.24,0,0,1,403.11,336.18Z" style="fill:#263238"></path><path d="M410.31,337.58c.15,0,.52,1.56,1.38,3.35s1.84,3.1,1.72,3.2a7.15,7.15,0,0,1-2.19-3A7.05,7.05,0,0,1,410.31,337.58Z" style="fill:#263238"></path><path d="M407.38,394.92c0,.14-70.45.26-157.34.26s-157.37-.12-157.37-.26,70.44-.26,157.37-.26S407.38,394.78,407.38,394.92Z" style="fill:#263238"></path><path d="M381.31,343.79l-.67,0-2,0-7.52,0-27.68,0c-23.36,0-55.65-.23-91.3-.52l-91.31-.67-27.68-.15-7.52-.05-2,0c-.44,0-.66,0-.66,0l.66,0,2,0,7.52,0h27.68c23.37,0,55.65.22,91.32.51l91.3.67,27.67.15,7.52.06,2,0Z" style="fill:#263238"></path><path d="M126,412.5a10.06,10.06,0,0,1-.53-2.57,29.06,29.06,0,0,1-.08-6.36,29.39,29.39,0,0,1,1.28-6.22,9.31,9.31,0,0,1,1-2.43,22.35,22.35,0,0,1-.66,2.53,39,39,0,0,0-1.11,6.17,38.15,38.15,0,0,0-.07,6.27A19.58,19.58,0,0,1,126,412.5Z" style="fill:#263238"></path><path d="M117.31,403.61a11.37,11.37,0,0,1,1.39-4.53,11.51,11.51,0,0,1,2.7-3.88c.13.09-1.12,1.79-2.24,4.11S117.46,403.65,117.31,403.61Z" style="fill:#263238"></path><path d="M138,384.24a19.12,19.12,0,0,0-.87,5.4,18.89,18.89,0,0,0,1.2,5.33,3.68,3.68,0,0,1-.86-1.41,10.81,10.81,0,0,1-.24-7.86A3.85,3.85,0,0,1,138,384.24Z" style="fill:#263238"></path><path d="M146.16,387.66c0,.08-.4.31-1,.81a7.54,7.54,0,0,0-1.8,2.36,7.34,7.34,0,0,0-.68,2.89,6.35,6.35,0,0,1,0,1.28c-.06,0-.28-.45-.37-1.27a6.21,6.21,0,0,1,2.63-5.55A2.39,2.39,0,0,1,146.16,387.66Z" style="fill:#263238"></path><path d="M142.23,330.6a26.25,26.25,0,0,0,1.07,5.83,25.72,25.72,0,0,0,2.84,5.2,12.47,12.47,0,0,1-3.91-11Z" style="fill:#263238"></path><path d="M90.55,387.94a3.16,3.16,0,0,1,0-.67c0-.48,0-1.11,0-1.89,0-1.64-.07-4-.3-6.95a71,71,0,0,0-1.45-10.19,26.83,26.83,0,0,0-1.94-5.72,27.36,27.36,0,0,0-3.51-5.44,21.28,21.28,0,0,0-10.18-7,17.26,17.26,0,0,0-10.05.17,15.17,15.17,0,0,0-5.9,3.46c-1.16,1.15-1.64,1.94-1.69,1.9a9.59,9.59,0,0,1,1.55-2A14.62,14.62,0,0,1,63,349.94a17.54,17.54,0,0,1,10.31-.28,21.55,21.55,0,0,1,10.44,7.08,27.37,27.37,0,0,1,3.56,5.56,26.12,26.12,0,0,1,1.95,5.83,66.05,66.05,0,0,1,1.35,10.27c.19,3,.18,5.33.14,7,0,.83,0,1.47-.08,1.9A4.41,4.41,0,0,1,90.55,387.94Z" style="fill:#263238"></path><path d="M76.33,372.46s0,.13.08.39a4.41,4.41,0,0,1,0,1.15,6.85,6.85,0,0,1-4.21,5.5,5.84,5.84,0,0,1-3.39.3A7,7,0,0,1,65.48,378a6.43,6.43,0,0,1-1.94-3.53,6.25,6.25,0,0,1,1.84-5.35A6.14,6.14,0,0,1,70,367.23h0a9.65,9.65,0,0,1,3.61.79,5.19,5.19,0,0,1,2,2.06,6,6,0,0,1,.62,1.73,1.71,1.71,0,0,1,0,.65,9.15,9.15,0,0,0-.87-2.25,5,5,0,0,0-2-1.87,5.17,5.17,0,0,0-1.6-.48c-.61-.11-1.21-.11-1.94-.2h0a6,6,0,0,0-5.94,6.74,6.4,6.4,0,0,0,4.84,4.93A5.48,5.48,0,0,0,72,379.1a6.45,6.45,0,0,0,2.32-1.54A6.85,6.85,0,0,0,76.2,374C76.36,373,76.28,372.46,76.33,372.46Z" style="fill:#263238"></path><path d="M92.49,345.9A20.09,20.09,0,0,1,89,351.28a20.15,20.15,0,0,1-4.65,4.4c-.1-.12,2-2,4.25-4.74S92.36,345.82,92.49,345.9Z" style="fill:#263238"></path><path d="M85.29,347.3a7.16,7.16,0,0,1-.92,3.58,7.29,7.29,0,0,1-2.18,3c-.12-.1.87-1.4,1.71-3.2S85.14,347.27,85.29,347.3Z" style="fill:#263238"></path><path d="M444.11,432.74c0,.14-87.2.26-194.75.26s-194.77-.12-194.77-.26,87.19-.26,194.77-.26S444.11,432.59,444.11,432.74Z" style="fill:#fff"></path><path d="M444.11,440.29c0,.14-87.2.26-194.75.26s-194.77-.12-194.77-.26,87.19-.26,194.77-.26S444.11,440.14,444.11,440.29Z" style="fill:#fff"></path><path d="M114.9,250.6a3.88,3.88,0,0,1,0,.45c0,.33.07.77.12,1.35.1,1.21.24,3,.42,5.22.34,4.56.83,11.15,1.45,19.36,1.19,16.47,2.84,39.42,4.72,65.46v.09l-.06.08c-3.22,4.34-6.55,8.92-9.88,13.63-4.34,6.14-8.5,12.19-12.31,18.16-1.91,3-3.72,6-5.36,8.94a48.34,48.34,0,0,0-2.23,4.51c-.17.38-.32.76-.45,1.15a8.17,8.17,0,0,0-.36,1.16,6.88,6.88,0,0,0-.2,1.16v1.23c0,13,0,24.76,0,34.62s-.06,17.81-.08,23.35c0,2.74,0,4.87,0,6.34q0,1.06,0,1.65c0,.38,0,.57,0,.57s0-.19,0-.57,0-.94,0-1.65c0-1.47,0-3.6,0-6.34,0-5.54,0-13.51-.09-23.35s0-21.6-.07-34.63v-1.22a5.91,5.91,0,0,1,.21-1.27,7.06,7.06,0,0,1,.37-1.21,10.66,10.66,0,0,1,.46-1.18,49.3,49.3,0,0,1,2.24-4.56c1.64-3,3.46-6,5.37-9,3.81-6,8-12.05,12.31-18.19,3.34-4.71,6.67-9.3,9.9-13.64l0,.17c-1.81-26-3.41-49-4.55-65.47-.55-8.21-1-14.81-1.3-19.37-.14-2.26-.25-4-.32-5.22,0-.58-.06-1-.07-1.35A4,4,0,0,1,114.9,250.6Z" style="fill:#263238"></path><path d="M408.16,458.4a1.71,1.71,0,0,1,0-.3c0-.22,0-.52,0-.91,0-.82,0-2,0-3.52,0-3.1.05-7.6.08-13.3.11-11.43.26-27.66.45-46.9l0,.12-23.91-43-3.71-6.67,0-.07v-.07c1.35-29.74,2.55-56.33,3.42-75.51.46-9.56.83-17.28,1.09-22.62.13-2.65.24-4.71.31-6.13.05-.68.08-1.21.1-1.59s0-.54,0-.54,0,.19,0,.55,0,.9,0,1.59c-.06,1.42-.13,3.48-.23,6.12-.22,5.35-.53,13.07-.92,22.64-.83,19.18-2,45.77-3.26,75.51l0-.14,3.7,6.68c8.59,15.48,16.71,30.13,23.87,43l0,.06v.06c-.26,19.23-.48,35.46-.63,46.9-.1,5.69-.17,10.19-.22,13.29,0,1.53-.06,2.71-.08,3.52,0,.39,0,.69,0,.91A1.71,1.71,0,0,1,408.16,458.4Z" style="fill:#263238"></path></g><g id="freepik--speech-bubble--inject-5"><path d="M209.21,150.15l-8.08-14.25A38.21,38.21,0,1,0,192,146.07v0Z" style="fill:#fff"></path><path d="M209.21,150.15l-17.27-3.93a.14.14,0,0,1-.1-.16l0-.05v0l.18.19a39.5,39.5,0,0,1-7.84,4.73,38.33,38.33,0,0,1-10.46,3,35.18,35.18,0,0,1-6,.3c-1-.06-2.09-.08-3.16-.17l-3.22-.49a38.38,38.38,0,0,1-23.84-15.3,38,38,0,0,1-6.45-14.74,38.69,38.69,0,0,1,.45-17,37.71,37.71,0,0,1,8.17-15.69l1.56-1.71c.52-.58,1.13-1,1.68-1.58S144,86.48,144.64,86l1.83-1.37a14.82,14.82,0,0,1,1.9-1.25l1.93-1.18,2-1a15.6,15.6,0,0,1,2-.91,38.91,38.91,0,0,1,17.1-2.63,37.68,37.68,0,0,1,15.69,4.64,38.66,38.66,0,0,1,18.11,22.28,41.3,41.3,0,0,1,1.65,12.41,37.86,37.86,0,0,1-5.7,18.92v-.13c5.08,9.11,7.54,13.54,8,14.31L201,136a.13.13,0,0,1,0-.12,37.93,37.93,0,0,0,5.55-18.8,41.1,41.1,0,0,0-1.68-12.28,38.3,38.3,0,0,0-17.95-22,37.24,37.24,0,0,0-15.5-4.56,38.3,38.3,0,0,0-16.87,2.61,16.51,16.51,0,0,0-2,.89l-2,1-1.91,1.17a16.28,16.28,0,0,0-1.87,1.23L145,86.44c-.62.44-1.14,1-1.71,1.49s-1.15,1-1.65,1.56l-1.54,1.69A37.14,37.14,0,0,0,132,106.66a38.44,38.44,0,0,0-.46,16.75A37.47,37.47,0,0,0,137.89,138a38,38,0,0,0,23.53,15.18l3.18.49c1.06.09,2.1.12,3.13.18a33.55,33.55,0,0,0,6-.28A37.91,37.91,0,0,0,191.9,146a.15.15,0,0,1,.19,0,.15.15,0,0,1,0,.16l0,0L192,146Z" style="fill:#263238"></path><path d="M165.72,101.38l1.05,16.71a2.72,2.72,0,0,0,2.55,2.54h0a2.71,2.71,0,0,0,2.86-2.41l1.85-16.8a2.12,2.12,0,0,0-2.14-2.36l-4.08,0A2.13,2.13,0,0,0,165.72,101.38Z" style="fill:#FF725E"></path><path d="M173.75,130a4.08,4.08,0,1,1-2.59-5.16A4.08,4.08,0,0,1,173.75,130Z" style="fill:#FF725E"></path></g><g id="freepik--Character--inject-5"><path d="M318.88,179.43l-28-4.72-40.09.95-20.3,5.07S208.65,184,205,198.35s-2.64,19.4-2.64,19.4S195,268.16,200.79,280,222,299.33,230.3,292.85l3,7.22s61.9-3.51,62.86-3.19c.14.05.83-2.65,1.89-7.25,4.52,3.13,10.9,4.15,17.57,3.1,10.21-1.59,21.45-61.8,23-83.49C340.63,182.12,318.88,179.43,318.88,179.43Z" style="fill:#FF725E"></path><g style="opacity:0.30000000000000004"><path d="M252.58,233c-4.37,8.95-6.11,18.91-7.8,28.72-2.89-11.2-5.91-22.69-12.66-32.07l-6.64-13.13c6.78,25.39,3.12,53.29,13.7,77.35.69,1.56,1.73,3.32,3.44,3.43,2,.14,3.3-2.05,4.08-3.91l15.52-37c5.78-13.77,11.66-28,11.77-42.92C264.39,216.13,257,224.08,252.58,233Z"></path></g><g style="opacity:0.30000000000000004"><path d="M290.85,174.71c0,3-1.07,5.16-2.33,7.62s-2.79,4.87-3.32,7.59c-.64,3.29.25,6.66,1.13,9.88q.89,3.21,1.75,6.42c.31,1.13.75,2.41,1.84,2.83a2.61,2.61,0,0,0,2.92-1.16,7.84,7.84,0,0,0,1-3.19,106.63,106.63,0,0,1,9.62-27.86Z"></path></g><path d="M255.36,234.71a7.6,7.6,0,0,1-.4-.93,7.26,7.26,0,0,0-1.53-2.25,5.22,5.22,0,0,0-3.59-1.46c-1.53-.06-3.26,0-5.05,0-3.59,0-6.84-.08-9.19-.15-1.17,0-2.12-.06-2.78-.1a3.84,3.84,0,0,1-1-.11,3.47,3.47,0,0,1,1-.09c.66,0,1.61-.05,2.79-.07,2.35,0,5.6,0,9.19,0,1.8,0,3.49,0,5.07.08a6.51,6.51,0,0,1,2.21.52,5.3,5.3,0,0,1,1.62,1.16,6.66,6.66,0,0,1,1.44,2.43A2.71,2.71,0,0,1,255.36,234.71Z" style="fill:#263238"></path><path d="M320.42,181.06s-.5.1-1.39.32a10.86,10.86,0,0,0-3.47,1.58,21.76,21.76,0,0,0-2.07,1.69,14.72,14.72,0,0,0-2.11,2.19,25.81,25.81,0,0,0-1.93,2.76,35,35,0,0,0-1.63,3.24,99.86,99.86,0,0,0-4.55,12l-1.12,3.72a6.62,6.62,0,0,1-.46,1.36,8.16,8.16,0,0,1,.26-1.41c.21-.89.52-2.19,1-3.77a81.31,81.31,0,0,1,4.43-12.08,29.8,29.8,0,0,1,1.67-3.29,24.19,24.19,0,0,1,2-2.81,14.83,14.83,0,0,1,2.2-2.21,19.74,19.74,0,0,1,2.14-1.66,10.06,10.06,0,0,1,3.64-1.48,8.46,8.46,0,0,1,1.06-.13C320.29,181,320.42,181,320.42,181.06Z" style="fill:#263238"></path><path d="M224.1,195.43c-.16,0-.64-2.45-2-5.17s-3.12-4.57-3-4.68a12.26,12.26,0,0,1,3.46,4.44A12.09,12.09,0,0,1,224.1,195.43Z" style="fill:#263238"></path><path d="M179,245.8s6.17,82,9.7,101,25.08,25.87,42.28,32.48,52.58,4.36,66.92,3.92c19.84-.61,44.19-28.51,40.34-45.38-3.65-16-22.55-96.85-22.55-96.85s-9.23-19.43-9.26-22L253.6,252.42,244.75,296l-12.82-60.69-50.7,10.09" style="fill:#263238"></path><path d="M264.66,384a3.91,3.91,0,0,1-1.19-.24,11,11,0,0,1-3-1.47,16.56,16.56,0,0,1-6.2-8.89,33.2,33.2,0,0,1-1-10.87c.06-1.39.15-2.52.23-3.3a4.87,4.87,0,0,1,.17-1.2,6.49,6.49,0,0,1,0,1.22c0,.88,0,2-.06,3.29a36.23,36.23,0,0,0,1.17,10.71,16.94,16.94,0,0,0,5.91,8.74A16.27,16.27,0,0,0,264.66,384Z" style="fill:#455a64"></path><path d="M327.22,366.31a5.1,5.1,0,0,1-.49-.54l-1.35-1.61-4.89-6,.12.07-24.51-3.12-1.58-.21.24-.1-12.62,16.35,0-.17,2.38,9.2c.26,1.06.47,1.9.62,2.53a4.79,4.79,0,0,1,.18.9,5.69,5.69,0,0,1-.29-.87c-.18-.62-.43-1.46-.73-2.5-.62-2.23-1.49-5.35-2.54-9.16l0-.09.06-.09c3.42-4.47,7.76-10.17,12.52-16.41l.1-.12.15,0,1.57.2,24.5,3.27h.08l0,.06,4.76,6.07c.52.7.95,1.25,1.27,1.67A3.7,3.7,0,0,1,327.22,366.31Z" style="fill:#455a64"></path><polygon points="222.11 229.36 226.83 166.56 239.75 168.83 250.15 229.86 222.11 229.36" style="fill:#ffbea9"></polygon><polygon points="274.86 234.55 266.03 179.35 282.12 176.64 297.93 226.42 274.86 234.55" style="fill:#ffbea9"></polygon><path d="M287.15,100.65l-30.92-15c-11.26-1.22-23,18.71-23.73,30a187.11,187.11,0,0,0,1.92,37.07c3,18.84,15.6,19.5,15.6,19.5l.17,12.79c.11,7.54,2.11,12.62,7.92,15.83a19.64,19.64,0,0,0,13.7,1.74c9.11-2,16-7.4,18.75-18.91l2.5-76.26A6.62,6.62,0,0,0,287.15,100.65Z" style="fill:#ffbea9"></path><path d="M235.86,128.08c.27.23,2.17,0,4.69.59s4.25,1.75,4.55,1.65-.09-.4-.84-.91a11.68,11.68,0,0,0-3.61-1.52,10.31,10.31,0,0,0-3.77-.27C236.05,127.74,235.73,128,235.86,128.08Z" style="fill:#263238"></path><path d="M265.5,127.88a2.41,2.41,0,0,0,2.32,2.44,2.31,2.31,0,0,0,2.5-2.17,2.4,2.4,0,0,0-2.32-2.44A2.31,2.31,0,0,0,265.5,127.88Z" style="fill:#263238"></path><path d="M261.43,126.29c.38.09,2.05-1.19,4.78-1.91s5-.53,5.21-.79-.31-.35-1.3-.46a12,12,0,0,0-4.24.41,10.41,10.41,0,0,0-3.72,1.74C261.43,125.85,261.25,126.25,261.43,126.29Z" style="fill:#263238"></path><path d="M251.88,143.42c0-.15-1.6-.43-4.22-.78-.66-.07-1.29-.2-1.4-.65a3.46,3.46,0,0,1,.45-2c.63-1.6,1.28-3.29,2-5.05,2.75-7.19,4.73-13.1,4.44-13.21s-2.75,5.63-5.49,12.82l-1.89,5.08a3.86,3.86,0,0,0-.35,2.61,1.66,1.66,0,0,0,1.09,1,4.51,4.51,0,0,0,1.13.16C250.24,143.55,251.87,143.56,251.88,143.42Z" style="fill:#263238"></path><path d="M250,172.38a47.94,47.94,0,0,0,25.24-6.68S268.87,179,250,177.18Z" style="fill:#e4977c"></path><path d="M251.18,150.34a7,7,0,0,1,5-3.31,3,3,0,0,1,2.93,1.64,4.69,4.69,0,0,1-.41,4.32,4,4,0,0,1-3.94,1.9,6.63,6.63,0,0,1-3.26-2.12,2.35,2.35,0,0,1-.66-.93,1.6,1.6,0,0,1,.21-1.36" style="fill:#e4977c"></path><path d="M271.44,111.27c-.29-.7-2.86-.24-5.93-.47s-5.56-.94-5.94-.29c-.16.31.29,1,1.32,1.6a10,10,0,0,0,4.46,1.33,9.84,9.84,0,0,0,4.58-.76C271,112.18,271.57,111.6,271.44,111.27Z" style="fill:#263238"></path><path d="M247.07,121.94c-.62-.54-2.78.27-5.44.54s-5,0-5.42.72c-.2.31.21.87,1.24,1.34a9,9,0,0,0,4.52.56,8.72,8.72,0,0,0,4.23-1.58C247.09,122.83,247.35,122.2,247.07,121.94Z" style="fill:#263238"></path><path d="M311.24,154.35c-1.43-8.39-5.88-35.27-13-49.4s-15.56-19.84-23.81-22.07a19.18,19.18,0,0,0-13.41,1c-9.78-.49-14.51,1.94-20.08,7-5.84,5.33-9.64,15-10.25,22.57s1.05,21,1.05,21,1.45-16.81,3.35-22.62A16.34,16.34,0,0,1,251.23,100v0s19.91,4.43,26.62,15.78c7.7,13,9.57,19.61,9.57,19.61l2.5,7.13s-2.34,13.81-3.2,20.64Z" style="fill:#263238"></path><path d="M287.28,136.43c.21-4.17,4.75-7,8.37-4.86,2,1.14,3.5,3.45,3.32,7.88-.49,11.8-12.24,8.88-12.25,8.54S287,141.31,287.28,136.43Z" style="fill:#ffbea9"></path><path d="M290.51,143.66c.06,0,.2.16.54.33a2.09,2.09,0,0,0,1.54.1c1.27-.41,2.4-2.35,2.54-4.47a6.81,6.81,0,0,0-.45-3A2.39,2.39,0,0,0,293.2,135a1.06,1.06,0,0,0-1.24.51c-.17.33-.11.56-.17.58s-.25-.21-.13-.69a1.33,1.33,0,0,1,.49-.72,1.54,1.54,0,0,1,1.15-.25,2.9,2.9,0,0,1,2.08,1.91,6.93,6.93,0,0,1,.57,3.32c-.17,2.38-1.48,4.55-3.21,5a2.21,2.21,0,0,1-1.86-.39C290.52,144,290.47,143.68,290.51,143.66Z" style="fill:#e4977c"></path><path d="M269.68,82.14c0,.09-1.62,0-4.18.38a13.55,13.55,0,0,0-8.63,4.65,21.81,21.81,0,0,0-4.79,8.77c-.68,2.5-.77,4.12-.85,4.11a5.11,5.11,0,0,1,0-1.13,21.49,21.49,0,0,1,.52-3,21.14,21.14,0,0,1,4.76-9A14.14,14.14,0,0,1,261,83.46a13.82,13.82,0,0,1,4.44-1.23,26,26,0,0,1,3.09-.16A5.06,5.06,0,0,1,269.68,82.14Z" style="fill:#455a64"></path><path d="M294.82,123.12a28,28,0,0,1,4.05,11,26.85,26.85,0,0,1,0,8c-.08.45-.16.87-.22,1.23l-.21.89-.15.54c0,.12,0,.19-.06.18s0-.06,0-.19.06-.33.1-.55l.18-.9q.08-.54.18-1.23a28.37,28.37,0,0,0-4.2-18.76,31.79,31.79,0,0,0-10.36-9.73,57,57,0,0,0-6.59-3.45c-2.19-1-4.37-1.79-6.41-2.71a77.14,77.14,0,0,1-10.28-5.78c-2.8-1.86-5-3.49-6.46-4.64-.74-.58-1.31-1-1.68-1.36l-.43-.36c-.1-.08-.14-.13-.14-.14l.17.11.45.33,1.73,1.29c1.51,1.11,3.71,2.7,6.52,4.52a80.73,80.73,0,0,0,10.28,5.68c2,.9,4.22,1.68,6.42,2.68" style="fill:#455a64"></path><path d="M300.94,140.51a1.78,1.78,0,0,1,0-.2v-.56c0-.5.05-1.23,0-2.17a45.1,45.1,0,0,0-.77-7.91,45.88,45.88,0,0,0-3.65-11.17,44.22,44.22,0,0,0-8.25-11.75,52.46,52.46,0,0,0-11.54-8.58c-3.86-2.21-7.49-3.91-10.52-5.39s-5.48-2.66-7.15-3.55c-.83-.43-1.47-.8-1.9-1l-.49-.28c-.11-.07-.17-.1-.16-.11l.18.07.51.25,1.94,1c1.68.84,4.15,2,7.2,3.43s6.69,3.13,10.58,5.32a51.93,51.93,0,0,1,11.65,8.63,44.16,44.16,0,0,1,8.3,11.88,45.52,45.52,0,0,1,3.6,11.28,42.47,42.47,0,0,1,.64,8c0,.95-.09,1.68-.12,2.17,0,.23,0,.41,0,.56A.55.55,0,0,1,300.94,140.51Z" style="fill:#455a64"></path><path d="M288.76,134.5a.55.55,0,0,1,.19,0h0v0h0l-.11.12-.27-.13h-.06l0-.14a.37.37,0,0,1,.14-.06.21.21,0,0,1,.2.07.11.11,0,0,1,0,.09c0,.06-.09.05-.15.05s-.11,0-.14,0,0,0,0,.08a.21.21,0,0,0,.2.06c.06,0,.09,0,.05-.1a.4.4,0,0,0-.12-.1H289a1.67,1.67,0,0,1-.25,0h0Z" style="fill:#e4977c"></path><path d="M254.47,154.87a5.72,5.72,0,0,0,2.44-.23,3.35,3.35,0,0,0,1.84-1.66,3.76,3.76,0,0,0,0-3,3.28,3.28,0,0,0-2.08-2.07,6.52,6.52,0,0,0-2.6.25,8,8,0,0,0-2.3,1s.05-.28.4-.6a4.81,4.81,0,0,1,1.73-.94,6.21,6.21,0,0,1,2.93-.44,3.94,3.94,0,0,1,2.7,2.51,4.41,4.41,0,0,1-.11,3.67,3.84,3.84,0,0,1-2.34,1.88,3.44,3.44,0,0,1-2,0C254.65,155.09,254.45,154.91,254.47,154.87Z" style="fill:#263238"></path><path d="M273.94,217.78l-6.3-38.9c-1.8-4.76.2-7.53.81-11.5s-.81-10.9-.81-10.9-4.62-7.14-8.83-12.29-4.42-7.16-4.42-7.16c-4.62-5.57,0-6.92,0-6.92-1.6-3,3-3.77,3-3.77L281.5,144l3-8.92s0-4.56.6-11.7,5.42-6.74,5.42-6.74.37,15.66.4,16.43c0,.06-.6,8.75-.6,8.75.8-2.58,2.61-1.59,2.61-1.59l1.2,8.72-3.21,9-6.62,18.16,11.33,35.23" style="fill:#ffbea9"></path><path d="M295.64,211.34s-.08-.2-.22-.61-.34-1-.61-1.79c-.52-1.61-1.29-3.94-2.28-7-2-6.07-4.84-14.87-8.4-25.82v-.06l0-.06c2.85-7.9,6.23-17,9.79-27.17v.1c-.38-2.72-.79-5.68-1.21-8.72l.12.18a1.4,1.4,0,0,0-1.4.06,2.59,2.59,0,0,0-.87,1.39l-.6,2,.13-2.06c.09-1.37.18-2.8.28-4.26l.15-2.23.07-1.13.05-.56,0-.29a1.23,1.23,0,0,1,.06-.39l0,.14c-.13-5.23-.26-10.76-.4-16.44l.23.25a4.59,4.59,0,0,0-4,2.42,11.37,11.37,0,0,0-1.23,5c-.27,3.54-.48,7.15-.52,10.8v0l0,0L282.44,142c-.23.7-.47,1.39-.7,2.07l-.11.34-.29-.21-24.09-17.65.2,0a5.64,5.64,0,0,0-2.52,1.1,1.73,1.73,0,0,0-.61,1.07,2.3,2.3,0,0,0,.29,1.23l.12.27-.27.09a2.94,2.94,0,0,0-1.52,1.16,2.42,2.42,0,0,0-.28,1.85,8.54,8.54,0,0,0,1.92,3.51l0,0,0,.08a10,10,0,0,0,1.25,2.71c.52.87,1.1,1.71,1.7,2.52,1.21,1.6,2.51,3.13,3.69,4.72,2.36,3.16,4.53,6.31,6.56,9.41l0,0v0a56.61,56.61,0,0,1,.83,6,20.11,20.11,0,0,1-.21,5.86c-.39,1.87-1.06,3.62-1.28,5.38a10.05,10.05,0,0,0,.62,5.09v0c1.91,12,3.45,21.74,4.52,28.48.52,3.35.93,6,1.21,7.75l.3,2c.06.46.08.69.08.69s-.05-.23-.14-.68-.2-1.14-.35-2c-.3-1.78-.74-4.38-1.3-7.73-1.11-6.73-2.71-16.45-4.69-28.45v0a12.85,12.85,0,0,1-.67-2.56,10.32,10.32,0,0,1,0-2.72c.23-1.83.89-3.58,1.27-5.42a19.88,19.88,0,0,0,.19-5.73,58,58,0,0,0-.84-6l0,.08c-2-3.08-4.2-6.23-6.57-9.37-1.17-1.58-2.46-3.09-3.7-4.72-.6-.82-1.19-1.66-1.73-2.55a10.17,10.17,0,0,1-1.31-2.91l0,.13a9.1,9.1,0,0,1-2-3.73,2.94,2.94,0,0,1,.35-2.21,3.43,3.43,0,0,1,1.8-1.37l-.15.36a2.81,2.81,0,0,1-.35-1.53,2.26,2.26,0,0,1,.78-1.38,6.1,6.1,0,0,1,2.76-1.23l.1,0,.09.07,24.1,17.64-.4.12c.23-.68.46-1.37.7-2.06.79-2.35,1.58-4.68,2.31-6.86v.09c0-3.67.25-7.29.53-10.84a11.79,11.79,0,0,1,1.3-5.19,5.06,5.06,0,0,1,4.47-2.66h.23v.24c.14,5.67.27,11.21.39,16.43h-.23l.2.13h0v0l0,.14,0,.28,0,.57-.08,1.13-.15,2.22c-.1,1.47-.19,2.89-.28,4.26l-.47-.08a3.07,3.07,0,0,1,1.06-1.64,1.86,1.86,0,0,1,1.89-.08l.1,0,0,.12c.42,3,.82,6,1.2,8.72V149c-3.59,10.12-7,19.25-9.88,27.15v-.12c3.49,11,6.3,19.79,8.23,25.87,1,3,1.69,5.37,2.2,7,.24.79.43,1.39.56,1.82S295.64,211.34,295.64,211.34Z" style="fill:#e4977c"></path><path d="M281.34,151.4a8,8,0,0,1-1.11-.78l-2.93-2.25c-2.46-1.9-5.87-4.53-9.67-7.39s-7.28-5.39-9.8-7.23l-3-2.19a7,7,0,0,1-1.06-.85,6,6,0,0,1,1.17.69c.74.47,1.79,1.17,3.08,2,2.57,1.76,6.08,4.26,9.89,7.12s7.18,5.53,9.59,7.52c1.2,1,2.17,1.8,2.83,2.37A6.42,6.42,0,0,1,281.34,151.4Z" style="fill:#e4977c"></path><path d="M274.21,152.23a4.46,4.46,0,0,1-.9-.64c-.56-.43-1.36-1.08-2.32-1.89a72.25,72.25,0,0,1-7.17-6.84,45.75,45.75,0,0,1-3.38-4.3,9.35,9.35,0,0,0-1.52-1.74,4,4,0,0,0-1.75-.85,2.28,2.28,0,0,0-2.43,1,2.68,2.68,0,0,0-.3,1,1.27,1.27,0,0,1,.12-1.11,2.41,2.41,0,0,1,.92-1,2.63,2.63,0,0,1,1.75-.3,4.11,4.11,0,0,1,2,.88,9.12,9.12,0,0,1,1.64,1.79,49.21,49.21,0,0,0,3.38,4.23,93.52,93.52,0,0,0,7,6.91l2.21,2A4.35,4.35,0,0,1,274.21,152.23Z" style="fill:#e4977c"></path><path d="M287.08,149.43a18.27,18.27,0,0,1-3.35-2.85,18.06,18.06,0,0,1-3-3.24,19.28,19.28,0,0,1,3.34,2.86A18.94,18.94,0,0,1,287.08,149.43Z" style="fill:#e4977c"></path><path d="M288.78,157.32a34.15,34.15,0,0,0,2-7.66,33.68,33.68,0,0,0-.38-7.91,7.3,7.3,0,0,1,.67,2.26,19.86,19.86,0,0,1-1.17,11.23A7.49,7.49,0,0,1,288.78,157.32Z" style="fill:#e4977c"></path><path d="M226.85,166.69l-3.87-23,.79-15.48,11.88-17.6s2.37-.73,1.83,4.4l2.2-.92s2,2.38,0,6.77l-6.4,7.7-1.56,10.25s2.3,1.1,3.59,7.69c.78,4,3.37,8.92,5.32,12.25a8.17,8.17,0,0,1,.24,7.82l-1.13,2.26" style="fill:#ffbea9"></path><path d="M239.75,168.83a3.26,3.26,0,0,1,.23-.55l.76-1.59a8.25,8.25,0,0,0,.47-6.39,10.6,10.6,0,0,0-1-2c-.4-.68-.81-1.41-1.22-2.17a50.75,50.75,0,0,1-2.43-5,29.62,29.62,0,0,1-1-2.93c-.32-1-.49-2.12-.77-3.18a18.17,18.17,0,0,0-1.1-3.21,6.68,6.68,0,0,0-2-2.74l-.15-.1,0-.14c.48-3.21,1-6.66,1.53-10.26v-.06l0-.06,6.39-7.7,0,.06a9,9,0,0,0,.85-3.26,5.08,5.08,0,0,0-.82-3.24l.3.07-2.2.92-.39.16,0-.43c0-.46.08-1,.08-1.44a5,5,0,0,0-.32-1.88,1.11,1.11,0,0,0-1.26-.8l.14-.1L224,128.34l0-.12c-.31,5.67-.59,10.87-.83,15.48v0c1.15,7,2.09,12.79,2.74,16.81.31,2,.55,3.51.72,4.6.08.51.13.91.18,1.21a3.14,3.14,0,0,1,0,.41,1.81,1.81,0,0,1-.1-.4c-.06-.3-.13-.7-.23-1.2-.2-1.08-.47-2.62-.83-4.58-.69-4-1.69-9.75-2.91-16.79v0c.22-4.61.47-9.81.75-15.49v-.06l0-.06,11.86-17.6.06-.08.08,0a1.47,1.47,0,0,1,1.18.18,2,2,0,0,1,.71.89,5.68,5.68,0,0,1,.36,2.09,14.3,14.3,0,0,1-.08,1.5l-.36-.26,2.2-.92.19-.08.11.15a5.58,5.58,0,0,1,.94,3.61,9.61,9.61,0,0,1-.9,3.44l0,0,0,0-6.4,7.69.05-.12c-.55,3.59-1.08,7-1.57,10.25l-.13-.24a6.83,6.83,0,0,1,2.22,3,19.37,19.37,0,0,1,1.12,3.29c.28,1.1.44,2.18.74,3.18a28.23,28.23,0,0,0,1,2.9,55.49,55.49,0,0,0,2.37,5c.4.76.8,1.49,1.19,2.17a10.29,10.29,0,0,1,1,2.07,8.36,8.36,0,0,1,.32,3.83,8.68,8.68,0,0,1-.91,2.7l-.82,1.56A3.75,3.75,0,0,1,239.75,168.83Z" style="fill:#e4977c"></path><path d="M236.77,114.8a4.66,4.66,0,0,1-.59.88c-.41.55-1,1.33-1.76,2.3-1.51,1.92-3.61,4.55-6,7.43a24.43,24.43,0,0,0-1.61,2.14,7.53,7.53,0,0,0-.9,2.27,37.09,37.09,0,0,0-.49,4.22,10.86,10.86,0,0,1-.6,2.85,3.51,3.51,0,0,1-.34.72.8.8,0,0,1-.16.23,14.24,14.24,0,0,0,.73-3.83,32.36,32.36,0,0,1,.39-4.3,7.55,7.55,0,0,1,.94-2.42,19.13,19.13,0,0,1,1.64-2.21c2.35-2.88,4.5-5.48,6.08-7.34.79-.93,1.43-1.68,1.89-2.19S236.74,114.77,236.77,114.8Z" style="fill:#e4977c"></path><path d="M225.78,143.92A103.54,103.54,0,0,1,230,119.85a2.1,2.1,0,0,1,.6-1.09,1.4,1.4,0,0,1,1.83.37,3.79,3.79,0,0,1,.67,1.92,37.72,37.72,0,0,1,.18,9.67" style="fill:#ffbea9"></path><path d="M233.25,130.72a11.35,11.35,0,0,1,0-1.55c0-1,.07-2.45,0-4.22,0-.89-.14-1.87-.27-2.9s-.18-2.27-1-3a1.07,1.07,0,0,0-1.35-.1,3.91,3.91,0,0,0-.65,1.61c-.37,1.24-.71,2.52-1,3.84a113.16,113.16,0,0,0-2.54,13.72c-.23,1.77-.36,3.21-.46,4.2a9.18,9.18,0,0,1-.2,1.55,8.19,8.19,0,0,1,0-1.56c0-1,.12-2.45.3-4.23a95.72,95.72,0,0,1,2.4-13.8c.34-1.33.69-2.62,1.06-3.86l.27-.92a2.18,2.18,0,0,1,.53-.91,1.3,1.3,0,0,1,1-.32,1.81,1.81,0,0,1,.94.4,2.78,2.78,0,0,1,.86,1.64c.12.57.17,1.11.24,1.63.12,1.06.18,2,.21,2.94a33.56,33.56,0,0,1-.14,4.25A6.47,6.47,0,0,1,233.25,130.72Z" style="fill:#e4977c"></path><polygon points="245.25 299.9 221.43 359.41 238.91 373.57 277.27 320.31 245.25 299.9" style="fill:#ffbea9"></polygon><path d="M315.72,241s-6.56-34.39-30.42-31.51S258,228.15,255.38,238.63s-9.91,47.08-9.91,47.08-5.66,7.07-4.24,12.94l36.79,26s9.71-11.23,10.11-14.67c0,0,10.92-15.17,13.95-27.09" style="fill:#263238"></path><path d="M302.08,282.88s0,.17-.12.51-.23.86-.41,1.51-.49,1.45-.81,2.41-.77,2-1.3,3.24a116.71,116.71,0,0,1-11.17,19.52l0-.08a12.3,12.3,0,0,1-1.75,3.79c-.76,1.2-1.6,2.4-2.48,3.61q-2.69,3.63-5.89,7.39l-.12.14-.16-.11-36.82-26-.08-.05,0-.09a10.9,10.9,0,0,1-.14-3.47,17.22,17.22,0,0,1,.89-3.42,26.35,26.35,0,0,1,3.54-6.27l-.05.11c1.08-5.36,2.22-11,3.37-16.72,1.73-8.44,3.43-16.67,5.2-24.6.89-4,1.81-7.84,2.9-11.61a38.31,38.31,0,0,1,4.68-10.48,26.6,26.6,0,0,1,7.77-7.66l1.13-.7.56-.35.59-.29,2.35-1.13,2.42-.87c.4-.14.79-.3,1.19-.41l1.22-.31,2.4-.61,2.4-.39a25.29,25.29,0,0,1,4.72-.44,20.53,20.53,0,0,1,8.65,1.9,23.57,23.57,0,0,1,6.58,4.67,34.94,34.94,0,0,1,4.53,5.59A53.6,53.6,0,0,1,313,231.54a64.22,64.22,0,0,1,2.17,6.94c.2.8.34,1.42.42,1.84a6.2,6.2,0,0,1,.11.63s-.06-.21-.16-.62-.25-1-.47-1.83a69.18,69.18,0,0,0-2.26-6.89,54.3,54.3,0,0,0-5.19-10.2,35.06,35.06,0,0,0-4.52-5.51,22.92,22.92,0,0,0-6.5-4.57,20.22,20.22,0,0,0-8.5-1.84,24.76,24.76,0,0,0-4.65.46l-2.38.39-2.38.61a28.11,28.11,0,0,0-16.94,11.57,37.63,37.63,0,0,0-4.61,10.36c-1.08,3.74-2,7.62-2.87,11.57-1.76,7.93-3.46,16.16-5.19,24.59-1.15,5.73-2.29,11.36-3.37,16.72l0,.06,0,.05a25.73,25.73,0,0,0-3.46,6.14,16.21,16.21,0,0,0-.86,3.3,10.28,10.28,0,0,0,.12,3.28l-.1-.15,36.77,26-.27,0c2.13-2.49,4.11-4.95,5.89-7.34.89-1.2,1.73-2.4,2.49-3.58A12.26,12.26,0,0,0,288,310v-.05l0,0a118.18,118.18,0,0,0,11.28-19.4c.55-1.19,1-2.28,1.34-3.21s.64-1.74.85-2.39.34-1.14.45-1.49S302.08,282.88,302.08,282.88Z" style="fill:#455a64"></path><path d="M308.62,229.36a5.38,5.38,0,0,0-2.84,1.37,11.52,11.52,0,0,0-2.28,3c-.71,1.29-1.45,2.81-2.21,4.51a95.5,95.5,0,0,0-4.35,12.32c-1.38,4.73-2.61,10-4,15.54a108.7,108.7,0,0,1-4.93,15.3c-1.83,4.6-3.62,8.67-5.18,12.06s-2.91,6.1-3.89,7.95c-.48.92-.88,1.63-1.17,2.1a2.74,2.74,0,0,1-.5.68s.17-.24.41-.73.62-1.21,1.08-2.14c.92-1.88,2.21-4.61,3.73-8s3.28-7.49,5.07-12.08a110,110,0,0,0,4.87-15.26c1.4-5.51,2.64-10.8,4.05-15.54A90.39,90.39,0,0,1,301,238.06c.78-1.7,1.54-3.21,2.29-4.51a11.33,11.33,0,0,1,2.4-3,5.19,5.19,0,0,1,2.14-1.12A2.49,2.49,0,0,1,308.62,229.36Z" style="fill:#455a64"></path><path d="M314.33,250.36a5,5,0,0,1-.53,1.78,17.7,17.7,0,0,1-5.44,7,5,5,0,0,1-1.58,1,42.62,42.62,0,0,0,4.34-4.44A41.66,41.66,0,0,0,314.33,250.36Z" style="fill:#455a64"></path><path d="M307,250.6a4.81,4.81,0,0,1,.08,1.15c0,.75,0,1.83,0,3.16a98.66,98.66,0,0,1-.89,10.36,100.35,100.35,0,0,1-1.94,10.23c-.32,1.29-.61,2.33-.83,3a4.84,4.84,0,0,1-.38,1.09,4.41,4.41,0,0,1,.19-1.14l.66-3.07c.55-2.6,1.23-6.2,1.79-10.22s.86-7.66,1-10.31c.08-1.24.14-2.29.2-3.14A5.16,5.16,0,0,1,307,250.6Z" style="fill:#455a64"></path><path d="M288.13,310a2,2,0,0,1-.46-.19l-1.28-.62c-1.11-.55-2.7-1.37-4.66-2.39-3.92-2-9.3-4.93-15.2-8.21s-11.18-6.35-14.95-8.66c-1.88-1.16-3.4-2.11-4.43-2.81l-1.18-.8a2.08,2.08,0,0,1-.39-.3s.17.06.45.22l1.23.71,4.51,2.66c3.81,2.23,9.12,5.25,15,8.52l15.12,8.34,4.58,2.54,1.24.71C288,309.86,288.14,310,288.13,310Z" style="fill:#455a64"></path><path d="M222.38,357.83c-.69.69-11.26,15.4-20.22,18.39s-25.26,8.29-25.28,15.86c0,7.23,16.31,9,26.89,7.35s9.42,3.91,18.61-.92S241,372.31,241,372.31Z" style="fill:#FF725E"></path><g style="opacity:0.30000000000000004"><path d="M222.38,357.83c-.69.69-11.26,15.4-20.22,18.39s-25.83,8.59-25.32,16.16c.48,7.14,17.24,8.43,26.93,7.05,10.58-1.5,9.42,3.91,18.61-.92S241,372.31,241,372.31Z"></path></g><path d="M201.41,399.72c-.1,0,.12-1.31,0-3.4a19.29,19.29,0,0,0-.57-3.62,22.76,22.76,0,0,0-1.61-4.18,21.81,21.81,0,0,0-5-6.36c-1.59-1.37-2.73-2-2.68-2.11a3.08,3.08,0,0,1,.83.4,15.86,15.86,0,0,1,2.09,1.42,19.65,19.65,0,0,1,6.88,10.71,17.48,17.48,0,0,1,.48,3.72,12.94,12.94,0,0,1,0,1.44,7.08,7.08,0,0,1-.12,1.08A2.82,2.82,0,0,1,201.41,399.72Z" style="fill:#263238"></path><path d="M250.66,407.31c-1.61-17.93-2.07-24.6-4.14-31.72s-4.26-17.29-4.26-17.29l-6.66-49.48S232.29,296,218,298.93s-17.3,24-17.3,24l21,42.5c-.11,2.34-.65,14.86-.24,17.77.46,3.22-9,13.11-9,16.55s11,18.16,24.59,19.08S252.27,425.23,250.66,407.31Z" style="fill:#ffbea9"></path><path d="M250.66,407.31s.35,2.45.57,7a17.1,17.1,0,0,1-.19,3.83,2.81,2.81,0,0,1-1.13,1.9,4.05,4.05,0,0,1-2.39.32c-1.66-.17-3.39-.57-5.25-.85-.92-.15-1.89-.28-2.88-.39s-2-.14-3.06-.3l-1.6-.21c-.54-.09-1.07-.25-1.61-.38a24.19,24.19,0,0,1-3.25-1.07,33.44,33.44,0,0,1-6.35-3.59,41.55,41.55,0,0,1-5.88-5.25,28.17,28.17,0,0,1-4.87-6.9,4.06,4.06,0,0,1-.41-2.24,7.86,7.86,0,0,1,.83-2.11,43.44,43.44,0,0,1,2.41-3.86,72.86,72.86,0,0,0,5.08-7.89,4.41,4.41,0,0,0,.56-2.19c-.11-.83-.11-1.65-.14-2.48,0-1.65,0-3.32,0-5q.1-5.06.35-10.29l0,.11-21-42.48,0-.08v-.07a43.55,43.55,0,0,1,1.2-5.2A37.4,37.4,0,0,1,207,306.23a18.44,18.44,0,0,1,9.85-7.28,22.91,22.91,0,0,1,6-.68,15.26,15.26,0,0,1,5.8,1.53,15.05,15.05,0,0,1,7.15,9h0v0c2.48,18.57,4.72,35.35,6.61,49.48h0q1.23,5.63,2.49,10.67.62,2.52,1.27,4.88c.43,1.57.88,3.1,1.22,4.59a80.78,80.78,0,0,1,1.41,8.42c.31,2.6.53,5,.73,7.13.37,4.29.65,7.62.85,9.9.09,1.12.15,2,.2,2.58s0,.88,0,.88,0-.3-.11-.88-.14-1.45-.25-2.57c-.22-2.28-.54-5.61-1-9.89-.22-2.14-.46-4.52-.79-7.12a79.74,79.74,0,0,0-1.44-8.38c-.35-1.48-.8-3-1.24-4.57s-.87-3.2-1.29-4.88c-.85-3.36-1.69-6.93-2.52-10.68h0c-1.91-14.13-4.19-30.9-6.7-49.47v0a13.48,13.48,0,0,0-12.49-10.1,22.08,22.08,0,0,0-5.88.67,17.88,17.88,0,0,0-9.57,7.08,37.17,37.17,0,0,0-5.29,11.28,44.16,44.16,0,0,0-1.18,5.13l0-.15,21,42.5,0,.06v.06c-.15,3.49-.28,6.92-.36,10.28,0,1.68-.05,3.34,0,5,0,.82,0,1.64.13,2.43a4.69,4.69,0,0,1-.6,2.45,73.48,73.48,0,0,1-5.13,7.93,44.67,44.67,0,0,0-2.4,3.81,7.86,7.86,0,0,0-.79,2,3.61,3.61,0,0,0,.38,2,27.73,27.73,0,0,0,4.77,6.81,41.45,41.45,0,0,0,5.81,5.22,33.92,33.92,0,0,0,6.26,3.58A25.7,25.7,0,0,0,233.2,418c.53.13,1.06.29,1.58.38l1.58.21c1,.16,2.08.19,3.07.32s2,.25,2.89.41c1.86.29,3.59.7,5.22.87a3.87,3.87,0,0,0,2.26-.26,2.59,2.59,0,0,0,1-1.76,17.37,17.37,0,0,0,.22-3.79c-.06-2.29-.21-4-.29-5.23,0-.58-.08-1-.1-1.35S250.66,407.31,250.66,407.31Z" style="fill:#e4977c"></path><path d="M242.27,358.13s2.25,10.27,4.36,17.47,2.58,13.93,4.22,32,0,12.54-13.84,11.61-25.1-15.79-25.1-19.27,9.61-13.47,9.15-16.72c-.43-2.94.13-15.59.24-18a4.23,4.23,0,0,1-3.64-2.94c-.84-2.76.05-4.23.05-4.23l23.28-10s2.49-1.39,4,6.33A2.9,2.9,0,0,1,242.27,358.13Z" style="fill:#FF725E"></path><path d="M242.26,358.3a19.67,19.67,0,0,1-3,1.23c-1.87.68-4.47,1.56-7.36,2.48l-7.4,2.34a22.12,22.12,0,0,1-3.09.88,17.41,17.41,0,0,1,3-1.23c1.86-.69,4.47-1.56,7.35-2.48l7.4-2.34A21.57,21.57,0,0,1,242.26,358.3Z" style="fill:#263238"></path><path d="M225.39,364c0,.05-.48-.13-1.08-.63a6.74,6.74,0,0,1-1.8-2.43,7,7,0,0,1-.56-3,2.3,2.3,0,0,1,.28-1.22,9.2,9.2,0,0,0,3.16,7.26Z" style="fill:#263238"></path><path d="M231.3,361.8a42,42,0,0,1-1.9-3.91,36.73,36.73,0,0,1-2-3.88,17.64,17.64,0,0,1,3.85,7.79Z" style="fill:#263238"></path><path d="M238.39,359.21c-.16,0-.52-1.92-1.39-4.18s-1.89-3.94-1.76-4a10.19,10.19,0,0,1,2.25,3.84A10.41,10.41,0,0,1,238.39,359.21Z" style="fill:#263238"></path><path d="M250.24,404.12c0,.1-1.89-.74-5-1.59a41,41,0,0,0-5.6-1.09,44.94,44.94,0,0,0-7-.25,44.12,44.12,0,0,0-6.92.95,39.5,39.5,0,0,0-5.47,1.63c-3,1.16-4.8,2.18-4.85,2.09a6.52,6.52,0,0,1,1.21-.76,15,15,0,0,1,1.48-.77c.59-.27,1.25-.62,2-.9a36.5,36.5,0,0,1,5.5-1.76,41.52,41.52,0,0,1,7-1,42.33,42.33,0,0,1,7.07.3,37.23,37.23,0,0,1,5.64,1.2c.8.21,1.49.49,2.11.7s1.13.43,1.55.62A8.51,8.51,0,0,1,250.24,404.12Z" style="fill:#263238"></path><g style="opacity:0.30000000000000004"><path d="M222,365.09a12.67,12.67,0,0,0,7.89,1,24.16,24.16,0,0,0,7.54-2.83,13,13,0,0,0,2.75-1.87,5.32,5.32,0,0,0,1.63-2.84Z"></path></g><path d="M244.61,368.06a2.84,2.84,0,0,1-.84.43,13.68,13.68,0,0,1-2.46.75,17.33,17.33,0,0,1-3.79.29c-1.42,0-3,0-4.61,0-3.27.07-6.22.31-8.35.52s-3.45.38-3.47.31a3.34,3.34,0,0,1,.91-.25c.59-.12,1.45-.27,2.51-.42a68.24,68.24,0,0,1,8.39-.68c3.29-.12,6.26.28,8.35-.13S244.57,368,244.61,368.06Z" style="fill:#fff"></path><path d="M247.07,376.32a35.14,35.14,0,0,0-3.92.4c-1.2.22-2.6.58-4.15,1s-3.27.95-5.12,1.31a17.63,17.63,0,0,1-5.31.3,25.93,25.93,0,0,1-4.23-.89,11.93,11.93,0,0,1-2.75-1c-.61-.35-.84-.68-.82-.7s.31.24.92.53a14.32,14.32,0,0,0,2.74.81,28.64,28.64,0,0,0,4.19.78,18.1,18.1,0,0,0,5.16-.34c1.82-.35,3.52-.86,5.09-1.26a36.5,36.5,0,0,1,4.22-.92,15.79,15.79,0,0,1,2.91-.18A3.79,3.79,0,0,1,247.07,376.32Z" style="fill:#fff"></path><path d="M248.43,388.2c0-.33-6.39.77-14.41,1.09a20.59,20.59,0,0,1-9.92-2.51,23.84,23.84,0,0,1-2.66-1.61,4.66,4.66,0,0,1-.9-.7c.05-.08,1.39.85,3.73,2a21.53,21.53,0,0,0,9.75,2.31c2,0,3.87-.19,5.6-.31l4.58-.32c1.3-.07,2.36-.18,3.1-.16A2.37,2.37,0,0,1,248.43,388.2Z" style="fill:#fff"></path><path d="M250.07,397.32a6.56,6.56,0,0,1-1.53.13c-1,0-2.42.05-4.18,0-3.53-.09-8.38-.62-13.73-.55a40,40,0,0,0-7.48.8,25.86,25.86,0,0,0-5.8,1.95,27.83,27.83,0,0,0-4.77,3,1.56,1.56,0,0,1,.26-.3c.18-.19.47-.45.84-.77a18.8,18.8,0,0,1,3.51-2.3,25.19,25.19,0,0,1,5.86-2.09,37.05,37.05,0,0,1,7.57-.85c5.4-.07,10.25.52,13.76.7,1.75.11,3.17.16,4.16.18A11,11,0,0,1,250.07,397.32Z" style="fill:#fff"></path><path d="M237.43,291.84H235.3s.91-42.06.3-47.23-8.89-40.52-23.13-40.17c0,0-18.26-2.17-23.74,5s-15.52,30-14.3,36.08,4.26,18.26,4.26,18.26l14.71,40.47s-2.33,4.27,0,8.22,7.29,12.17,7.29,12.17l34.93-14.1a5,5,0,0,0,3.12-5.15Z" style="fill:#263238"></path><path d="M237.43,291.84l.12,1c.07.69.18,1.69.32,3l.51,4.88c.09,1,.2,2,.32,3.12a8.79,8.79,0,0,1,0,3.57,5.19,5.19,0,0,1-2.53,3c-1.29.58-2.63,1.09-4,1.67l-9.14,3.72-22.17,9-.16.07-.09-.15-5.64-9.38-1.48-2.47a8.31,8.31,0,0,1-1.11-2.77,9.7,9.7,0,0,1,.91-6l0,.19-14.73-40.46v0h0c-1.06-4.55-2.14-9.19-3.24-13.89-.28-1.18-.55-2.36-.83-3.55-.07-.29-.15-.59-.2-.89l-.07-.95a11.66,11.66,0,0,1,.1-1.87,44.22,44.22,0,0,1,1.77-7.22,126.61,126.61,0,0,1,5.26-13.16,87.78,87.78,0,0,1,6.65-12.1,10,10,0,0,1,2.3-2.56,13.81,13.81,0,0,1,3-1.69,25.79,25.79,0,0,1,6.46-1.65,56.3,56.3,0,0,1,12.9-.12h0a9.58,9.58,0,0,1,4.68,1.19,15.51,15.51,0,0,1,3.74,2.87,34.56,34.56,0,0,1,5.29,7.43,87.61,87.61,0,0,1,6.45,15.82c.8,2.59,1.5,5.15,2.09,7.65a34.12,34.12,0,0,1,1.19,7.42c.13,4.85.07,9.38,0,13.57-.19,16.76-.5,28-.62,31.7l0,0c1.64,0,2.13,0,2.13,0s-.53,0-2.13,0h0v0c0-3.66.25-14.95.36-31.7,0-4.19,0-8.73-.09-13.56a34.29,34.29,0,0,0-1.21-7.33q-.9-3.75-2.11-7.63a87.26,87.26,0,0,0-6.44-15.72,33.87,33.87,0,0,0-5.23-7.31,14.76,14.76,0,0,0-3.63-2.79,9.11,9.11,0,0,0-4.43-1.12h0a55.73,55.73,0,0,0-12.77.12,25.75,25.75,0,0,0-6.33,1.63,10.41,10.41,0,0,0-5.05,4.07,89.18,89.18,0,0,0-6.59,12,126.31,126.31,0,0,0-5.23,13.1,43.29,43.29,0,0,0-1.76,7.12,8.85,8.85,0,0,0,.17,3.55c.27,1.18.55,2.36.82,3.54q1.65,7,3.24,13.88v0c5.24,14.45,10.2,28.13,14.69,40.49l0,.09-.05.09a9.32,9.32,0,0,0-.87,5.69,7.8,7.8,0,0,0,1.05,2.63l1.48,2.47c2,3.27,3.82,6.41,5.61,9.39l-.25-.08,22.2-8.92,9.16-3.68c1.4-.57,2.78-1.08,4-1.64a4.93,4.93,0,0,0,2.43-2.88,8.48,8.48,0,0,0,.07-3.47c-.11-1.1-.2-2.13-.29-3.09-.17-1.92-.32-3.55-.44-4.87s-.21-2.33-.27-3S237.43,291.84,237.43,291.84Z" style="fill:#455a64"></path><path d="M237.43,291.84a1.75,1.75,0,0,1-.48,0h-1.36c-.59,0-1.31,0-2.15,0s-1.79,0-2.84.11c-2.11.1-4.6.37-7.36.73s-5.77,1-8.88,1.77a76.46,76.46,0,0,0-8.61,2.79c-1.27.56-2.51,1-3.61,1.6l-1.6.79-1.44.81c-.93.49-1.72,1-2.43,1.47-.34.23-.67.44-1,.63l-.78.59-1.1.79c-.26.18-.4.27-.41.25a2.4,2.4,0,0,1,.34-.33l1-.87.77-.63,1-.67c.69-.48,1.48-1,2.4-1.55l1.44-.85,1.6-.82c1.1-.59,2.34-1.08,3.62-1.66a72.7,72.7,0,0,1,8.66-2.85,85.67,85.67,0,0,1,8.94-1.73c2.78-.34,5.29-.57,7.41-.62,1.06-.05,2-.06,2.86-.05s1.56,0,2.15.06l1.36.09A1.75,1.75,0,0,1,237.43,291.84Z" style="fill:#455a64"></path><path d="M201.68,298.89a4.13,4.13,0,0,1-.35-.73c-.21-.49-.55-1.2-.91-2.14-.75-1.87-1.72-4.63-2.74-8.09s-2.09-7.61-3.15-12.26-2.14-9.77-3.4-15.11l-6.75-27.32c-.83-3.46-1.51-6.28-2-8.29-.21-.95-.39-1.7-.51-2.26a3.88,3.88,0,0,1-.15-.8,4.94,4.94,0,0,1,.25.77c.15.56.35,1.31.61,2.24.52,2,1.26,4.81,2.16,8.25,1.79,7,4.28,16.61,6.9,27.29,1.26,5.36,2.31,10.48,3.36,15.13s2.05,8.8,3,12.26,1.89,6.23,2.58,8.12c.33.95.64,1.67.81,2.17A4,4,0,0,1,201.68,298.89Z" style="fill:#455a64"></path><path d="M215.47,177.52s-.38,0-1,0a6.93,6.93,0,0,0-5.67,3.36,7.44,7.44,0,0,0-.49,1.07,7.43,7.43,0,0,1-.47,1.22,2.63,2.63,0,0,1-1,1,4.26,4.26,0,0,1-1.37.46,22.73,22.73,0,0,0-2.61.41,5,5,0,0,0-2,1.23,7.38,7.38,0,0,0-1.92,3.56,15.94,15.94,0,0,0-.38,2.79,5,5,0,0,1-.09,1,3.18,3.18,0,0,1-.11-1.05,12.45,12.45,0,0,1,.23-2.86,7.44,7.44,0,0,1,1.93-3.82,5.54,5.54,0,0,1,2.2-1.38,22.85,22.85,0,0,1,2.67-.44,2.5,2.5,0,0,0,2-1.23,8.19,8.19,0,0,0,.45-1.14,6.75,6.75,0,0,1,.54-1.15,7.09,7.09,0,0,1,3.25-2.8,6.47,6.47,0,0,1,2.84-.53,3.9,3.9,0,0,1,.78.11C215.38,177.47,215.47,177.5,215.47,177.52Z" style="fill:#263238"></path><path d="M213.27,174.26a5.08,5.08,0,0,1-1.05.26,15,15,0,0,0-2.78.8,5.6,5.6,0,0,0-3,2.73c-.33.69-.34,1.58-.77,2.46a2.53,2.53,0,0,1-1,1.06,4.21,4.21,0,0,1-1.41.44c-1,.15-1.88.13-2.74.3a6.78,6.78,0,0,0-2.32.8,3.73,3.73,0,0,0-1.48,1.58,6.5,6.5,0,0,0-.55,1.87c-.17,1.21-.23,2.22-.37,2.91a3,3,0,0,1-.32,1,8.65,8.65,0,0,1,.12-1.06c.08-.69.08-1.68.21-2.93a6.43,6.43,0,0,1,.52-2,4.2,4.2,0,0,1,1.61-1.8,7.06,7.06,0,0,1,2.49-.89c.9-.18,1.85-.18,2.75-.31a2.58,2.58,0,0,0,2.08-1.23c.37-.72.41-1.62.78-2.42a5.89,5.89,0,0,1,3.34-2.87,12.35,12.35,0,0,1,2.88-.66A3.69,3.69,0,0,1,213.27,174.26Z" style="fill:#263238"></path><path d="M268.8,78.93a7.22,7.22,0,0,0-3-1,5.66,5.66,0,0,0-3.26.76A19,19,0,0,0,260.9,80a2.21,2.21,0,0,1-1.18.36,3.45,3.45,0,0,1-1.2-.22,17.26,17.26,0,0,0-2.08-.76,4.14,4.14,0,0,0-1.95.07,6.19,6.19,0,0,0-2.84,1.8c-1.32,1.48-1.85,2.65-1.94,2.59A2.76,2.76,0,0,1,250,83a10.63,10.63,0,0,1,1.33-2,6.27,6.27,0,0,1,3-2,4.47,4.47,0,0,1,2.19-.11,18.05,18.05,0,0,1,2.14.77,2.1,2.1,0,0,0,1.93-.08,16.85,16.85,0,0,1,1.66-1.27,5.88,5.88,0,0,1,3.54-.72,5.41,5.41,0,0,1,2.3.79A2,2,0,0,1,268.8,78.93Z" style="fill:#263238"></path><path d="M268.52,75.65a4.16,4.16,0,0,1-.88-.22,12.7,12.7,0,0,0-2.36-.54,4.65,4.65,0,0,0-3.31.76c-.51.37-.88,1-1.56,1.49a2.18,2.18,0,0,1-1.22.36,3.91,3.91,0,0,1-1.23-.26c-.78-.29-1.43-.67-2.12-.9a5.66,5.66,0,0,0-2-.37A3.69,3.69,0,0,0,251,77.65c-.63.81-1.09,1.53-1.48,2a2.34,2.34,0,0,1-.67.62,5.88,5.88,0,0,1,.51-.75c.34-.46.74-1.19,1.34-2.06a5.52,5.52,0,0,1,1.21-1.27,3.59,3.59,0,0,1,1.94-.67,6.09,6.09,0,0,1,2.2.37c.73.23,1.42.63,2.13.89a2.14,2.14,0,0,0,2,0c.55-.36.95-1,1.56-1.45a5,5,0,0,1,3.64-.74,10.36,10.36,0,0,1,2.38.72C268.25,75.46,268.53,75.61,268.52,75.65Z" style="fill:#263238"></path><path d="M333.23,179.86a6.92,6.92,0,0,0-2.07-2.4,5.79,5.79,0,0,0-3.2-1c-.64,0-1.26.21-2.06.28a2.25,2.25,0,0,1-1.2-.29,3.49,3.49,0,0,1-.91-.8,20.68,20.68,0,0,0-1.4-1.72,4.17,4.17,0,0,0-1.71-.93,6.22,6.22,0,0,0-3.37.1c-1.89.6-2.94,1.34-3,1.24s.23-.23.71-.53a10.54,10.54,0,0,1,2.16-1.06,6.31,6.31,0,0,1,3.61-.21,4.62,4.62,0,0,1,1.94,1,16.7,16.7,0,0,1,1.44,1.75,2.09,2.09,0,0,0,1.7.92A19.4,19.4,0,0,1,328,176a6,6,0,0,1,3.42,1.19A5.34,5.34,0,0,1,333,179,1.8,1.8,0,0,1,333.23,179.86Z" style="fill:#263238"></path><path d="M334.67,176.89s-.25-.21-.64-.63a13.38,13.38,0,0,0-1.76-1.67,4.67,4.67,0,0,0-3.23-1c-.63.05-1.27.42-2.11.48a2.15,2.15,0,0,1-1.23-.31,3.79,3.79,0,0,1-.93-.85c-.51-.65-.88-1.31-1.36-1.86a5.56,5.56,0,0,0-1.55-1.34,3.66,3.66,0,0,0-3.32,0c-1,.38-1.71.76-2.27.94a2.14,2.14,0,0,1-.89.19,4.63,4.63,0,0,1,.82-.38c.52-.23,1.24-.65,2.2-1.09a5.42,5.42,0,0,1,1.69-.48,3.54,3.54,0,0,1,2,.42,6,6,0,0,1,1.71,1.43c.51.58.91,1.27,1.38,1.86a2.13,2.13,0,0,0,1.73,1c.66,0,1.34-.39,2.08-.45a5,5,0,0,1,3.51,1.22,9.91,9.91,0,0,1,1.68,1.83A2.78,2.78,0,0,1,334.67,176.89Z" style="fill:#263238"></path></g><g id="freepik--Table--inject-5"><path d="M470.52,458.05c0,.14-98.74.26-220.51.26s-220.53-.12-220.53-.26,98.71-.27,220.53-.27S470.52,457.9,470.52,458.05Z" style="fill:#263238"></path></g></svg>