<svg xmlns="http://www.w3.org/2000/svg" viewBox="0 0 500 500"><g id="freepik--background-simple--inject-221"><path d="M370.24,157.66c30.82,36.16,17.39,88.87-8.88,124.08-39.61,53.09-136.81,81.52-199.82,38.95C113.76,288.4,81.1,230.25,97.92,179.05c13.26-40.31,54.13-83.37,104.37-94.59,39.41-8.8,41.33,16,59.59,33.61,7.51,7.24,20.27,7.37,30.81,8.12,16.52,1.18,32.61,2.54,47.41,9.36C352.94,141.45,362.86,149,370.24,157.66Z" style="fill:#FF81AE"></path><path d="M370.24,157.66c30.82,36.16,17.39,88.87-8.88,124.08-39.61,53.09-136.81,81.52-199.82,38.95C113.76,288.4,81.1,230.25,97.92,179.05c13.26-40.31,54.13-83.37,104.37-94.59,39.41-8.8,41.33,16,59.59,33.61,7.51,7.24,20.27,7.37,30.81,8.12,16.52,1.18,32.61,2.54,47.41,9.36C352.94,141.45,362.86,149,370.24,157.66Z" style="fill:#fff;opacity:0.7000000000000001"></path></g><g id="freepik--Trees--inject-221"><path d="M80.07,377.25h29.06c-.55-3.55-2.84-2.93-3.14-8.44-.15-2.77,2.41-6.2,2.19-9.85-.18-3-3.14-6.08-3.37-9.51-.21-3.1,2.32-6.54,2.07-9.88-.23-3.15-3.23-6.18-3.49-9.46s2.21-6.68,1.92-9.91-3.35-6.22-3.67-9.41,2.06-6.81,1.69-10c-.38-3.33-3.53-6.21-4-9.28-.48-3.41,1.75-7.07,1.23-10-.64-3.61-4-6.23-4.71-8.9-1.32-5-1.16-9.76-2.72-10.07s-2,4.37-3.3,9.61c-.63,2.64-3.92,5.31-4.47,8.93C85,284,87.3,287.6,86.92,291c-.34,3-3.4,6-3.7,9.29-.28,3.12,2.21,6.55,2,9.81s-3.21,6.19-3.42,9.41,2.36,6.59,2.19,9.76-3.1,6.33-3.25,9.47c-.16,3.31,2.46,6.65,2.33,9.73-.14,3.4-3,6.52-3.13,9.5-.13,3.61,2.53,6.95,2.45,9.7-.18,6-2.92,4.74-3,9.54Z" style="fill:#FF81AE"></path><path d="M80.07,377.25h29.06c-.55-3.55-2.84-2.93-3.14-8.44-.15-2.77,2.41-6.2,2.19-9.85-.18-3-3.14-6.08-3.37-9.51-.21-3.1,2.32-6.54,2.07-9.88-.23-3.15-3.23-6.18-3.49-9.46s2.21-6.68,1.92-9.91-3.35-6.22-3.67-9.41,2.06-6.81,1.69-10c-.38-3.33-3.53-6.21-4-9.28-.48-3.41,1.75-7.07,1.23-10-.64-3.61-4-6.23-4.71-8.9-1.32-5-1.16-9.76-2.72-10.07s-2,4.37-3.3,9.61c-.63,2.64-3.92,5.31-4.47,8.93C85,284,87.3,287.6,86.92,291c-.34,3-3.4,6-3.7,9.29-.28,3.12,2.21,6.55,2,9.81s-3.21,6.19-3.42,9.41,2.36,6.59,2.19,9.76-3.1,6.33-3.25,9.47c-.16,3.31,2.46,6.65,2.33,9.73-.14,3.4-3,6.52-3.13,9.5-.13,3.61,2.53,6.95,2.45,9.7-.18,6-2.92,4.74-3,9.54Z" style="fill:#fff;opacity:0.2"></path><line x1="92.55" y1="272.12" x2="92.55" y2="375.91" style="fill:none;stroke:#000;stroke-miterlimit:10;stroke-width:0.6066100000000001px"></line><polyline points="97.09 283 92.36 287.09 88.48 281.93" style="fill:none;stroke:#000;stroke-miterlimit:10;stroke-width:0.6066100000000001px"></polyline><polyline points="97.09 301.07 92.36 305.15 88.48 299.99" style="fill:none;stroke:#000;stroke-miterlimit:10;stroke-width:0.6066100000000001px"></polyline><polyline points="97.09 318.06 92.36 322.14 88.48 316.98" style="fill:none;stroke:#000;stroke-miterlimit:10;stroke-width:0.6066100000000001px"></polyline><polyline points="97.09 338.27 92.36 342.36 88.48 337.2" style="fill:none;stroke:#000;stroke-miterlimit:10;stroke-width:0.6066100000000001px"></polyline><polyline points="97.09 358.7 92.36 362.79 88.48 357.63" style="fill:none;stroke:#000;stroke-miterlimit:10;stroke-width:0.6066100000000001px"></polyline><path d="M60.28,377.25H82.71c-.43-2.74-2.19-2.26-2.43-6.51-.11-2.14,1.87-4.79,1.7-7.61-.15-2.31-2.43-4.69-2.61-7.34-.16-2.39,1.79-5,1.6-7.62s-2.49-4.78-2.7-7.31,1.71-5.15,1.49-7.65-2.58-4.8-2.83-7.26,1.59-5.26,1.3-7.68-2.72-4.79-3-7.16c-.37-2.64,1.35-5.46.95-7.74-.49-2.79-3.09-4.81-3.64-6.87-1-3.83-.89-7.53-2.09-7.77s-1.58,3.37-2.55,7.42c-.49,2-3,4.1-3.45,6.89-.34,2.26,1.46,5,1.16,7.64-.26,2.35-2.62,4.61-2.85,7.17-.22,2.41,1.7,5.06,1.51,7.58s-2.48,4.77-2.64,7.26,1.82,5.08,1.69,7.53-2.39,4.89-2.51,7.31,1.9,5.14,1.8,7.51c-.11,2.63-2.33,5-2.41,7.34-.1,2.79,2,5.36,1.88,7.48-.14,4.61-2.25,3.66-2.32,7.37Z" style="fill:#FF81AE"></path><path d="M60.28,377.25H82.71c-.43-2.74-2.19-2.26-2.43-6.51-.11-2.14,1.87-4.79,1.7-7.61-.15-2.31-2.43-4.69-2.61-7.34-.16-2.39,1.79-5,1.6-7.62s-2.49-4.78-2.7-7.31,1.71-5.15,1.49-7.65-2.58-4.8-2.83-7.26,1.59-5.26,1.3-7.68-2.72-4.79-3-7.16c-.37-2.64,1.35-5.46.95-7.74-.49-2.79-3.09-4.81-3.64-6.87-1-3.83-.89-7.53-2.09-7.77s-1.58,3.37-2.55,7.42c-.49,2-3,4.1-3.45,6.89-.34,2.26,1.46,5,1.16,7.64-.26,2.35-2.62,4.61-2.85,7.17-.22,2.41,1.7,5.06,1.51,7.58s-2.48,4.77-2.64,7.26,1.82,5.08,1.69,7.53-2.39,4.89-2.51,7.31,1.9,5.14,1.8,7.51c-.11,2.63-2.33,5-2.41,7.34-.1,2.79,2,5.36,1.88,7.48-.14,4.61-2.25,3.66-2.32,7.37Z" style="fill:#fff;opacity:0.2"></path><line x1="69.91" y1="296.1" x2="69.91" y2="376.22" style="fill:none;stroke:#000;stroke-miterlimit:10;stroke-width:0.6066100000000001px"></line><polyline points="73.41 304.5 69.76 307.65 66.77 303.67" style="fill:none;stroke:#000;stroke-miterlimit:10;stroke-width:0.6066100000000001px"></polyline><polyline points="73.41 318.44 69.76 321.6 66.77 317.62" style="fill:none;stroke:#000;stroke-miterlimit:10;stroke-width:0.6066100000000001px"></polyline><polyline points="73.41 331.56 69.76 334.71 66.77 330.73" style="fill:none;stroke:#000;stroke-miterlimit:10;stroke-width:0.6066100000000001px"></polyline><polyline points="73.41 347.16 69.76 350.32 66.77 346.33" style="fill:none;stroke:#000;stroke-miterlimit:10;stroke-width:0.6066100000000001px"></polyline><polyline points="73.41 362.94 69.76 366.09 66.77 362.11" style="fill:none;stroke:#000;stroke-miterlimit:10;stroke-width:0.6066100000000001px"></polyline><path d="M408.85,377.25H437c-.54-3.44-2.75-2.84-3.05-8.17-.14-2.69,2.34-6,2.13-9.54-.18-2.91-3.05-5.89-3.27-9.22-.2-3,2.25-6.33,2-9.56-.22-3.06-3.13-6-3.39-9.17s2.15-6.47,1.87-9.6-3.24-6-3.56-9.11,2-6.6,1.64-9.64c-.37-3.22-3.42-6-3.83-9-.46-3.31,1.7-6.84,1.19-9.7-.62-3.5-3.88-6-4.56-8.62-1.28-4.81-1.12-9.45-2.63-9.76s-2,4.23-3.2,9.31c-.61,2.56-3.8,5.14-4.32,8.65-.43,2.84,1.83,6.29,1.46,9.58-.33,3-3.3,5.8-3.59,9-.27,3,2.14,6.34,1.9,9.5s-3.11,6-3.31,9.11,2.28,6.38,2.11,9.46-3,6.13-3.14,9.17c-.15,3.2,2.38,6.44,2.25,9.42-.13,3.3-2.92,6.32-3,9.2-.13,3.51,2.44,6.74,2.36,9.4-.17,5.79-2.82,4.59-2.91,9.24Z" style="fill:#FF81AE"></path><path d="M408.85,377.25H437c-.54-3.44-2.75-2.84-3.05-8.17-.14-2.69,2.34-6,2.13-9.54-.18-2.91-3.05-5.89-3.27-9.22-.2-3,2.25-6.33,2-9.56-.22-3.06-3.13-6-3.39-9.17s2.15-6.47,1.87-9.6-3.24-6-3.56-9.11,2-6.6,1.64-9.64c-.37-3.22-3.42-6-3.83-9-.46-3.31,1.7-6.84,1.19-9.7-.62-3.5-3.88-6-4.56-8.62-1.28-4.81-1.12-9.45-2.63-9.76s-2,4.23-3.2,9.31c-.61,2.56-3.8,5.14-4.32,8.65-.43,2.84,1.83,6.29,1.46,9.58-.33,3-3.3,5.8-3.59,9-.27,3,2.14,6.34,1.9,9.5s-3.11,6-3.31,9.11,2.28,6.38,2.11,9.46-3,6.13-3.14,9.17c-.15,3.2,2.38,6.44,2.25,9.42-.13,3.3-2.92,6.32-3,9.2-.13,3.51,2.44,6.74,2.36,9.4-.17,5.79-2.82,4.59-2.91,9.24Z" style="fill:#fff;opacity:0.2"></path><line x1="420.94" y1="275.43" x2="420.94" y2="375.95" style="fill:none;stroke:#000;stroke-miterlimit:10;stroke-width:0.6066100000000001px"></line><polyline points="425.33 285.96 420.75 289.92 417 284.92" style="fill:none;stroke:#000;stroke-miterlimit:10;stroke-width:0.6066100000000001px"></polyline><polyline points="425.33 303.46 420.75 307.42 417 302.42" style="fill:none;stroke:#000;stroke-miterlimit:10;stroke-width:0.6066100000000001px"></polyline><polyline points="425.33 319.92 420.75 323.88 417 318.88" style="fill:none;stroke:#000;stroke-miterlimit:10;stroke-width:0.6066100000000001px"></polyline><polyline points="425.33 339.5 420.75 343.46 417 338.46" style="fill:none;stroke:#000;stroke-miterlimit:10;stroke-width:0.6066100000000001px"></polyline><polyline points="425.33 359.29 420.75 363.25 417 358.25" style="fill:none;stroke:#000;stroke-miterlimit:10;stroke-width:0.6066100000000001px"></polyline><path d="M389.68,377.25h21.73c-.42-2.66-2.13-2.19-2.35-6.31-.12-2.07,1.8-4.64,1.63-7.36-.13-2.25-2.34-4.55-2.52-7.11-.15-2.32,1.74-4.89,1.55-7.39s-2.41-4.62-2.61-7.08,1.65-5,1.44-7.41-2.5-4.64-2.75-7,1.54-5.09,1.27-7.44-2.64-4.64-3-6.93c-.35-2.56,1.31-5.29.92-7.5-.48-2.7-3-4.66-3.52-6.65-1-3.72-.87-7.3-2-7.53S398,294.77,397,298.7c-.47,2-2.93,4-3.34,6.67-.33,2.19,1.41,4.85,1.13,7.4-.26,2.28-2.55,4.47-2.77,7-.21,2.33,1.65,4.9,1.47,7.33s-2.4,4.63-2.56,7,1.77,4.92,1.64,7.3-2.32,4.73-2.43,7.07,1.83,5,1.74,7.28c-.11,2.54-2.26,4.88-2.34,7.1-.1,2.7,1.89,5.2,1.83,7.26-.14,4.46-2.18,3.54-2.25,7.13Z" style="fill:#FF81AE"></path><path d="M389.68,377.25h21.73c-.42-2.66-2.13-2.19-2.35-6.31-.12-2.07,1.8-4.64,1.63-7.36-.13-2.25-2.34-4.55-2.52-7.11-.15-2.32,1.74-4.89,1.55-7.39s-2.41-4.62-2.61-7.08,1.65-5,1.44-7.41-2.5-4.64-2.75-7,1.54-5.09,1.27-7.44-2.64-4.64-3-6.93c-.35-2.56,1.31-5.29.92-7.5-.48-2.7-3-4.66-3.52-6.65-1-3.72-.87-7.3-2-7.53S398,294.77,397,298.7c-.47,2-2.93,4-3.34,6.67-.33,2.19,1.41,4.85,1.13,7.4-.26,2.28-2.55,4.47-2.77,7-.21,2.33,1.65,4.9,1.47,7.33s-2.4,4.63-2.56,7,1.77,4.92,1.64,7.3-2.32,4.73-2.43,7.07,1.83,5,1.74,7.28c-.11,2.54-2.26,4.88-2.34,7.1-.1,2.7,1.89,5.2,1.83,7.26-.14,4.46-2.18,3.54-2.25,7.13Z" style="fill:#fff;opacity:0.2"></path><line x1="399.01" y1="298.65" x2="399.01" y2="376.25" style="fill:none;stroke:#000;stroke-miterlimit:10;stroke-width:0.6066100000000001px"></line><polyline points="402.4 306.79 398.86 309.84 395.97 305.98" style="fill:none;stroke:#000;stroke-miterlimit:10;stroke-width:0.6066100000000001px"></polyline><polyline points="402.4 320.29 398.86 323.35 395.97 319.49" style="fill:none;stroke:#000;stroke-miterlimit:10;stroke-width:0.6066100000000001px"></polyline><polyline points="402.4 333 398.86 336.05 395.97 332.19" style="fill:none;stroke:#000;stroke-miterlimit:10;stroke-width:0.6066100000000001px"></polyline><polyline points="402.4 348.11 398.86 351.16 395.97 347.31" style="fill:none;stroke:#000;stroke-miterlimit:10;stroke-width:0.6066100000000001px"></polyline><polyline points="402.4 363.38 398.86 366.44 395.97 362.58" style="fill:none;stroke:#000;stroke-miterlimit:10;stroke-width:0.6066100000000001px"></polyline></g><g id="freepik--Ground--inject-221"><ellipse cx="246.16" cy="399.27" rx="209.31" ry="22.65" style="fill:#FF81AE"></ellipse><ellipse cx="246.16" cy="399.27" rx="209.31" ry="22.65" style="fill:#fff;opacity:0.5"></ellipse></g><g id="freepik--Characters--inject-221"><polygon points="126.94 268.03 135.47 327.24 109.38 386.11 116.74 387.95 154.04 326.07 157.38 290.27 192.84 316.53 207.06 378.75 215.59 377.92 207.39 303.82 169.26 262.84 166.58 256.65 126.94 268.03" style="fill:#263238;stroke:#263238;stroke-linecap:round;stroke-linejoin:round"></polygon><polygon points="202.66 163.27 199.76 156.19 207.51 148.15 209.09 148.72 212.64 150.22 214.97 152.66 207.8 164.79 202.66 163.27" style="fill:#fff;stroke:#263238;stroke-linecap:round;stroke-linejoin:round"></polygon><path d="M199.61,155.76s.15-1.43.29-3.73-1-4.31.29-4.45a2.52,2.52,0,0,1,2.58,2.44c.15,1.43.29,4,.29,4a7.3,7.3,0,0,1,2.16,3.44c.57,2.16-2.59,4.89-2.59,4.89Z" style="fill:#fff;stroke:#263238;stroke-linecap:round;stroke-linejoin:round"></path><polygon points="178.88 197.89 183.24 198.27 202.81 163.41 207.94 164.93 189.13 211.05 179.88 208.89 178.88 197.89" style="fill:#fff;stroke:#263238;stroke-linecap:round;stroke-linejoin:round"></polygon><path d="M122.32,192.7s-15.78,16.16-15.78,18.63,19.41,56,20.29,57.43,40-10.62,40-11.06a7.62,7.62,0,0,0-.72-4.5c-1.17-2.77-11.2-43.48-11.2-43.48l26.53,3.76-1.29-15.84s-31.49-6.1-38.18-7S126.24,189.36,122.32,192.7Z" style="fill:#fff;stroke:#263238;stroke-linecap:round;stroke-linejoin:round"></path><polyline points="151.64 199.72 154.89 209.72 155.48 200.88" style="fill:none;stroke:#263238;stroke-linecap:round;stroke-linejoin:round"></polyline><path d="M123.48,188.2s-4.65,1.74-4.8,5.52,6.69,18.76,6.69,18.76,7.56-8.58,8.87-9.45,13.23,1.16,13.23,1.16-6-10.9-12.65-14.54S123.48,188.2,123.48,188.2Z" style="fill:#FF81AE;stroke:#263238;stroke-linecap:round;stroke-linejoin:round"></path><path d="M120.28,184.13A58.26,58.26,0,0,0,126,195.32c3.93,6.11,12.8,17,12.94,13.67s-5.23-15.27-6-19.63-1-5.53-1-5.53S122.61,186,120.28,184.13Z" style="fill:#fff;stroke:#263238;stroke-linecap:round;stroke-linejoin:round"></path><path d="M110.89,205.47s5.18-5.18,11.54,6.36S148,267.19,148,267.19l-4.69.17s-21.07-47-23.24-51.52-5.52-11-11.38-7.69Z" style="fill:#fff;stroke:#263238;stroke-linecap:round;stroke-linejoin:round"></path><polygon points="105.03 216.18 98.01 266.36 102.19 266.52 108.04 216.18 105.03 216.18" style="fill:#fff;stroke:#263238;stroke-linecap:round;stroke-linejoin:round"></polygon><path d="M107.78,168.57s-.44,2.9.29,4.07,6.1,6.54,6.83,5.23,1.6-8.58.15-10.61S109.81,165.37,107.78,168.57Z" style="fill:#263238;stroke:#263238;stroke-linecap:round;stroke-linejoin:round"></path><path d="M136.28,162.6s3.34,11.49,3.34,14-2.62,8.87-5.09,10.18-3.49,1-5.38.88-8.43-.88-10.9-2.91a12.56,12.56,0,0,1-3.2-3.49,9.38,9.38,0,0,1-6.26-2.48c-2.76-2.61-3.2-6.1-1.45-7s5.67,2.33,5.67,2.33l-.58-3.92,20.94-9.46A3.6,3.6,0,0,1,136.28,162.6Z" style="fill:#fff;stroke:#263238;stroke-linecap:round;stroke-linejoin:round"></path><path d="M131.19,169s.87,2.33,1.74,2.76,2.77.88,1.75,2a8.23,8.23,0,0,1-2.18,1.75" style="fill:none;stroke:#263238;stroke-linecap:round;stroke-linejoin:round"></path><path d="M131.77,180.05s-3.78,2.18-6.11-1.16" style="fill:none;stroke:#263238;stroke-linecap:round;stroke-linejoin:round"></path><path d="M375.43,163.61s-7.69.9-9.27-9.27,23-12.65,31.87-12.2,15.36,7.68,15.82,17.85-5.2,19.44-5.88,24.86,5.65,2,5.65,2,.23,6.55-8.59,9.94-17.4,1.58-19.21-3.39,2-12.43,3.39-14.92-3.16-6.32-3.84-10.84a14.1,14.1,0,0,1,.68-7.46S378.14,163.83,375.43,163.61Z" style="fill:#263238;stroke:#263238;stroke-linecap:round;stroke-linejoin:round"></path><path d="M391.26,156.81s-3,3.72,4.78,8.49,12.21,4.78,13.8,7.79" style="fill:none;stroke:#fff;stroke-linecap:round;stroke-linejoin:round;stroke-width:0.75px"></path><path d="M412.06,168a10.19,10.19,0,0,1,.08,3.15" style="fill:none;stroke:#fff;stroke-linecap:round;stroke-linejoin:round;stroke-width:0.75px"></path><path d="M396.57,153.27s.18,2.48,7.26,5.49c4.46,1.89,6.81,4.78,7.81,7.63" style="fill:none;stroke:#fff;stroke-linecap:round;stroke-linejoin:round;stroke-width:0.75px"></path><path d="M402.14,194.74a4.35,4.35,0,0,0,2.75,1.17" style="fill:none;stroke:#fff;stroke-linecap:round;stroke-linejoin:round;stroke-width:0.75px"></path><path d="M399.58,172.56a8.85,8.85,0,0,1,1.59,10.61,11.05,11.05,0,0,0-.6,9.34" style="fill:none;stroke:#fff;stroke-linecap:round;stroke-linejoin:round;stroke-width:0.75px"></path><path d="M370.74,152.48c-1.75-.33-2.95-.22-3.36,1" style="fill:none;stroke:#fff;stroke-linecap:round;stroke-linejoin:round;stroke-width:0.75px"></path><path d="M399.58,148s-4.07,5.49-13.45,6.73c-4.93.65-9.53-.71-12.95-1.63" style="fill:none;stroke:#fff;stroke-linecap:round;stroke-linejoin:round;stroke-width:0.75px"></path><path d="M368.09,159.29s2.83-2.83,5.66-.18" style="fill:none;stroke:#fff;stroke-linecap:round;stroke-linejoin:round;stroke-width:0.75px"></path><path d="M377.38,189.52s-18.75,4.5-19.62,5.62S339,225.27,339,225.27L293.26,221l-.38,6.37,52.5,8.75,10.13-9.62,3.75,9.62s-11,20.88-13.75,34.13-5.75,44.75-5.88,56.12.5,23.25,3.25,33,10,27.88,10,27.88-10.87,5.87-15.5,8-2.75,2.87-1.25,3.25,10.75-.25,16.63-1,10.75.5,10.75-1.75-2.88-11.13-3.5-13.88-5-25.87-5-37.75S359.76,313,359.76,313l5.62-21s-1.87,32.25-.62,41.25,18.37,55.87,18.37,55.87-7.75,7.75-10.5,11.75-2,5.24-.5,4.88c12-3,15.84-8.25,17.84-9.63s0-5.12-1-7.62-4.25-34.38-5.38-42.63-3-16.12-3-16.12,14.75-41.5,13.75-58-7.62-37.88-7.62-37.88,14.62-25.75,14.37-28.12-14.62-15.13-14.62-15.13Z" style="fill:#fff;stroke:#263238;stroke-linecap:round;stroke-linejoin:round"></path><path d="M367.8,272c-10.57-3.32-17.06-5.68-20.85-7.17-.59,1.9-1.09,3.75-1.44,5.46-2.75,13.25-5.75,44.75-5.88,56.12s.5,23.25,3.25,33c.89,3.15,2.24,7.16,3.67,11.15a16,16,0,0,0,11.25-.77c-1.35-8.25-2.79-18.8-2.79-25.63,0-11.87,4.75-31.12,4.75-31.12l5.62-21s-1.87,32.25-.62,41.25c.68,4.94,6.15,21.28,10.94,35A28.82,28.82,0,0,0,386,365.74c-.93-8.18-1.83-16.25-2.32-19.85-1.12-8.25-3-16.12-3-16.12s13.31-37.45,13.79-55.35A63.49,63.49,0,0,1,367.8,272Z" style="fill:#263238;stroke:#263238;stroke-linecap:round;stroke-linejoin:round"></path><path d="M352.76,397.52c5.87-.75,10.75.5,10.75-1.75a24.44,24.44,0,0,0-.93-4.58L355,392.48s-.34-1.67-.5-3.34a2,2,0,0,0-1.59-1.87s-10.87,5.87-15.5,8-2.75,2.87-1.25,3.25S346.88,398.27,352.76,397.52Z" style="fill:#263238;stroke:#263238;stroke-linecap:round;stroke-linejoin:round"></path><path d="M384.13,390.31a2.87,2.87,0,0,0-1.68-.48c-1.94,2-7.56,7.78-9.82,11.06-2.75,4-2,5.24-.5,4.88,12-3,15.84-8.25,17.84-9.63,1.3-.9.92-2.81.21-4.73a20.65,20.65,0,0,1-3.55,2.07C386,393.48,385.47,391.14,384.13,390.31Z" style="fill:#263238;stroke:#263238;stroke-linecap:round;stroke-linejoin:round"></path><polygon points="305.38 222.88 299.25 218.25 290.25 217.75 290.25 219.75 294.25 220.75 294.75 222 285 223 285.25 226.75 295 230.75 305 229.25 305.38 222.88" style="fill:#fff;stroke:#263238;stroke-linecap:round;stroke-linejoin:round"></polygon><path d="M386.51,190.64l-9.13-1.12s-18.75,4.5-19.62,5.62S339,225.27,339,225.27l-33.63-2.39-.38,6.37,40.38,6.89,10.13-9.62,3.75,9.62s-11,20.88-13.75,34.13c-.22,1-.44,2.2-.65,3.45a72.12,72.12,0,0,0,48.87,8,50.56,50.56,0,0,0,.65-9.92c-1-16.5-7.62-37.88-7.62-37.88s14.62-25.75,14.37-28.12S386.51,190.64,386.51,190.64Z" style="fill:#FF81AE;stroke:#263238;stroke-linecap:round;stroke-linejoin:round"></path><path d="M366.54,227s6.07,8.6,10.62,10.11" style="fill:none;stroke:#263238;stroke-linecap:round;stroke-linejoin:round"></path><path d="M375.63,209.39c2.58-1.23,12.81-10.54,16.31-13.77-2.93-2.76-5.43-5-5.43-5l-9.13-1.12-3.83.94a77.46,77.46,0,0,0-2.17,11.68C370.38,211.14,372.51,210.89,375.63,209.39Z" style="fill:#fff;stroke:#263238;stroke-linecap:round;stroke-linejoin:round"></path><path d="M376.88,184.52A37.74,37.74,0,0,1,376,192c-.88,3.75-3.13,13.37-1.75,13.62s13.25-13,13.25-13l1.25-10.87Z" style="fill:#fff;stroke:#263238;stroke-linecap:round;stroke-linejoin:round"></path><path d="M359.26,203.52s.75,5,.5,5.87-5.63,5.5-5.63,8.88a38.35,38.35,0,0,0,1.38,8.25" style="fill:none;stroke:#263238;stroke-linecap:round;stroke-linejoin:round"></path><rect x="175.18" y="152.9" width="154.25" height="106.75" rx="3.92" transform="translate(-3.69 4.59) rotate(-1.04)" style="fill:#FF81AE;stroke:#263238;stroke-linecap:round;stroke-linejoin:round;stroke-width:2px"></rect><path d="M174.3,158.22l75.29,56.37a6.35,6.35,0,0,0,7.91-.23l70.76-59.84" style="fill:#FF81AE;stroke:#263238;stroke-linecap:round;stroke-linejoin:round;stroke-width:2px"></path><path d="M108.07,171.76,136,159.26s-4.37-9.45-6.55-11.92-10.76-3.35-16.14-1.17-10,8-10.32,10.91S108.07,171.76,108.07,171.76Z" style="fill:#263238;stroke:#263238;stroke-linecap:round;stroke-linejoin:round"></path><path d="M150.53,156.5s.14,2.61-3.78,4.65-11.05,2.18-9.31-.29S149.8,155.91,150.53,156.5Z" style="fill:#263238;stroke:#263238;stroke-linecap:round;stroke-linejoin:round"></path><path d="M112.43,170.17A18,18,0,0,0,128,170c8.29-4.07,11.78-9.31,16.43-11.2s8.14-2.47,5.38-3S136,159.26,136,159.26Z" style="fill:#FF81AE;stroke:#263238;stroke-linecap:round;stroke-linejoin:round"></path><path d="M122,159.64a1.8,1.8,0,0,1-1.35,0,1.78,1.78,0,0,1-1-1l-1-2.59a1.83,1.83,0,0,1,1-2.35l5.06-2a1.81,1.81,0,0,1,1.39,0,1.76,1.76,0,0,1,1,1l1,2.58a1.81,1.81,0,0,1,0,1.39,1.83,1.83,0,0,1-1,1l-5.06,2Zm2.92-7.59h0l-5.06,2a1.41,1.41,0,0,0-.79,1.82l1,2.58a1.43,1.43,0,0,0,.75.78,1.37,1.37,0,0,0,1.07,0l5.06-2h0a1.4,1.4,0,0,0,.79-1.82l-1-2.58a1.4,1.4,0,0,0-.74-.77A1.41,1.41,0,0,0,124.94,152.05Z" style="fill:#fff"></path><path d="M123.61,156.05a.44.44,0,0,1-.3,0L119,154.81a.18.18,0,0,1-.12-.21.17.17,0,0,1,.22-.12l4.28,1.25a.13.13,0,0,0,.15-.06l2.15-3.84a.17.17,0,0,1,.23-.06.16.16,0,0,1,.07.23l-2.15,3.84A.45.45,0,0,1,123.61,156.05Z" style="fill:#fff"></path><path d="M208.66,154.47h0a1.29,1.29,0,0,1-1.29-1.29v-4.46a1.29,1.29,0,0,1,1.29-1.29h0a1.29,1.29,0,0,1,1.29,1.29v4.46A1.29,1.29,0,0,1,208.66,154.47Z" style="fill:#fff;stroke:#263238;stroke-linecap:round;stroke-linejoin:round"></path><path d="M217.1,154h0a1.29,1.29,0,0,1-1.56-.95l-.85-3.5a1.29,1.29,0,0,1,.95-1.56h0a1.29,1.29,0,0,1,1.56.95l.85,3.5A1.29,1.29,0,0,1,217.1,154Z" style="fill:#fff;stroke:#263238;stroke-linecap:round;stroke-linejoin:round"></path><path d="M215,154h0a1.3,1.3,0,0,1-1.57-.95l-1-4.33a1.29,1.29,0,0,1,.95-1.56h0a1.3,1.3,0,0,1,1.57.95l1.05,4.33A1.3,1.3,0,0,1,215,154Z" style="fill:#fff;stroke:#263238;stroke-linecap:round;stroke-linejoin:round"></path><path d="M212,154.12h0a1.3,1.3,0,0,1-1.48-1.07l-.7-4.4a1.3,1.3,0,0,1,1.07-1.48h0a1.3,1.3,0,0,1,1.48,1.07l.71,4.4A1.29,1.29,0,0,1,212,154.12Z" style="fill:#fff;stroke:#263238;stroke-linecap:round;stroke-linejoin:round"></path><path d="M390.82,209.28,384,236.64l-44.25,11.63.12,4.87,50.63-7.5s12.37-34.87,12.62-37.87-6.5-7.38-6.5-7.38" style="fill:#FF81AE;stroke:#263238;stroke-linecap:round;stroke-linejoin:round"></path><path d="M339.76,248.27s-7.75-4-8.88-4.38-7.75,2.5-9.75,2.63-3.75-.13-2.87,1.12a3.54,3.54,0,0,0,3.25,1.5c1.25,0,6.25-.62,7-.62s-2.25,2.25-4.38,4.12-6.62,5-6.62,5.63,1.25,1,2.37.87,2.63-.37,3.5-.37,5.13.5,6.75-.38,7.63-4.75,7.63-4.75l2.12-.5Z" style="fill:#fff;stroke:#263238;stroke-linecap:round;stroke-linejoin:round"></path><path d="M374.75,159.54s-5,14-3.84,18.31,5.42,9.15,9.26,9.37,11.3-2.37,12.21-4.4,1.81-4.3,1.81-4.3,3.84,0,4.52-2,.67-3.84-1.13-5a5.66,5.66,0,0,0-3.85-.68s-4.29-2-4.52-6.55a31.17,31.17,0,0,1,.68-8.14,37.48,37.48,0,0,1-7,3.16A19.33,19.33,0,0,1,374.75,159.54Z" style="fill:#fff;stroke:#263238;stroke-linecap:round;stroke-linejoin:round"></path><path d="M377.1,166c-.35,1.1-1,1.88-1.45,1.74s-.53-1.15-.18-2.26,1-1.89,1.45-1.74S377.45,164.86,377.1,166Z" style="fill:#263238"></path><path d="M384.35,168.09c-.35,1.1-1,1.89-1.45,1.74s-.53-1.15-.18-2.26,1-1.88,1.45-1.74S384.7,167,384.35,168.09Z" style="fill:#263238"></path><path d="M378.7,165.66s-.17,3.18-2.12,4.42l-.88.56a1.6,1.6,0,0,0-.16,2.58,3.8,3.8,0,0,0,1.92.93" style="fill:none;stroke:#263238;stroke-linecap:round;stroke-linejoin:round"></path><path d="M375.87,178s4.6,2.3,7.43-.71" style="fill:none;stroke:#263238;stroke-linecap:round;stroke-linejoin:round"></path><path d="M375.69,161.94s1.77-1.95,3.37-.18" style="fill:none;stroke:#263238;stroke-linecap:round;stroke-linejoin:round"></path><path d="M382.42,163s2.83-1.94,3.71,1.42" style="fill:none;stroke:#263238;stroke-linecap:round;stroke-linejoin:round"></path><path d="M116.74,388,136,403.34s-.16,1-2.5,1-25.59-5.85-26.77-5.85-1.5-.84-1.5-1.67,4.18-10.71,4.18-10.71Z" style="fill:#FF81AE;stroke:#263238;stroke-linecap:round;stroke-linejoin:round"></path><path d="M105.2,396.82c0,.83.33,1.67,1.5,1.67s24.42,5.85,26.77,5.85,2.5-1,2.5-1l-30.16-8.43A10.47,10.47,0,0,0,105.2,396.82Z" style="fill:#fff;stroke:#263238;stroke-linecap:round;stroke-linejoin:round"></path><path d="M207.06,378.75s-.17,10.87,0,11.88.67,1.17,1.5,1.17,26.43-.67,26.93-1.51a1,1,0,0,0-.33-1.33l-18.57-9.54-1-1.5Z" style="fill:#FF81AE;stroke:#263238;stroke-linecap:round;stroke-linejoin:round"></path><path d="M207.06,390.63c.17,1,.67,1.17,1.5,1.17s26.43-.67,26.93-1.51a1,1,0,0,0-.33-1.33l-1-.5L207,389C207,389.81,207,390.42,207.06,390.63Z" style="fill:#fff;stroke:#263238;stroke-linecap:round;stroke-linejoin:round"></path><polygon points="97.17 265.85 143 264.85 145.01 305.66 93.83 305.66 97.17 265.85" style="fill:#fff;stroke:#263238;stroke-linecap:round;stroke-linejoin:round"></polygon><path d="M143,264.85l4.52.33s6.18,38.64,5.68,38.64-8.19,1.84-8.19,1.84Z" style="fill:#fff;stroke:#263238;stroke-linecap:round;stroke-linejoin:round"></path><polyline points="97.17 265.85 118.24 289.52 142.28 264.97" style="fill:none;stroke:#263238;stroke-linecap:round;stroke-linejoin:round"></polyline><path d="M138.6,242.29l5,4.07L187,256.54a26.4,26.4,0,0,0,3.2-2.91c.29-.58,6.83.15,7.56.15s2-.44,2,.29,0,1.6-.72,2-3.78.29-4.22.43-2.76.87-2.76.87l12.94,4.8a7,7,0,0,1-2,1.6c-1,.44-5.09.15-5.09.15a46.15,46.15,0,0,1-6.25,1.74c-1.6.15-7.27-2.32-7.27-2.32s-35.77-3.06-40-4.08S129.59,251,129.59,251Z" style="fill:#fff;stroke:#263238;stroke-linecap:round;stroke-linejoin:round"></path><path d="M111.7,208.26c-3.92-.58-8.87,4.8-7.41,12.8s19.48,37.23,19.48,37.23l17.45-15.13S115.63,208.85,111.7,208.26Z" style="fill:#fff;stroke:#263238;stroke-linecap:round;stroke-linejoin:round"></path></g><g id="freepik--Clouds--inject-221"><path d="M361.55,106.06c-3.7-2-5.38-.34-6.73-2s3.7-6.06-6.39-10.43c0,0-.67-9.42-14.47-9.76s-10.09,9.42-13.8,11.78-4.71-1.35-8.41,1-2,7.06-5.05,7.74-7.06-3-10.76-.68-3.7,4.38-5.39,4.38-5-1.35-7.06,0-4.38,3-4.38,3h85.13S365.25,108.08,361.55,106.06Z" style="fill:#FF81AE"></path><path d="M361.55,106.06c-3.7-2-5.38-.34-6.73-2s3.7-6.06-6.39-10.43c0,0-.67-9.42-14.47-9.76s-10.09,9.42-13.8,11.78-4.71-1.35-8.41,1-2,7.06-5.05,7.74-7.06-3-10.76-.68-3.7,4.38-5.39,4.38-5-1.35-7.06,0-4.38,3-4.38,3h85.13S365.25,108.08,361.55,106.06Z" style="fill:#fff;opacity:0.5"></path><path d="M198,123.45c-2.2-1.2-3.2-.2-4-1.2s2.19-3.59-3.8-6.19c0,0-.39-5.58-8.57-5.78s-6,5.59-8.19,7-2.79-.8-5,.6-1.2,4.19-3,4.59-4.19-1.8-6.38-.4-2.2,2.59-3.19,2.59-3-.79-4.19,0-2.6,1.8-2.6,1.8h50.48S200.19,124.64,198,123.45Z" style="fill:#fff"></path></g></svg>