<svg xmlns="http://www.w3.org/2000/svg" viewBox="0 0 500 500"><g id="freepik--background-simple--inject-92"><path d="M462,313.85c27.74-48.45,29.61-113,10.46-164.76C456,104.54,419.28,70.55,376.9,50.31,327.73,26.83,269.12,19.85,216.35,34.66c-13.88,3.9-27.39,7.47-40.48,13.88-53.65,26.25-43.3,90.93-62.12,113.43-15.83,18.93-46.12,13.35-65.21,27.86C-3,229-3.11,327.92,56.34,358.85,119.4,391.66,393.29,433.85,462,313.85Z" style="fill:#FF81AE"></path><path d="M462,313.85c27.74-48.45,29.61-113,10.46-164.76C456,104.54,419.28,70.55,376.9,50.31,327.73,26.83,269.12,19.85,216.35,34.66c-13.88,3.9-27.39,7.47-40.48,13.88-53.65,26.25-43.3,90.93-62.12,113.43-15.83,18.93-46.12,13.35-65.21,27.86C-3,229-3.11,327.92,56.34,358.85,119.4,391.66,393.29,433.85,462,313.85Z" style="fill:#fff;opacity:0.8"></path></g><g id="freepik--Floor--inject-92"><ellipse cx="249.08" cy="419.53" rx="241.98" ry="64.53" style="fill:#FF81AE"></ellipse><ellipse cx="249.08" cy="419.53" rx="241.98" ry="64.53" style="fill:#fff;opacity:0.4"></ellipse></g><g id="freepik--Plant--inject-92"><path d="M17.16,337.48c4.9,5.1,22,8.87,42.33,8.87s37.44-3.77,42.33-8.87" style="fill:none;stroke:#263238;stroke-miterlimit:10"></path><path d="M101.82,337.48a4.33,4.33,0,0,0,1.41-3" style="fill:none;stroke:#263238;stroke-miterlimit:10"></path><path d="M17.16,337.48a4.36,4.36,0,0,1-1.4-3" style="fill:none;stroke:#263238;stroke-miterlimit:10"></path><path d="M103.23,334.49c0-6.55-19.58-11.85-43.74-11.85s-43.73,5.3-43.73,11.85" style="fill:none;stroke:#263238;stroke-miterlimit:10"></path><path d="M30.23,349.29a117.82,117.82,0,0,0,21.61,2.86" style="fill:none;stroke:#263238;stroke-miterlimit:10"></path><path d="M85.81,349.94q3.34-.68,6.15-1.52" style="fill:none;stroke:#263238;stroke-miterlimit:10"></path><path d="M62.43,352.3q-1.45,0-2.94,0-3.91,0-7.65-.18" style="fill:none;stroke:#263238;stroke-miterlimit:10"></path><path d="M62.43,352.3a131.1,131.1,0,0,0,23.38-2.36" style="fill:none;stroke:#263238;stroke-miterlimit:10"></path><path d="M24.22,347.48c-5.32-2-8.46-4.38-8.46-7" style="fill:none;stroke:#263238;stroke-miterlimit:10"></path><path d="M103.23,340.48c0,3-4.27,5.84-11.27,7.94" style="fill:none;stroke:#263238;stroke-miterlimit:10"></path><path d="M24.22,347.48a55.1,55.1,0,0,0,6,1.81" style="fill:none;stroke:#263238;stroke-miterlimit:10"></path><line x1="15.76" y1="334.49" x2="15.76" y2="340.48" style="fill:none;stroke:#263238;stroke-miterlimit:10"></line><line x1="103.23" y1="333.37" x2="103.23" y2="334.49" style="fill:none;stroke:#263238;stroke-miterlimit:10"></line><line x1="103.23" y1="334.49" x2="103.23" y2="340.48" style="fill:none;stroke:#263238;stroke-miterlimit:10"></line><path d="M24.22,347.48l-7.51,66.1a8.28,8.28,0,0,0,8.23,9.22h0a8.29,8.29,0,0,0,8.28-8.66l-3-64.85" style="fill:none;stroke:#263238;stroke-miterlimit:10"></path><path d="M85.81,349.94l-3,64.2a8.29,8.29,0,1,0,16.51-.56L92,348.42" style="fill:none;stroke:#263238;stroke-miterlimit:10"></path><path d="M62.43,352.3l4.19,35.23a8.29,8.29,0,1,1-16.51.55l1.73-35.93" style="fill:none;stroke:#263238;stroke-miterlimit:10"></path><path d="M57.5,311.51s.45-15.9-.12-29.57.58-43,.58-43" style="fill:none;stroke:#263238;stroke-miterlimit:10"></path><line x1="57.69" y1="256.18" x2="51.48" y2="251.29" style="fill:none;stroke:#263238;stroke-miterlimit:10"></line><line x1="57.63" y1="259.55" x2="59.84" y2="255.97" style="fill:none;stroke:#263238;stroke-miterlimit:10"></line><line x1="57.12" y1="273.69" x2="62.64" y2="269.13" style="fill:none;stroke:#263238;stroke-miterlimit:10"></line><line x1="57.96" y1="244.95" x2="55.05" y2="242.3" style="fill:none;stroke:#263238;stroke-miterlimit:10"></line><line x1="57.07" y1="276.18" x2="53.43" y2="272.26" style="fill:none;stroke:#263238;stroke-miterlimit:10"></line><line x1="57.39" y1="291.53" x2="49.8" y2="284.6" style="fill:none;stroke:#263238;stroke-miterlimit:10"></line><path d="M57.59,300.05a45.21,45.21,0,0,0,5.62-2.62" style="fill:none;stroke:#263238;stroke-miterlimit:10"></path><path d="M53.4,258.64c-3-2.36-13.27-1.94-15.24,2.95s4.25,12.86,10.28,12.3c2.36-.22,3.37-.38,4.29-1.7h0L44.33,264l9.09,7.31a7.12,7.12,0,0,0,.63-1.5c.1-.36.2-.75.28-1.16C54.91,265.7,56.24,260.84,53.4,258.64Z" style="fill:#FF81AE"></path><path d="M73.16,253l0,.17c-.82,3.65-5,5.71-8.5,5.41a8.33,8.33,0,0,1-1.44-.27,10.06,10.06,0,0,0-.91,8.85,5.7,5.7,0,0,0,.6,1.15C63.91,267.43,75,258,75,258L63.49,269.06c3.45,3.7,11.58,3.19,14.4-3.67S77.15,253.94,73.16,253Z" style="fill:#FF81AE"></path><path d="M67.54,240.21c-6-1.31-11.27,1.39-11.17,7.59a10,10,0,0,0,3.31,7.29l6.07-8.41-5.16,9.11a7.87,7.87,0,0,0,1.54.83,8.24,8.24,0,0,0,2.36.57c3.5.3,7.67-1.76,8.49-5.41C73.9,247.7,73.49,241.51,67.54,240.21Z" style="fill:#FF81AE"></path><path d="M60.6,218.61s-.61.18-4.42,2-6.81,7.89-3.8,13a9,9,0,0,0,5.08,4.46L59,223.35l-.62,15a4.39,4.39,0,0,0,.87,0c2.47-.26,6.39-3.22,6.76-9.28S60.6,218.61,60.6,218.61Z" style="fill:#FF81AE"></path><path d="M43.22,232.06l11.47,9.18a3.25,3.25,0,0,0,.12-1.29c-.53-5.25-5.78-8.29-9.24-9.39s-5.86.86-3.63,5.89,8.06,7.43,10.67,6.7a3.08,3.08,0,0,0,1.59-1Z" style="fill:#FF81AE"></path><path d="M51.12,243.83c-2.48.09-6.5-1.69-8.83-5.1a4.71,4.71,0,0,0-5.06,4.12c-1.17,5.48,2.79,11.21,8.5,10.51a7.62,7.62,0,0,0,4.77-2L40.28,242l10.93,8.32a3.35,3.35,0,0,0,.4-1.25A9.11,9.11,0,0,0,51.12,243.83Z" style="fill:#FF81AE"></path><path d="M51.06,274.29a8.7,8.7,0,0,1-2.94.7c-3.73.35-7.53-2.58-9.43-6-2.29.37-4.12,1.6-4.56,4.1-1.13,6.41,4.8,14.86,10.8,13.53a8.58,8.58,0,0,0,4.17-2.12L36,271.9l13.86,11.74a7.36,7.36,0,0,0,1.48-3.5A8.08,8.08,0,0,0,51.06,274.29Z" style="fill:#FF81AE"></path><path d="M77.4,287.44c-4.4-5.09-9.65-.53-9.65-.53s-3.21,1.06-4.42,5.61a7,7,0,0,0,.16,4.2L76.73,289l-12.92,8.44c1.21,2.29,3.84,3.68,7.44,2.67C77.08,298.48,81.8,292.54,77.4,287.44Z" style="fill:#FF81AE"></path><path d="M66.42,306.71H48.09l2.52,24.82a2.58,2.58,0,0,0,2.57,2.33h8.15a2.59,2.59,0,0,0,2.58-2.33Z" style="fill:#263238"></path></g><g id="freepik--Windows--inject-92"><path d="M51.66,30.82V236.26H156.51V30.82Zm54.7,5h46.32V81.17H106.36Zm0,50.35h46.32v44.9H106.36Zm0,49.88h46.32v45.85H106.36Zm-3.83,95.25H55.48V186.86h47.05Zm0-49.4H55.48V136h47.05Zm0-50.83H55.48V86.15h47.05Zm0-49.88H55.48V35.8h47.05Zm3.83,150.11V186.86h46.32v44.42Z" style="fill:none;stroke:#b2b2b2;stroke-miterlimit:10"></path><path d="M375.29,30.82V236.26H480.14V30.82Zm54.71,5h46.31V81.17H430Zm0,50.35h46.31v44.9H430ZM430,136h46.31v45.85H430Zm-3.83,95.25H379.12V186.86h47.05Zm0-49.4H379.12V136h47.05Zm0-50.83H379.12V86.15h47.05Zm0-49.88H379.12V35.8h47.05ZM430,231.28V186.86h46.31v44.42Z" style="fill:none;stroke:#b2b2b2;stroke-miterlimit:10"></path></g><g id="freepik--Picture--inject-92"><rect x="201.03" y="32.54" width="129.74" height="153.64" style="fill:none;stroke:#b2b2b2;stroke-miterlimit:10"></rect><line x1="326.5" y1="83.19" x2="326.5" y2="105.72" style="fill:none;stroke:#b2b2b2;stroke-miterlimit:10"></line><line x1="326.5" y1="83.19" x2="326.5" y2="39.24" style="fill:none;stroke:#b2b2b2;stroke-miterlimit:10"></line><line x1="326.5" y1="105.72" x2="326.5" y2="161.99" style="fill:none;stroke:#b2b2b2;stroke-miterlimit:10"></line><polyline points="205.3 57.05 205.3 37.59 227.25 37.59" style="fill:none;stroke:#b2b2b2;stroke-miterlimit:10"></polyline><polyline points="303.95 37.59 326.5 37.59 326.5 39.24" style="fill:none;stroke:#b2b2b2;stroke-miterlimit:10"></polyline><line x1="227.25" y1="37.59" x2="270.71" y2="37.59" style="fill:none;stroke:#b2b2b2;stroke-miterlimit:10"></line><polyline points="326.5 161.99 326.5 181.12 305.4 181.12" style="fill:none;stroke:#b2b2b2;stroke-miterlimit:10"></polyline><line x1="303.95" y1="37.59" x2="270.71" y2="37.59" style="fill:none;stroke:#b2b2b2;stroke-miterlimit:10"></line><line x1="205.3" y1="99.81" x2="205.3" y2="118.19" style="fill:none;stroke:#b2b2b2;stroke-miterlimit:10"></line><line x1="205.3" y1="57.05" x2="205.3" y2="99.81" style="fill:none;stroke:#b2b2b2;stroke-miterlimit:10"></line><polyline points="205.3 177.99 205.3 181.12 290.4 181.12" style="fill:none;stroke:#b2b2b2;stroke-miterlimit:10"></polyline><line x1="205.3" y1="170.86" x2="205.3" y2="177.99" style="fill:none;stroke:#b2b2b2;stroke-miterlimit:10"></line><line x1="205.3" y1="118.19" x2="205.3" y2="170.86" style="fill:none;stroke:#b2b2b2;stroke-miterlimit:10"></line><line x1="290.4" y1="181.12" x2="305.4" y2="181.12" style="fill:none;stroke:#b2b2b2;stroke-miterlimit:10"></line><path d="M326.5,162c-6.35,5.56-13.76,12.5-21.1,19.13" style="fill:none;stroke:#b2b2b2;stroke-miterlimit:10"></path><path d="M290.4,181.12c7.28-17.79,23.92-49.44,36.1-75.4" style="fill:none;stroke:#b2b2b2;stroke-miterlimit:10"></path><path d="M205.3,57.05a114.55,114.55,0,0,0,11.59-10.34,115.31,115.31,0,0,1,10.36-9.12" style="fill:none;stroke:#b2b2b2;stroke-miterlimit:10"></path><path d="M205.3,178a5.47,5.47,0,0,0,2.09.56c21.39,2.1,92.23-74.54,119.11-95.36" style="fill:none;stroke:#b2b2b2;stroke-miterlimit:10"></path><path d="M205.3,118.19c16.26-4.22,67-55.6,98.65-80.6" style="fill:none;stroke:#b2b2b2;stroke-miterlimit:10"></path><path d="M205.3,99.81c13.13-20.24,47.86-44.45,65.41-62.22" style="fill:none;stroke:#b2b2b2;stroke-miterlimit:10"></path><path d="M205.3,170.86c12.52-24,101.64-97.35,121.2-131.62" style="fill:none;stroke:#b2b2b2;stroke-miterlimit:10"></path></g><g id="freepik--Couch--inject-92"><path d="M439.64,335.3s-2-76.54-29-85.12c-27.61-8.75-57.1-8-85.68-6.72-27,1.22-133.63.48-160.52,2.26-29.61,2-40.57,15.55-47.1,42.93a227.51,227.51,0,0,0-5.92,46.65l-6.6,19.8H446.24Z" style="fill:#7a7a7a;stroke:#263238;stroke-linecap:round;stroke-linejoin:round"></path><path d="M133.82,344.54V327.38s-.66-12.53-15.17-13.85S64.54,343.22,65.2,349.82s7.92,53.45,12.53,55.43,16.5,11.21,27.06,5.94S133.82,344.54,133.82,344.54Z" style="fill:#7a7a7a;stroke:#263238;stroke-linecap:round;stroke-linejoin:round"></path><path d="M411.93,344.54V327.38s.66-12.53,15.18-13.85,54.11,29.69,53.45,36.29-7.92,53.45-12.54,55.43-16.5,11.21-27.06,5.94S411.93,344.54,411.93,344.54Z" style="fill:#7a7a7a;stroke:#263238;stroke-linecap:round;stroke-linejoin:round"></path><path d="M133.82,344.54a30.27,30.27,0,0,1-3.47,3.09c-8.87,7.32-31.5,24.62-31.5,24.62H448.22l-36.29-29.69Z" style="fill:#7a7a7a;stroke:#263238;stroke-linecap:round;stroke-linejoin:round"></path><polygon points="98.85 372.25 98.85 399.53 448.04 399.53 448.22 372.25 98.85 372.25" style="fill:#4a4a4a;stroke:#263238;stroke-linecap:round;stroke-linejoin:round"></polygon><path d="M90.27,426.36l-8.44,26.47a3.49,3.49,0,0,0,3.32,4.55h0a3.48,3.48,0,0,0,2.86-1.5L108.09,427Z" style="fill:#263238;stroke:#263238;stroke-linecap:round;stroke-linejoin:round"></path><path d="M456.77,426.36l8.44,26.47a3.49,3.49,0,0,1-3.32,4.55h0a3.51,3.51,0,0,1-2.87-1.5L439,427Z" style="fill:#263238;stroke:#263238;stroke-linecap:round;stroke-linejoin:round"></path><path d="M473.85,342.07c-4.37-2.15-9.32-2.48-15.25.49C446.72,348.5,448,372.25,448,372.25V389a9.67,9.67,0,0,1-9.66,9.66H108.51A9.66,9.66,0,0,1,98.85,389V372.25s1.32-23.75-10.56-29.69c-5.94-3-10.89-2.64-15.26-.49A19.71,19.71,0,0,0,62.54,362.5c1.85,13.72,5.38,37.73,8.6,47.37,4.62,13.85,4.62,16.49,14.51,19.79,8.59,2.86,198.43.76,227.54.15,29.11.61,139.46,2.71,148.05-.15,9.89-3.3,9.89-5.94,14.51-19.79,3.22-9.64,6.75-33.65,8.6-47.37A19.7,19.7,0,0,0,473.85,342.07Z" style="fill:#4a4a4a;stroke:#263238;stroke-linecap:round;stroke-linejoin:round"></path></g><g id="freepik--character-2--inject-92"><path d="M250.8,169.93s-10.49,32.42-11.8,56-2.29,36.68-2.29,36.68-8.52,16.71-11.46,31.12-8.15,45.74-9.79,50.65S202.69,362.73,205,364s11.14,1,14.09,0,4.58-11.46,6.55-19.65,26.81-54.25,31.73-62.77,6.22-18.67,9.17-24.89,15.72-51.43,15.72-51.43l2.29-1s.33,30.46,4.59,44.55,9.5,27.84,9.5,31.11,2.95,17.69,5.89,25.88S313,344.51,313,347.79s-2.29,8.84.66,11.46,12.77,2.62,17,4.59,13.76,1,14.74-2-6.22-6.88-10.81-9.82-9.83-6.56-9.83-11.47,2-42.91-1-55.35-5.24-20.64-5.24-26.54,5.24-52.41,3.28-69.44-8.19-27.84-8.19-27.84Z" style="fill:#263238;stroke:#263238;stroke-linecap:round;stroke-linejoin:round"></path><path d="M334.65,352.05c-4.59-2.95-9.83-6.56-9.83-11.47,0-2.31.44-11.94.59-22.78a43.3,43.3,0,0,1-17.22,2.59c2.47,11.54,4.84,25.26,4.84,27.4,0,3.27-2.29,8.84.66,11.46s12.77,2.62,17,4.59,13.76,1,14.74-2S339.24,355,334.65,352.05Z" style="fill:#fff;stroke:#263238;stroke-linecap:round;stroke-linejoin:round"></path><path d="M225.62,344.39c.75-3.13,4.73-12.85,9.83-21.71-6.95-1.73-12.14-2.76-14.58-5.48-2.63,12-4.32,23.93-5.41,27.19C213.83,349.3,202.69,362.73,205,364s11.14,1,14.09,0S223.65,352.58,225.62,344.39Z" style="fill:#fff;stroke:#263238;stroke-linecap:round;stroke-linejoin:round"></path><path d="M227.77,338.41a31.29,31.29,0,0,0-2.15,6c-2,8.19-3.6,18.67-6.55,19.65s-11.79,1.31-14.09,0,8.85-14.74,10.48-19.65c.42-1.24,1.09-3.79,1.9-7.13A13,13,0,0,0,227.77,338.41Z" style="fill:#fff;stroke:#263238;stroke-linecap:round;stroke-linejoin:round"></path><path d="M345.46,361.87c1-2.95-6.22-6.88-10.81-9.82s-9.83-6.56-9.83-11.47c0-.32,0-.78,0-1.36A32.61,32.61,0,0,1,312,340c.66,3.95,1.08,6.88,1.08,7.78,0,3.27-2.29,8.84.66,11.46s12.77,2.62,17,4.59S344.48,364.82,345.46,361.87Z" style="fill:#fff;stroke:#263238;stroke-linecap:round;stroke-linejoin:round"></path><path d="M335.07,364.8c4.44.32,9.67-.78,10.39-2.93.32-1-.24-2-1.28-3.12A16.74,16.74,0,0,0,335.07,364.8Z" style="fill:#a8a8a8;stroke:#263238;stroke-linecap:round;stroke-linejoin:round"></path><path d="M220.13,363.23c-4.84-2.32-12-1.28-15.32-.62-.22.72-.19,1.23.17,1.43,2.3,1.31,11.14,1,14.09,0A2.42,2.42,0,0,0,220.13,363.23Z" style="fill:#a8a8a8;stroke:#263238;stroke-linecap:round;stroke-linejoin:round"></path><path d="M312.44,352.31c-.4,2.62-.56,5.33,1.25,6.94,1.1,1,3.16,1.59,5.54,2.08A12.63,12.63,0,0,0,312.44,352.31Z" style="fill:#a8a8a8;stroke:#263238;stroke-linecap:round;stroke-linejoin:round"></path><path d="M329.8,61.29s.58-5.62-3.3-13.57-17.25-13.56-27.32-11.24a26,26,0,0,0-15.89,10.27c-1.94,2.33-3.3,4.85-9.69,3.3a14.88,14.88,0,0,0-15.12,5.42c-2.52,3.69-2.13,10.08-2.71,12s-5.23,5.43-5.23,5.43L314.1,101s9.11-6.58,10.46-11.24S320.88,84,323.4,78.92s6.78-7.56,7-10.46A37.09,37.09,0,0,0,329.8,61.29Z" style="fill:#263238;stroke:#263238;stroke-linecap:round;stroke-linejoin:round"></path><path d="M284.26,73.11s-2.14,7.75-5.24,10.66-11.43,2.71-18.21,2.13-11.63.77-14.73,4.65-27.71,27.52-31.2,31.59-.39,11.43,2.33,12.4,7-1.74,11.43-6,18.41-15.89,18.41-15.89,3.68,33.91,1.35,43.8-3.87,14.92-3.87,14.92,25.19,4.26,43.6.77a276.38,276.38,0,0,0,30.43-7.36s-7.17-21.7-8.53-29.65-1.16-8.72-1.16-8.72,21.31,16.47,25.38,16.47,9.5-1.55,5.24-8.14S318.17,107.41,314.87,101s-6.39-6.39-13.17-8.91S298,81.25,298,81.25,290.26,72.53,284.26,73.11Z" style="fill:#fff;stroke:#263238;stroke-linecap:round;stroke-linejoin:round"></path><path d="M284.26,73.11s-1.46,17.67,3.95,22.58,12.72-3.92,12.72-3.92Z" style="fill:#263238;stroke:#263238;stroke-linecap:round;stroke-linejoin:round"></path><path d="M301.12,98.69c-.12-3.47-.17-5.69-.19-6.92a6.24,6.24,0,0,1-2.63-2.36,41.28,41.28,0,0,1-5.52,14.32c-4.45,6.78-16.86,3.49-19-2.52-1.57-4.43-2.51-11.58-2.89-15a68.71,68.71,0,0,1-9.39-.2,67.72,67.72,0,0,1-1.87,24.55c-2.8,9.95-8.54,13-11.51,13.94.86,10.77,1.7,25.91.27,32-2.32,9.88-3.87,14.92-3.87,14.92s25.19,4.26,43.6.77a276.38,276.38,0,0,0,30.43-7.36s-7.17-21.7-8.53-29.65-1.16-8.72-1.16-8.72S301.31,104.5,301.12,98.69Z" style="fill:#FF81AE;stroke:#263238;stroke-linecap:round;stroke-linejoin:round"></path><path d="M266.35,131.93s-7.37,12.77-12.77,17.2" style="fill:none;stroke:#263238;stroke-linecap:round;stroke-linejoin:round"></path><path d="M266.85,135.86S259,154,253.58,160.92" style="fill:none;stroke:#263238;stroke-linecap:round;stroke-linejoin:round"></path><path d="M315.84,60.71s-3.29,3.1-12.79,1.74a23.72,23.72,0,0,0-18,4.46l-2.32,1.74s1.55,17.44,5.62,21.71,10.85,3.87,16.08,1.93,11.82-7.75,14.15-13.37a53.72,53.72,0,0,1,6.2-10.66S324.56,57.8,315.84,60.71Z" style="fill:#fff;stroke:#263238;stroke-linecap:round;stroke-linejoin:round"></path><path d="M317,57l-4.85,10.47s6.78,3.1,10.47,4.46,9.3,3.68,9.3,3.68A13.94,13.94,0,0,0,336,65.94c0-6-11.82-9.69-11.82-9.69" style="fill:#263238;stroke:#263238;stroke-linecap:round;stroke-linejoin:round"></path><path d="M311.77,76s-2.32,2.32-2.13,4.07-1.16,3.68-2.9,2.71a6.44,6.44,0,0,1-2.52-3.1" style="fill:none;stroke:#263238;stroke-linecap:round;stroke-linejoin:round"></path><path d="M300.92,70.59a6.61,6.61,0,0,0,5.62,2.91" style="fill:none;stroke:#263238;stroke-linecap:round;stroke-linejoin:round"></path><path d="M312.35,77.37A3.74,3.74,0,0,0,316,79.5" style="fill:none;stroke:#263238;stroke-linecap:round;stroke-linejoin:round"></path><path d="M301.7,65.94s5.23-1.36,7.75,2.52" style="fill:none;stroke:#263238;stroke-linecap:round;stroke-linejoin:round"></path><path d="M314.68,72.92s4.46,0,4.46,3.68" style="fill:none;stroke:#263238;stroke-linecap:round;stroke-linejoin:round"></path><path d="M305.18,85.32a13.24,13.24,0,0,1-8.13-7.75s-3.3,7.36-1.17,9.1S305.18,85.32,305.18,85.32Z" style="fill:#263238;stroke:#263238;stroke-linecap:round;stroke-linejoin:round"></path><path d="M297.05,77.57s-.55,1.22-1.05,2.77a13.29,13.29,0,0,0,5.67,6.21,31.78,31.78,0,0,0,3.51-1.23A13.24,13.24,0,0,1,297.05,77.57Z" style="fill:#fff;stroke:#263238;stroke-linecap:round;stroke-linejoin:round"></path><path d="M248.6,77s12.79,4.46,12,6.21-3.87,7.55-4.65,9.1A2.77,2.77,0,0,1,253.44,94c-.58,0-1.16-1.36-1.16-1.36l-4.46-.58s-.58,3.49-3.1,5a18.78,18.78,0,0,1-5.42,2.13S230,122.33,227.86,127s-5.23,8.72-8.52,9.5-8.92-4.85-7.17-11,27.9-34.88,28.68-36.82S248.6,77,248.6,77Z" style="fill:#fff;stroke:#263238;stroke-linecap:round;stroke-linejoin:round"></path><path d="M247.28,87.12s6.65.31,7.76,1.42,1.69,3.07.92,3.75" style="fill:none;stroke:#263238;stroke-linecap:round;stroke-linejoin:round"></path><path d="M247.75,82.84s7.76.63,8.87,1.9a8.73,8.73,0,0,1,1.58,3.17" style="fill:none;stroke:#263238;stroke-linecap:round;stroke-linejoin:round"></path><path d="M249.18,79.51s5.86.64,7.28,1.75,2.85,2.69,3,3.48" style="fill:none;stroke:#263238;stroke-linecap:round;stroke-linejoin:round"></path><path d="M303.34,121.8s-2.69,0-3,1.11.16,6.34.64,6.65,2.22.16,2.53-.47a31.4,31.4,0,0,0,.79-4.28S304.77,121.33,303.34,121.8Z" style="fill:#fff;stroke:#263238;stroke-linecap:round;stroke-linejoin:round"></path><polygon points="314.03 137.26 309.57 138.37 306.04 124.23 300.41 99.03 303.62 98.23 310.5 123.12 314.03 137.26" style="fill:#fff;stroke:#263238;stroke-linecap:round;stroke-linejoin:round"></polygon><rect x="297.94" y="99.92" width="12.99" height="17.42" transform="translate(-17.25 77.01) rotate(-14.02)" style="fill:#263238;stroke:#263238;stroke-linecap:round;stroke-linejoin:round"></rect><path d="M313.71,116.91c-.58,0-11.24,2.13-11.24,3.48s3.49,11,4.27,13,4.45,1.55,4.45,1.55,1.94,1,2.52,1.16,3.1.78,3.1.78,13,11.82,20.35,12.79,7.17-9.31,4.46-13.18-20.93-5.82-22.09-7.17S313.71,116.91,313.71,116.91Z" style="fill:#fff;stroke:#263238;stroke-linecap:round;stroke-linejoin:round"></path><line x1="303.19" y1="123.23" x2="312.37" y2="120.38" style="fill:none;stroke:#263238;stroke-linecap:round;stroke-linejoin:round"></line><line x1="304.77" y1="127.03" x2="313.8" y2="123.7" style="fill:none;stroke:#263238;stroke-linecap:round;stroke-linejoin:round"></line><line x1="306.35" y1="130.99" x2="314.75" y2="128.45" style="fill:none;stroke:#263238;stroke-linecap:round;stroke-linejoin:round"></line></g><g id="freepik--character-3--inject-92"><path d="M310.53,212.88s-1.82-3.24-3.23-5.54c-1.85-3-1.16-5.53,0-6.46s6.92-3.23,7.15-1.38-2.54.92-3,2.08-1.85,1.15-1.15,3.23,2.3,6.46,2.3,7.84S310.53,212.88,310.53,212.88Z" style="fill:#fff;stroke:#263238;stroke-linecap:round;stroke-linejoin:round"></path><path d="M321.45,220.9s-.33-3.93-.33-9.81,1-9.49-1-9.49-2.62,1.31-2.62,3.93,1,2.45-.3,6-2,5.8-2,5.8,1.64,3.6,2.95,3.93A7.46,7.46,0,0,0,321.45,220.9Z" style="fill:#fff;stroke:#263238;stroke-linecap:round;stroke-linejoin:round"></path><path d="M364.06,197.65s-3,4.39-3.69,17.31-7.16,30.92-7.16,30.92S335,236.19,329,232.27s-6.32-6.55-6.32-6.55.09-4.3-.84-6.38-1.61-3.92-1.61-3.92-1.16-1.15,1.38-.92,5.08,2.07,4.62.23-2.31-1.85-3.7-3-3.46,0-4.15.92a13.34,13.34,0,0,0-1.15,1.85,5.27,5.27,0,0,1,0-3c.46-1.85,3.23-3.23,5.3-3.23s1.85-2.54,0-3-5.3.92-6.46,2.31a5.15,5.15,0,0,0-1.15,3,24.59,24.59,0,0,1-.69-6c.23-2.08,3-2.77,4.84-3.47s-.23-3-2.07-2.53a10.12,10.12,0,0,0-5.54,3c-1.62,1.84-1.62,5.07-1.15,8.07s2.76,15,4.38,18.69,31.61,31.15,38.07,35.08,7.62,2.53,10.39-1.16S374,242.88,374,242.88s-1.15-22.15-4.38-30S364.06,197.65,364.06,197.65Z" style="fill:#fff;stroke:#263238;stroke-linecap:round;stroke-linejoin:round"></path><path d="M373.27,233.52c-4.54-1.84-10.69-4.53-14.73-6.32A78.52,78.52,0,0,0,360.37,215c.69-12.92,3.69-17.31,3.69-17.31s2.31,7.39,5.54,15.23C371.44,217.36,372.61,226.5,373.27,233.52Z" style="fill:#263238;stroke:#263238;stroke-linecap:round;stroke-linejoin:round"></path><path d="M444.78,353.45S449,370.5,451.54,376s8,15.77,9,27.35S466,452.23,467,454.16s7.4,8.37,13.51,13.84-2.89,7.08-8.36,6.75-11.91-4.5-15.12-6.11-4.19-6.43-4.51-10.3,0-12.54-2.57-20.59S437.06,412.33,434.16,402a106.71,106.71,0,0,1-3.54-18.67l-11.9-24.13C418.07,358,444.78,353.45,444.78,353.45Z" style="fill:#fff;stroke:#263238;stroke-linecap:round;stroke-linejoin:round"></path><path d="M444.78,353.45s-26.71,4.5-26.06,5.79l3.81,7.73c6.51-.53,16.61-2.08,24.06-6.53C445.53,356.5,444.78,353.45,444.78,353.45Z" style="fill:#263238;stroke:#263238;stroke-linecap:round;stroke-linejoin:round"></path><path d="M452.5,458.34c-.14-1.63-.16-4.14-.33-7.09a25.92,25.92,0,0,0,13.76-2.71,39.71,39.71,0,0,0,1.05,5.62c1,1.93,7.4,8.37,13.51,13.84s-2.89,7.08-8.36,6.75-11.91-4.5-15.12-6.11S452.82,462.21,452.5,458.34Z" style="fill:#fff;stroke:#263238;stroke-linecap:round;stroke-linejoin:round"></path><path d="M458.29,467.35a14.15,14.15,0,0,1,.51,2.25c-.67-.37-1.28-.7-1.79-1-2.61-1.3-3.74-4.73-4.25-8C454.76,462.2,457.5,464.78,458.29,467.35Z" style="fill:#a8a8a8;stroke:#263238;stroke-linecap:round;stroke-linejoin:round"></path><path d="M482.19,470c2,3.85-5.34,5-10.06,4.73a19.84,19.84,0,0,1-6.16-1.57C470.07,470.91,477.84,470.23,482.19,470Z" style="fill:#a8a8a8;stroke:#263238;stroke-linecap:round;stroke-linejoin:round"></path><path d="M355.12,353.45s-4.18,17.05-6.75,22.52-8.05,15.77-9,27.35-5.47,48.91-6.44,50.84-7.4,8.37-13.51,13.84,2.89,7.08,8.36,6.75,11.91-4.5,15.13-6.11,4.18-6.43,4.5-10.3,0-12.54,2.57-20.59,12.88-25.42,15.77-35.71a106.71,106.71,0,0,0,3.54-18.67s11.26-22.84,11.91-24.13S355.12,353.45,355.12,353.45Z" style="fill:#fff;stroke:#263238;stroke-linecap:round;stroke-linejoin:round"></path><path d="M381.19,359.24c.64-1.29-26.07-5.79-26.07-5.79s-.95,3.9-2.23,8.57a56.78,56.78,0,0,0,23.38,7.17C378.71,364.25,380.91,359.79,381.19,359.24Z" style="fill:#263238;stroke:#263238;stroke-linecap:round;stroke-linejoin:round"></path><path d="M347.4,458.34c.14-1.63.16-4.14.33-7.09A25.92,25.92,0,0,1,334,448.54a38.16,38.16,0,0,1-1.05,5.62c-1,1.93-7.4,8.37-13.51,13.84s2.89,7.08,8.36,6.75,11.91-4.5,15.13-6.11S347.08,462.21,347.4,458.34Z" style="fill:#fff;stroke:#263238;stroke-linecap:round;stroke-linejoin:round"></path><path d="M341.61,467.35a14.15,14.15,0,0,0-.51,2.25c.67-.37,1.28-.7,1.8-1,2.61-1.3,3.73-4.73,4.24-8C345.15,462.2,342.4,464.78,341.61,467.35Z" style="fill:#a8a8a8;stroke:#263238;stroke-linecap:round;stroke-linejoin:round"></path><path d="M317.71,470c-2,3.85,5.34,5,10.06,4.73a19.84,19.84,0,0,0,6.16-1.57C329.83,470.91,322.06,470.23,317.71,470Z" style="fill:#a8a8a8;stroke:#263238;stroke-linecap:round;stroke-linejoin:round"></path><path d="M437.7,298.75l15.12,56a206.61,206.61,0,0,1-23.16,7.08A97.35,97.35,0,0,1,411,364.07l-10-37.33h-3.86l-6.44,38s-19.63.64-27.67-2.57-16.73-7.73-16.73-7.73L366,296.18l66.28.32Z" style="fill:#FF81AE;stroke:#263238;stroke-linecap:round;stroke-linejoin:round"></path><line x1="378.94" y1="300.41" x2="373.17" y2="313.2" style="fill:none;stroke:#263238;stroke-linecap:round;stroke-linejoin:round"></line><line x1="385.54" y1="299.17" x2="380.59" y2="318.97" style="fill:none;stroke:#263238;stroke-linecap:round;stroke-linejoin:round"></line><line x1="421.44" y1="304.12" x2="423.5" y2="312.78" style="fill:none;stroke:#263238;stroke-linecap:round;stroke-linejoin:round"></line><line x1="414.84" y1="302.06" x2="416.49" y2="310.72" style="fill:none;stroke:#263238;stroke-linecap:round;stroke-linejoin:round"></line><path d="M403.75,181.73s31.15,9.92,33.46,12-.69,65.07-.46,67.61,3.92,40.38,3.92,40.38a285.5,285.5,0,0,1-36,2.77c-17.3,0-41.07-6.46-41.07-6.46s6-16.61,7.15-22.61S368.21,227,368.21,227s-5.3-19.38-4.84-26.08,9.23-9,18.92-12.92S399.13,180.81,403.75,181.73Z" style="fill:#263238;stroke:#263238;stroke-linecap:round;stroke-linejoin:round"></path><polygon points="395.24 218.31 400.25 228.46 411.46 230.09 403.35 237.99 405.26 249.15 395.24 243.88 385.22 249.15 387.14 237.99 379.03 230.09 390.23 228.46 395.24 218.31" style="fill:none;stroke:#FF81AE;stroke-linecap:round;stroke-linejoin:round"></polygon><path d="M404.67,170.19s2.08,15.46,3.46,23.08-5.07,17.31-13.61,15.92-10.62-12-10.62-14.54-1.38-12.46-1.38-12.46,11.54-.69,16.15-3.92A16.38,16.38,0,0,0,404.67,170.19Z" style="fill:#fff;stroke:#263238;stroke-linecap:round;stroke-linejoin:round"></path><path d="M370.53,159.51s-2.76-3.28-3.8.35,1.73,8.46,3.8,9.84,2.59,1.9,2.59,1.38S370.53,159.51,370.53,159.51Z" style="fill:none;stroke:#263238;stroke-linecap:round;stroke-linejoin:round"></path><path d="M406.1,156.58s2.41-5.7,5.52-2.59.35,8.8-1.55,10.7-4.15,1-4.49-.34S406.1,156.58,406.1,156.58Z" style="fill:#fff;stroke:#263238;stroke-linecap:round;stroke-linejoin:round"></path><path d="M393.61,128s-5-3.82.72-11.22" style="fill:none;stroke:#263238;stroke-linecap:round;stroke-linejoin:round"></path><path d="M394,130a58.77,58.77,0,0,1-.34-6.91c0-4.32,10-6.56,17.26.69s3.93,15.14.83,15.66a9.55,9.55,0,0,1-6.45-1,14.82,14.82,0,0,1-4.22-3.31S397.29,135.34,394,130Z" style="fill:#263238;stroke:#263238;stroke-linecap:round;stroke-linejoin:round"></path><path d="M398.69,132.17a20.69,20.69,0,0,1,7.41,10.94c1.55,6.56,0,20.72-.18,25.55s-.17,10.54-6,17.27-14.5,6.73-20.72-1.55S369,160.55,368.28,150.19s4.15-17.44,10-20.2a22.26,22.26,0,0,1,12.18-1.53A17.43,17.43,0,0,1,398.69,132.17Z" style="fill:#263238;stroke:#263238;stroke-linecap:round;stroke-linejoin:round"></path><path d="M360,148.26c5.5-6.44,14.33-.47,14.33-.47s-8.12-3.11-12.42,6.92" style="fill:none;stroke:#263238;stroke-linecap:round;stroke-linejoin:round"></path><path d="M384.51,175.05a9.74,9.74,0,0,0,5.87-.34,9.15,9.15,0,0,0,4.32-4.15" style="fill:none;stroke:#fff;stroke-linecap:round;stroke-linejoin:round"></path><path d="M404.37,158.3a7.46,7.46,0,0,0-1.73-4.14c-1.72-2.24-2.76-3.63-3.1-6.73s-4.49-3.28-7.6-2.25-7.25,5.18-12.61,4.32-7.07-2.59-8.11-1.21,0,5.18-.69,7.08a36.2,36.2,0,0,0-1.21,4.83s3.63,11.23,5,13.13,1.38,2.24,2.07,2.24,2.59-1.9,4-3.63a12.31,12.31,0,0,1,8.12-3.62c2.93,0,5.52-.52,8.28.69s2.94,4.49,4.15,2.24,2.59-7.94,2.93-10S404.37,158.3,404.37,158.3Z" style="fill:#fff;stroke:#263238;stroke-linecap:round;stroke-linejoin:round"></path><path d="M381.23,158.13a22,22,0,0,1,1.73,5.7c.35,2.76-.52,6,1.9,6.91s5-1.73,5-3.29" style="fill:#fff;stroke:#263238;stroke-linecap:round;stroke-linejoin:round"></path><path d="M396.6,159.69s-5-2.42-7.77,2.07" style="fill:none;stroke:#263238;stroke-linecap:round;stroke-linejoin:round"></path><path d="M380.54,163.83s-3.8-2.59-7.59-.35" style="fill:none;stroke:#263238;stroke-linecap:round;stroke-linejoin:round"></path><path d="M396.26,155s-5-2.41-8.81-.69" style="fill:none;stroke:#263238;stroke-linecap:round;stroke-linejoin:round;stroke-width:2px"></path><path d="M378.64,156.58s-5.35-.87-7.42,3.62" style="fill:none;stroke:#263238;stroke-linecap:round;stroke-linejoin:round;stroke-width:2px"></path><path d="M429.82,191.19s11.08,1.62,15,4.62S461,238,463.74,245.42s3.46,10.15,2.54,11.31-45.92,33.92-46.61,35.07-5.08,6.23-7.61,9.92a24.08,24.08,0,0,1-8.08,6.92c-1.39.7-6,2.77-6.69,3.46s-3.46,2.77-3.46.47,2.3-3.46,3.69-6a12.52,12.52,0,0,0,1.61-6.69c-.23-1.16-2.3.69-4.38,2.76s-5.08,6-6,5.77-1.62-1.61-.46-4.15,7.61-9.92,9-11.31l2.07-2.07s-4.84,1.38-6.69,1.15-2.3-2.54-2.54-3.69,2.54-.46,4.85-.93,3.92-2.3,6.46-2.3,11.77-.69,15.69-3.46S428.9,271,434,264.57s12-16.38,12-16.38l-15.7-38.08" style="fill:#263238;stroke:#263238;stroke-linecap:round;stroke-linejoin:round"></path><path d="M397.29,293l2.07-2.07s-4.84,1.38-6.69,1.15-2.3-2.54-2.54-3.69,2.54-.46,4.85-.93,3.92-2.3,6.46-2.3,11.77-.69,15.69-3.46S428.9,271,434,264.57s12-16.38,12-16.38l-8.5-20.63,17.65-7.39c3.75,10.73,7.28,21.69,8.61,25.25,2.77,7.38,3.46,10.15,2.54,11.31s-45.92,33.92-46.61,35.07-5.08,6.23-7.61,9.92a24.08,24.08,0,0,1-8.08,6.92c-1.39.7-6,2.77-6.69,3.46s-3.46,2.77-3.46.47,2.3-3.46,3.69-6a12.52,12.52,0,0,0,1.61-6.69c-.23-1.16-2.3.69-4.38,2.76s-5.08,6-6,5.77-1.62-1.61-.46-4.15S395.9,294.34,397.29,293Z" style="fill:#fff;stroke:#263238;stroke-linecap:round;stroke-linejoin:round"></path><path d="M406.29,300.57s-.93,4.15-2.77,6.46a20.39,20.39,0,0,1-4.39,3.92" style="fill:none;stroke:#263238;stroke-linecap:round;stroke-linejoin:round"></path><path d="M409.75,302.41a41.87,41.87,0,0,1-3.23,4.85" style="fill:none;stroke:#263238;stroke-linecap:round;stroke-linejoin:round"></path></g><g id="freepik--character-1--inject-92"><path d="M178.46,168.57s12.59,6.78,15.5,6.78,7.75-1.21,8.48-1.21,2.9,7.27,1.69,8.48-4.6,1.21-4.6,1.21a1.8,1.8,0,0,1-2.18,1.45c-1.94-.24-5.57-5.09-5.57-5.09s-16.47-.48-21.56-1.69-3.15-6.78-.73-8.72S178.46,168.57,178.46,168.57Z" style="fill:#fff;stroke:#263238;stroke-linecap:round;stroke-linejoin:round"></path><path d="M199.53,183.83s-2.91-1.94-3.15-5.09" style="fill:none;stroke:#263238;stroke-linecap:round;stroke-linejoin:round"></path><path d="M198.08,130.05s2.66,8,2.42,11.63-2.18,5.08-1,7,3.63,3.39,2.42,4.6-3.87,1.46-3.87,1.46-1.94,8.48-7.75,9-10.66-6.3-10.66-6.3a56.49,56.49,0,0,1-3.15-17.2c0-8.72,13.08-13.8,16.23-13.32A9.65,9.65,0,0,1,198.08,130.05Z" style="fill:#fff;stroke:#263238;stroke-linecap:round;stroke-linejoin:round"></path><path d="M196.87,147a3.09,3.09,0,0,0-3.88-1.46" style="fill:none;stroke:#263238;stroke-linecap:round;stroke-linejoin:round"></path><path d="M198.08,141.44a3.94,3.94,0,0,0-4.61.48" style="fill:none;stroke:#263238;stroke-linecap:round;stroke-linejoin:round"></path><path d="M193.47,156s-3.61.6-5.63-3.46" style="fill:none;stroke:#263238;stroke-linecap:round;stroke-linejoin:round"></path><path d="M163,236.88l11.14,10.9s-12.59,10.9-17.92,17-20.59,15.5-19.38,16.95,6.3,6.54,9,9.21a84.36,84.36,0,0,0,6.54,6.3c3.15,2.66,5.57,1.21,5.09-.73s-4.84-15-4.84-17.2,11.87-7.51,18.65-12.35,18.89-14.3,18.89-18.41-15.74-19.38-15.74-19.38Z" style="fill:#fff;stroke:#263238;stroke-linecap:round;stroke-linejoin:round"></path><path d="M145.75,290.9c-2.66-2.67-7.75-7.75-9-9.21-.89-1.07,7.15-6.47,13.58-11.67a17,17,0,0,0,4.5,6.82c-1.44,1-2.33,1.83-2.33,2.43,0,2.18,4.36,15.26,4.84,17.2s-1.94,3.39-5.09.73A84.36,84.36,0,0,1,145.75,290.9Z" style="fill:#fff;stroke:#263238;stroke-linecap:round;stroke-linejoin:round"></path><path d="M183.78,232s12.6,10.66,10.91,14.54-26.41,47.72-26.89,48.69,8.48,11.63,10.66,14.53-4.85,3.4-8.48,1.7-13.57-9.21-14.54-11.63,2.67-5.09,4.6-8.72,16.48-44.33,16.48-44.33l-12.36-9.45,15.26-7.51Z" style="fill:#fff;stroke:#263238;stroke-linecap:round;stroke-linejoin:round"></path><path d="M155.44,299.86c-1-2.42,2.67-5.09,4.6-8.72.39-.72,1.27-2.91,2.44-5.94a20.73,20.73,0,0,0,7.93,5.36c-1.54,2.75-2.52,4.51-2.61,4.7-.49,1,8.48,11.63,10.66,14.53s-4.85,3.4-8.48,1.7S156.41,302.28,155.44,299.86Z" style="fill:#fff;stroke:#263238;stroke-linecap:round;stroke-linejoin:round"></path><path d="M178,169.78s-10.17,16.71-11.63,24,1,20.11,2.43,23.5S185.24,232,185.24,232l-40,28.59s-11.15-13.08-18.9-24.23-4.28-26.64-1.21-34.15c7.39-18.06,19.14-26.41,24-32.7s12.6-11.63,19.38-8.73S178.94,163.72,178,169.78Z" style="fill:#FF81AE;stroke:#263238;stroke-linecap:round;stroke-linejoin:round"></path><path d="M148.83,226.09c-.43.68-.83,1.38-1.21,2.1" style="fill:none;stroke:#263238;stroke-linecap:round;stroke-linejoin:round"></path><path d="M165.15,211.28a50.6,50.6,0,0,0-13.93,11.49" style="fill:none;stroke:#263238;stroke-linecap:round;stroke-linejoin:round"></path><path d="M161.68,211.48s-13.44,4.28-20.37,12.43" style="fill:none;stroke:#263238;stroke-linecap:round;stroke-linejoin:round"></path><path d="M191.05,134.41s-9.89,10.51-9.69,20.59c.24,12.35,3.64,23.74-.48,24.22s-5.33-8-5.33-8-11.14,11.14-17,9-.48-15.26-6.54-16-18.17,5.81-30,0-8.72-13.57-4.84-17.2,9.2-4.61,5.57-8-9.45-4.12-8.72-14,15-7.75,16.47-6.54-7-8.23-2.66-9,8-1.21,14.53,6.06,10.42,14.53,18.65,17S191.05,134.41,191.05,134.41Z" style="fill:#263238;stroke:#263238;stroke-linecap:round;stroke-linejoin:round"></path><path d="M199.38,134.64s-9.69,5.81-19.62,7.75-21.07-.24-23.25-7,13.8-16.48,25.67-19.38,21.08,6.3,20.35,10.9S201.81,132.22,199.38,134.64Z" style="fill:#FF81AE;stroke:#263238;stroke-linecap:round;stroke-linejoin:round"></path><path d="M135.82,175.83s17.68-15.74,21.56-17,10.42,3.39,7.27,8.72-15.26,15.26-15.26,15.26,26.16,8.23,30.28,8.72,2.42,1.45,8-.49,8-4.36,8.72-2.9,3.39,11.14,1.7,11.63-5.09-.49-5.09-.49-5.57,2.42-7.51,1.45-4.6-2.42-4.6-2.42-33.67-4.6-41.18-8-9.69-4.6-9.21-8.24S135.82,175.83,135.82,175.83Z" style="fill:#fff;stroke:#263238;stroke-linecap:round;stroke-linejoin:round"></path><polyline points="192.99 199.33 196 197.48 196.49 198.45" style="fill:none;stroke:#263238;stroke-linecap:round;stroke-linejoin:round"></polyline><path d="M149.49,193.09a57.24,57.24,0,0,1-9.79-2.72c-7.51-3.39-9.69-4.6-9.21-8.24s5.33-6.3,5.33-6.3,17.68-15.74,21.56-17,10.42,3.39,7.27,8.72-15.26,15.26-15.26,15.26,2.76.87,6.63,2.06Z" style="fill:#FF81AE;stroke:#263238;stroke-linecap:round;stroke-linejoin:round"></path></g></svg>