<svg xmlns="http://www.w3.org/2000/svg" viewBox="0 0 500 500"><g id="freepik--Floor--inject-186"><path d="M464.07,469.16c0,.14-95.85.26-214.06.26s-214.08-.12-214.08-.26,95.83-.26,214.08-.26S464.07,469,464.07,469.16Z" style="fill:#263238"></path></g><g id="freepik--Plant--inject-186"><path d="M419.4,417.52c13.09-5.56,28.25-16.49,35-29.9a74.62,74.62,0,0,0-35,29.9" style="fill:#263238"></path><path d="M422.19,396.71c13.09-5.55,28.25-16.48,35-29.89a74.51,74.51,0,0,0-35,29.89" style="fill:#263238"></path><path d="M426,376.48c13.1-5.56,28.25-16.49,35-29.89a74.54,74.54,0,0,0-35,29.89" style="fill:#263238"></path><path d="M430.72,355.3C443.07,348,456.84,335,462,320.82a77,77,0,0,0-31.25,34.48" style="fill:#263238"></path><path d="M435.8,339.09c9-11.77,17.39-29.29,17.28-44.47a82.7,82.7,0,0,0-17.28,44.47" style="fill:#263238"></path><path d="M433.28,346.8c-1.82-15.92-8-35.93-18.52-47.87a97.27,97.27,0,0,0,18.52,47.87" style="fill:#263238"></path><path d="M429.05,364.21c-3.2-16.41-11.3-36.71-23.24-48.22a101,101,0,0,0,23.24,48.22" style="fill:#263238"></path><path d="M424.19,385.44C421,369,412.88,348.73,401,337.22a101,101,0,0,0,23.24,48.22" style="fill:#263238"></path><path d="M420.29,411.51c-3.21-16.41-11.31-36.71-23.24-48.22a101,101,0,0,0,23.24,48.22" style="fill:#263238"></path><path d="M436.41,336a.72.72,0,0,0-.1.25c-.07.19-.15.43-.25.73-.22.69-.53,1.64-.91,2.84-.79,2.47-1.85,6.06-3.1,10.52s-2.63,9.79-4.05,15.74-2.82,12.54-4.14,19.48-2.35,13.6-3.22,19.66-1.49,11.54-1.94,16.14-.77,8.34-.93,10.93c-.08,1.26-.14,2.25-.19,3,0,.32,0,.57,0,.78a.86.86,0,0,0,0,.26.82.82,0,0,0,.05-.26c0-.2,0-.46.08-.77.07-.72.17-1.71.29-3,.22-2.57.59-6.3,1.09-10.9s1.19-10.06,2.05-16.11,2-12.69,3.26-19.63,2.72-13.51,4.09-19.47,2.73-11.29,3.94-15.76,2.21-8.07,2.94-10.55l.82-2.87c.08-.3.14-.55.2-.75A1,1,0,0,0,436.41,336Z" style="fill:#263238"></path><path d="M413,426.18c5.55-11.62,9.59-28,6.87-40.73A72.23,72.23,0,0,0,413,426.18" style="fill:#455a64"></path><path d="M403.79,411.13c5.55-11.63,9.59-28,6.86-40.73a72.13,72.13,0,0,0-6.86,40.73" style="fill:#455a64"></path><path d="M395.51,395.82c5.55-11.63,9.59-28,6.86-40.73a72.13,72.13,0,0,0-6.86,40.73" style="fill:#455a64"></path><path d="M387.35,379.31c4.13-12.3,6.2-29.08,2-41.35a72.71,72.71,0,0,0-2,41.35" style="fill:#455a64"></path><path d="M382,365.79c-.41-13.09-4.26-29.49-12.39-39.16A71,71,0,0,0,382,365.79" style="fill:#455a64"></path><path d="M384.49,372.28c-9.63-9.08-24.27-18.11-37.43-19.29a72.49,72.49,0,0,0,37.43,19.29" style="fill:#455a64"></path><path d="M391,386.06c-10.79-8.56-26.83-16.58-40.69-16.61A75.58,75.58,0,0,0,391,386.06" style="fill:#455a64"></path><path d="M399.1,402.67c-10.79-8.55-26.82-16.58-40.68-16.61a75.58,75.58,0,0,0,40.68,16.61" style="fill:#455a64"></path><path d="M410.41,421.79c-10.79-8.56-26.83-16.58-40.69-16.62a75.52,75.52,0,0,0,40.69,16.62" style="fill:#455a64"></path><path d="M380.78,363.42s0,.07.06.21l.22.62.9,2.35c.79,2,2,5,3.53,8.58,3.08,7.19,7.65,17,13.32,27.54,2.84,5.25,5.69,10.19,8.35,14.62s5.19,8.37,7.36,11.63,4,5.87,5.24,7.65l1.48,2,.39.52c.09.12.14.18.15.17a1.75,1.75,0,0,0-.11-.2l-.35-.55c-.35-.51-.81-1.21-1.4-2.09-1.24-1.81-3-4.45-5.11-7.73s-4.6-7.24-7.26-11.67-5.47-9.38-8.31-14.63C393.57,392,389,382.2,385.81,375c-1.58-3.58-2.83-6.49-3.67-8.51l-1-2.32-.27-.6A.92.92,0,0,0,380.78,363.42Z" style="fill:#263238"></path><polygon points="386.58 427.59 441.74 427.59 441.74 438.22 436.07 438.22 431.3 468.54 397.2 468.54 392.29 438.22 386.58 438.22 386.58 427.59" style="fill:#FF725E"></polygon><path d="M386.58,438c0-.14,12.26-.26,27.38-.26s27.38.12,27.38.26-12.25.25-27.38.25S386.58,438.14,386.58,438Z" style="fill:#263238"></path></g><g id="freepik--Character--inject-186"><polygon points="70.61 468.56 61.66 468.56 58.34 428.25 68.88 428.25 70.61 468.56" style="fill:#263238"></polygon><polygon points="148.21 468.56 157.16 468.56 160.48 428.25 149.94 428.25 148.21 468.56" style="fill:#263238"></polygon><path d="M166.63,433.36l-115.24,2.7-3.5-74.43a12.77,12.77,0,0,1,12.76-13.38h98.19a12.78,12.78,0,0,1,12.75,13.66Z" style="fill:#FF725E"></path><path d="M172.54,361.38l-.32,0-.95,0-3.63.06-13.36,0c-11.28,0-26.86-.1-44.06.3-17.21.57-32.81.47-44.08.3-5.64-.09-10.21-.2-13.36-.3l-3.63-.12-.94,0a1.25,1.25,0,0,1-.32,0l.32,0h.94l3.63,0,13.36.13c11.28.08,26.86.12,44.07-.46,17.21-.39,32.79-.21,44.07-.13l13.36.11,3.63.05.95,0Z" style="fill:#263238"></path><path d="M89.92,349.41a26.67,26.67,0,0,0-7.48,2.25,26.31,26.31,0,0,0-6.21,4.74,6.9,6.9,0,0,1,1.43-1.86,17.29,17.29,0,0,1,9.92-5.06A6.68,6.68,0,0,1,89.92,349.41Z" style="fill:#263238"></path><path d="M137.32,214.08l14.08,25.73L172,228.27l10,3.31S156.76,259,152.65,260.43s-11.89,1.66-16.33-3.91c-4-5.07-15.84-31.67-15.84-31.67Z" style="fill:#ffbe9d"></path><path d="M195.31,197.28a1.67,1.67,0,0,0-1.52-.6L184,198a3,3,0,0,0-2.09,1.36L161.5,230.71l1.56.87,10.86-.34,21.7-33.57Z" style="fill:#263238"></path><path d="M188.36,201.35a.7.7,0,1,0,.07-.84A.62.62,0,0,0,188.36,201.35Z" style="fill:#fff"></path><path d="M195.62,197.67a12,12,0,0,1-1.9.37l-5.2.81-3.59.52a2.05,2.05,0,0,0-1.52.9l-1.16,1.8c-1.61,2.47-3.36,5.18-5.2,8-3.71,5.68-7.09,10.81-9.57,14.51L164.53,229a12.7,12.7,0,0,1-1.15,1.56,10.75,10.75,0,0,1,1-1.68l2.8-4.46c2.39-3.76,5.71-8.92,9.42-14.6,1.86-2.83,3.63-5.53,5.24-8,.41-.61.81-1.21,1.19-1.8a2.54,2.54,0,0,1,1.87-1.08l3.61-.46,5.23-.62A11.94,11.94,0,0,1,195.62,197.67Z" style="fill:#455a64"></path><path d="M184.73,208.86s-.87-.15-1.35,2.24-2,9.25-2,9.25l-4.58-2.43-5.74.75s-1.25,1.15-.33,1.78,4.54,1.27,4.54,1.27l2.67,3.85-7.67-3.7s-2.56.67-1.81,2.23,5.92,6.45,5.92,6.45l-3.84-.29L166,227.48s-1.4.07-.88,1.26,5.28,5.51,5.28,5.51l5.76,2.8s3.15-.25,3.45-1.18a11,11,0,0,0,.38-2.24s1.67-.45,2-1.26a5,5,0,0,0,.11-2.09s2.62.46,2.95-1a16.58,16.58,0,0,0-.22-5.46c-.26-1.13,1.12-11.58,1-11.89S186.38,208.17,184.73,208.86Z" style="fill:#ffbe9d"></path><path d="M179.76,235.89a3.27,3.27,0,0,1-1.5.46,10.13,10.13,0,0,1-7.27-1.73c-.79-.57-1.18-1-1.13-1.09s1.93,1.43,4.73,2.08S179.73,235.71,179.76,235.89Z" style="fill:#eb996e"></path><path d="M178.4,233.82c-.09.13-1.12-.4-2.21-1.3s-1.81-1.79-1.7-1.9,1,.57,2.08,1.45S178.49,233.68,178.4,233.82Z" style="fill:#eb996e"></path><path d="M181.43,228.85c-.09.13-1.11-.39-2.13-1.34s-1.62-1.91-1.5-2,.92.67,1.9,1.58S181.52,228.71,181.43,228.85Z" style="fill:#eb996e"></path><path d="M184.62,224.84c-.16.07-.74-1-1.65-2.19s-1.8-2-1.7-2.16,1.2.54,2.16,1.8A4.52,4.52,0,0,1,184.62,224.84Z" style="fill:#eb996e"></path><path d="M188.51,410.3a2,2,0,0,0,0-.95,6.32,6.32,0,0,0-1-2.41,3.85,3.85,0,0,0-.57-.69,1.08,1.08,0,0,0-1.08-.24.76.76,0,0,0-.47.47,1,1,0,0,0,0,.64,6.27,6.27,0,0,0,.5,1c.37.63.68,1.25,1.16,2a1.35,1.35,0,0,0,1.27.57,2.86,2.86,0,0,0,1.23-.54,10.67,10.67,0,0,0,1.8-1.67,10.52,10.52,0,0,0,.72-.93,3.1,3.1,0,0,0,.53-1.06,1,1,0,0,0-.54-1.16,1.21,1.21,0,0,0-1.15.26,7,7,0,0,0-1.2,1.36,9.2,9.2,0,0,0-1.19,2.3,2.22,2.22,0,0,0-.2.92,18.25,18.25,0,0,1,1.71-3,7.38,7.38,0,0,1,1.16-1.22c.23-.16.51-.27.68-.18a.5.5,0,0,1,.22.59,2.74,2.74,0,0,1-.47.86c-.21.3-.44.59-.68.88a11.27,11.27,0,0,1-1.72,1.57,2.28,2.28,0,0,1-1,.44.8.8,0,0,1-.77-.36c-.39-.57-.77-1.28-1.14-1.87-.17-.31-.38-.61-.48-.86s0-.45.15-.53c.43-.17.86.32,1.15.73A9,9,0,0,1,188.51,410.3Z" style="fill:#263238"></path><polygon points="163.94 411.14 151.74 437.59 132.05 428.49 144.67 395.76 163.94 411.14" style="fill:#ffbe9d"></polygon><path d="M154,435.82l-7.13,13.6s18.25,18.87,16.54,23.09l-42.9-20.57,11.78-27.27Z" style="fill:#455a64"></path><path d="M134.54,441.2a2,2,0,0,0-2.17,1.42,1.86,1.86,0,0,0,1.39,2.16,2.05,2.05,0,0,0,2.29-1.51,1.94,1.94,0,0,0-1.7-2.09" style="fill:#e0e0e0"></path><g style="opacity:0.6000000000000001"><path d="M120.55,451.94l1.78-3.42,40.47,21s1.51,1.74.65,3Z" style="fill:#fff"></path></g><path d="M147.71,449.53c-.1.21-1.2-.2-2.55,0s-2.33.8-2.48.62.74-1.23,2.38-1.42S147.85,449.36,147.71,449.53Z" style="fill:#263238"></path><path d="M151.32,453.55c0,.23-1.13.15-2.26.69s-1.79,1.39-2,1.28.23-1.36,1.66-2S151.41,453.35,151.32,453.55Z" style="fill:#263238"></path><path d="M151.29,460.16c-.21,0,0-1.23,1.09-2.12s2.29-.88,2.29-.66-.89.54-1.78,1.28S151.51,460.24,151.29,460.16Z" style="fill:#263238"></path><path d="M149.76,444.3c-.18.15-1-.6-2.22-1.09s-2.33-.56-2.35-.79,1.22-.55,2.65,0S149.94,444.18,149.76,444.3Z" style="fill:#263238"></path><path d="M158.06,432.29l32.17-80.49s-.73-13.74-3.26-18.07-79.15-29.64-79.15-29.64-19.51-4.7-32.53,0-22.77,21-21,30,9.43,15.67,9.43,15.67l56.35,1.68,30.71,11.2-20.68,59.27Z" style="fill:#263238"></path><polygon points="186.67 377.29 187.4 406.4 165.71 406.94 162.59 372 186.67 377.29" style="fill:#ffbe9d"></polygon><path d="M188.69,403.8l-.4,15.35s24.7,8.87,25,13.42l-47.57.48-1.47-29.67Z" style="fill:#455a64"></path><path d="M173.56,417.24a1.94,1.94,0,0,0-1.32,2.23,1.87,1.87,0,0,0,2.2,1.33,2.05,2.05,0,0,0,1.38-2.37,1.93,1.93,0,0,0-2.44-1.13" style="fill:#e0e0e0"></path><g style="opacity:0.6000000000000001"><path d="M165.75,433.05l.09-3.86,45.58,1s2.12.9,1.9,2.4Z" style="fill:#fff"></path></g><path d="M189.06,418.9c0,.23-1.17.35-2.3,1.11s-1.74,1.74-1.95,1.65.12-1.44,1.51-2.33S189.11,418.69,189.06,418.9Z" style="fill:#263238"></path><path d="M194.07,420.91c.06.23-.95.63-1.73,1.62s-1,2-1.22,2-.4-1.32.6-2.54S194.06,420.69,194.07,420.91Z" style="fill:#263238"></path><path d="M197,426.86c-.21.05-.54-1.11,0-2.39s1.67-1.79,1.77-1.6-.57.88-1,1.93S197.19,426.83,197,426.86Z" style="fill:#263238"></path><path d="M188.58,413.3c-.09.21-1.16-.1-2.47,0s-2.33.53-2.46.33.85-1,2.4-1.13S188.7,413.11,188.58,413.3Z" style="fill:#263238"></path><path d="M174,296.45s13-1,14.44,13.06,2.86,79.88,2.86,79.88L161,391.92l-4.7-67.23-48.43-20.6S165.33,294.65,174,296.45Z" style="fill:#263238"></path><path d="M120.46,277.43s7.88,22.11,6.38,24.57-21.77,12.6-21.77,12.6L54.33,334.09s-5.21-8.29-5.21-21,17.65-35.64,17.65-35.64Z" style="fill:#263238"></path><path d="M105.42,303a1.31,1.31,0,0,0,.24.13l.72.33,2.81,1.25,10.55,4.6,36.41,15.67-.17-.23c.46,6.64,1,13.81,1.47,21.23,1.24,17.35,2.38,33.34,3.28,46v.23l.23,0,22.12-1.94,6.09-.57,1.59-.16.54-.08a3.27,3.27,0,0,0-.55,0l-1.59.1-6.1.45-22.14,1.74.25.21c-.87-12.65-2-28.65-3.16-46-.52-7.42-1-14.59-1.5-21.23v-.16l-.15-.07L119.87,309l-10.61-4.44-2.84-1.17-.74-.29A1.8,1.8,0,0,0,105.42,303Z" style="fill:#455a64"></path><path d="M65.07,305.17a7,7,0,0,0,1.43-.38l3.82-1.24a84.31,84.31,0,0,1,12.78-3.23,37.65,37.65,0,0,1,13.09.17c3.3.69,5.2,1.63,5.24,1.52a5.88,5.88,0,0,0-1.32-.67,23.65,23.65,0,0,0-3.83-1.24A35.36,35.36,0,0,0,83,299.76a71.92,71.92,0,0,0-12.83,3.41c-1.6.57-2.88,1.06-3.77,1.41A8.83,8.83,0,0,0,65.07,305.17Z" style="fill:#455a64"></path><path d="M72.24,293.52a36.49,36.49,0,0,1,4.44,0c1.37.09,3,.3,4.8.51s3.79.46,5.85.85a27,27,0,0,1,9.94,3.69,32.37,32.37,0,0,1,3.45,2.77,4.14,4.14,0,0,0-.74-.95,15.31,15.31,0,0,0-2.49-2.16,25.49,25.49,0,0,0-10.06-3.91c-2.08-.39-4.08-.62-5.89-.81s-3.45-.35-4.84-.39a18.94,18.94,0,0,0-3.28.14A4.23,4.23,0,0,0,72.24,293.52Z" style="fill:#455a64"></path><path d="M94.65,115.88c-5.83-1-11,1.25-15.89,4.54a30.1,30.1,0,0,0-11.84,32.13,23.16,23.16,0,0,0,11.4,14.18c7.59,3.85,17.3,2.51,24.1-2.63s10.67-13.63,11-22.14A28.22,28.22,0,0,0,109,125.23a21.42,21.42,0,0,0-14.32-9.35" style="fill:#263238"></path><path d="M78.05,135.73c.86-2.24.52-4.73.86-7.1.75-5.21,5-9.39,9.8-11.42,4.52-1.89,10-1.48,15.48.28a20.78,20.78,0,0,1,9.73,6.34,16.33,16.33,0,0,1,3,14.7l-26.66-3.88c-2.5,2.06-5.06,4.17-8.09,5.32a5.55,5.55,0,0,1-2.78.44,2.48,2.48,0,0,1-2.07-1.71C77.08,137.69,77.68,136.7,78.05,135.73Z" style="fill:#263238"></path><path d="M104.76,124.85l-23.28,4.94A4.35,4.35,0,0,0,77.42,134l.28,50.39a15.71,15.71,0,0,0,3.28,9.5l2.22,2.86c5.07,6.53,15.32,5.87,19.19-1.43a5.48,5.48,0,0,0,.54-1.32c.07-.45.19-.75.21-1.13l.45-4.92c.22-4.48.26-9,.26-9s9.53-1.2,12-13.48c1.21-6.1,1.29-16.19,1.09-24.44C116.73,133.64,112.18,124.36,104.76,124.85Z" style="fill:#ffbe9d"></path><path d="M113.37,150.53a1.58,1.58,0,0,1-1.59,1.53,1.51,1.51,0,0,1-1.58-1.49,1.6,1.6,0,0,1,1.59-1.54A1.52,1.52,0,0,1,113.37,150.53Z" style="fill:#263238"></path><path d="M114.53,146.22c-.21.2-1.37-.73-3.08-.79s-3,.74-3.16.52.12-.46.68-.83a4.32,4.32,0,0,1,2.55-.68,4.15,4.15,0,0,1,2.43.89C114.46,145.76,114.63,146.14,114.53,146.22Z" style="fill:#263238"></path><path d="M98.09,150.14a1.58,1.58,0,0,1-1.59,1.54,1.51,1.51,0,0,1-1.57-1.49,1.58,1.58,0,0,1,1.58-1.54A1.52,1.52,0,0,1,98.09,150.14Z" style="fill:#263238"></path><path d="M98.34,145.81c-.21.2-1.37-.74-3.08-.8s-3,.74-3.16.53.12-.46.69-.84a4.41,4.41,0,0,1,2.54-.68,4.22,4.22,0,0,1,2.44.9C98.27,145.34,98.44,145.72,98.34,145.81Z" style="fill:#263238"></path><path d="M103.45,158.77a12.46,12.46,0,0,1,2.79-.39c.44,0,.85-.1.94-.39a2.26,2.26,0,0,0-.24-1.3c-.37-1.07-.76-2.19-1.16-3.37-1.61-4.79-2.75-8.72-2.56-8.78s1.66,3.77,3.26,8.56c.38,1.18.75,2.3,1.1,3.38a2.49,2.49,0,0,1,.16,1.72,1.12,1.12,0,0,1-.74.61,3.4,3.4,0,0,1-.74.07A10.63,10.63,0,0,1,103.45,158.77Z" style="fill:#263238"></path><path d="M103.85,179a31.39,31.39,0,0,1-16.37-5.05s3.82,8.71,16.23,8Z" style="fill:#eb996e"></path><path d="M102.57,162.85a3.06,3.06,0,0,0-2.71-1.24,2.8,2.8,0,0,0-2,1,1.78,1.78,0,0,0-.22,2,2.07,2.07,0,0,0,2.21.65,6.33,6.33,0,0,0,2.23-1.22,1.8,1.8,0,0,0,.51-.48.58.58,0,0,0,0-.64" style="fill:#eb996e"></path><path d="M98.39,159.76c.28,0,.21,1.84,1.74,3.22s3.51,1.25,3.52,1.51c0,.11-.46.34-1.29.33a4.61,4.61,0,0,1-2.94-1.16A4,4,0,0,1,98.08,161C98,160.19,98.26,159.74,98.39,159.76Z" style="fill:#263238"></path><path d="M98.24,140.75c-.18.46-1.88.17-3.89.33s-3.64.65-3.89.22c-.11-.2.18-.63.85-1.05a6.46,6.46,0,0,1,2.92-.89,6.38,6.38,0,0,1,3,.47C98,140.15,98.32,140.53,98.24,140.75Z" style="fill:#263238"></path><path d="M114.32,138.75c-.31.38-1.47-.07-2.88-.15s-2.62.16-2.88-.25c-.12-.2.09-.58.62-.93a4,4,0,0,1,2.38-.54,4,4,0,0,1,2.27.86C114.31,138.16,114.46,138.57,114.32,138.75Z" style="fill:#263238"></path><path d="M73.78,132.13c2.42-7.09,13-16.75,20.42-16.08L106,123.44a11.5,11.5,0,0,1-8,8.65c-2.13.6-4.67.73-6,2.52s-.62,4.54-1.85,6.42c-1.71,2.62-6.22,2.4-7.52,5.24-.56,1.24-.31,2.74-.9,4-.78,1.64-5,3.65-6.73,3.07s-1.67-3.53-2.2-5.09a8.1,8.1,0,0,1-.14-5.48C73.52,139.26,72.63,135.51,73.78,132.13Z" style="fill:#263238"></path><path d="M80.12,154.87c0-.92-1-3.13-1.85-3.31-2.41-.47-6.79-.44-7.07,5.72-.38,8.42,8.15,7.06,8.18,6.82S80,158.05,80.12,154.87Z" style="fill:#ffbe9d"></path><path d="M77,160.8s-.15.09-.41.19a1.46,1.46,0,0,1-1.09,0c-.88-.37-1.56-1.82-1.54-3.33a5,5,0,0,1,.51-2.09,1.7,1.7,0,0,1,1.16-1.07.73.73,0,0,1,.84.44c.1.24,0,.41.09.42s.18-.13.13-.48a.88.88,0,0,0-.3-.54,1.1,1.1,0,0,0-.81-.26,2.08,2.08,0,0,0-1.59,1.24,5,5,0,0,0-.61,2.32c0,1.7.77,3.33,2,3.74a1.59,1.59,0,0,0,1.35-.16C76.92,161,77,160.81,77,160.8Z" style="fill:#eb996e"></path><path d="M72,130h0c0-2.64-3.26-4.36-5.83-5a11,11,0,0,0-7.59,1.45c-1.35.74-2.71,1.8-3,3.31s1.15,3.31,2.59,2.77A5,5,0,1,0,63,141.06a11.14,11.14,0,0,1-4.38,6A12.51,12.51,0,0,0,72,130Z" style="fill:#263238"></path><path d="M66.14,143.34a7.5,7.5,0,0,1-.32-2.53,18.54,18.54,0,0,1,3.88-11.5,7.22,7.22,0,0,1,1.78-1.82,27.83,27.83,0,0,0-4.16,7.42C65.77,139.41,66.33,143.35,66.14,143.34Z" style="fill:#FF725E"></path><path d="M103.54,120.9c.77,3.43,6,7.82,8.27,10.49,4.36,5.09,5.22,6.78,5.18,18.17,2.06-3.93,3.64-7.79,3.48-12.22a18.38,18.38,0,0,0-4.88-12.08,14.28,14.28,0,0,0-12-4.36" style="fill:#263238"></path><path d="M139.25,214.58s-9.08-15.13-11.6-18.19a20.19,20.19,0,0,0-7.43-5.45,15.58,15.58,0,0,0-3.53-1.05L103.63,187s0,8.91-9.35,9.46S77.09,184,77.09,184,62,186.34,58.4,188.2,49.12,192.41,46,208l-2.19,15.28,26,2.4,2.49,38.64,12.89,9s35.75,9.29,38,9.9,3-57.52,3-57.52S135.45,219.79,139.25,214.58Z" style="fill:#263238"></path><path d="M122.13,208.08a5.59,5.59,0,0,1,.51,1.12c.29.73.67,1.8,1.09,3.14a61.12,61.12,0,0,1,2.66,21.72c-.08,1.4-.19,2.53-.31,3.31a5.64,5.64,0,0,1-.21,1.2,5.21,5.21,0,0,1,0-1.22c.05-.78.11-1.91.14-3.31a75.21,75.21,0,0,0-.5-10.9,74.4,74.4,0,0,0-2.14-10.69c-.37-1.35-.7-2.44-.94-3.18A5.83,5.83,0,0,1,122.13,208.08Z" style="fill:#455a64"></path><path d="M121,271.37l-49-10.66-2.26-35-21.77-2s.81,23.92,1.64,31c1.21,10.23,7.25,24.19,10.79,27s62.75,1.53,62.75,1.53Z" style="fill:#ffbe9d"></path><path d="M148.81,277.71a1.88,1.88,0,0,1-1.82,1.06,2,2,0,0,1-.47-.09c-1.09-.35-1-2.56-1-2.56l-5.18-.84s-6.75,4.35-9.15,7.23-8.52.55-8.52.55L120.55,272l9.55-8.63s-.58.51.08-1.1,3.65-1,3.65-1c.47-.8,2.43-1.08,2.43-1.08l8.38,1a5.73,5.73,0,0,1,4.19,2.64l3.55,5.61s1.87,4,1.57,5a1.68,1.68,0,0,1-2,1.1s-.41,2.66-1.11,2.75a5.79,5.79,0,0,1-2.07-.5Z" style="fill:#ffbe9d"></path><path d="M131,269.77c0,.09,1.12,0,2.91.06a25.45,25.45,0,0,1,6.83,1.28,24,24,0,0,1,3.53,1.51c1,.57,2.06,1,2.39,1.77a1,1,0,0,1-.09,1,1.39,1.39,0,0,1-.63.53,2,2,0,0,1-.74.11s.26.23.8.09a1.48,1.48,0,0,0,.81-.56,1.34,1.34,0,0,0,.2-1.31,2.74,2.74,0,0,0-1-1.18c-.46-.29-.94-.6-1.47-.89a22.53,22.53,0,0,0-3.59-1.58,21.83,21.83,0,0,0-7-1.15A9.45,9.45,0,0,0,131,269.77Z" style="fill:#eb996e"></path><path d="M130.4,275.11c0,.16,3.42,0,7.61.26s7.55.76,7.58.6a8.26,8.26,0,0,0-2.18-.53,47.59,47.59,0,0,0-5.37-.6,48.64,48.64,0,0,0-5.41,0A8.17,8.17,0,0,0,130.4,275.11Z" style="fill:#eb996e"></path><path d="M148.76,277.5a3.59,3.59,0,0,0,.11-.89,19.79,19.79,0,0,0,0-2.46,10.12,10.12,0,0,0-.23-1.7,5.1,5.1,0,0,0-.82-1.82,11.5,11.5,0,0,0-3.14-3.21,15.78,15.78,0,0,0-4-2,14.76,14.76,0,0,0-3.62-.55c-1,0-1.86,0-2.44,0a2.74,2.74,0,0,0-.9.09,28.75,28.75,0,0,0,3.32.28,15.63,15.63,0,0,1,3.5.64,16.85,16.85,0,0,1,3.85,2,11.72,11.72,0,0,1,3,3.06,6.39,6.39,0,0,1,1.09,3.28C148.7,276.21,148.65,277.5,148.76,277.5Z" style="fill:#eb996e"></path><path d="M136.67,262.3c0,.08,1.25.12,3.25.35s5,.43,6.77,3.09a28.34,28.34,0,0,1,4.22,6.57,17.53,17.53,0,0,1,.8,3.14,2.26,2.26,0,0,0,0-.89,8.7,8.7,0,0,0-.49-2.38,24.6,24.6,0,0,0-4.17-6.77,9,9,0,0,0-1.62-1.65,5.68,5.68,0,0,0-2-.92,17.5,17.5,0,0,0-3.55-.57A13.58,13.58,0,0,0,136.67,262.3Z" style="fill:#eb996e"></path><path d="M133,280.73a3.66,3.66,0,0,0,.5-.38l1.4-1.13a57.51,57.51,0,0,1,5.51-3.79l-.12,0,5.18.88-.18-.22a5.44,5.44,0,0,0,.1,1.27,2.37,2.37,0,0,0,.59,1.25,1.29,1.29,0,0,0,.68.32,2,2,0,0,0,.73,0,2.08,2.08,0,0,0,1.29-.72,1.7,1.7,0,0,0,.23-.3l.05-.09,0,0v0h0l-.3.11h0l.16.06c.22.09.44.17.67.24s.46.13.71.18a2.34,2.34,0,0,0,.39,0,1,1,0,0,0,.48-.09,1.56,1.56,0,0,0,.5-.69,4.66,4.66,0,0,0,.26-.71,12,12,0,0,0,.33-1.47l-.3.21a2,2,0,0,0,1.93-.66,1.59,1.59,0,0,0,.36-1,5.32,5.32,0,0,0-.18-1,29.78,29.78,0,0,0-1.43-3.73h0v0l-1.89-3-1.2-1.89a9.84,9.84,0,0,0-1.31-1.84,5.63,5.63,0,0,0-1.88-1.25,7.17,7.17,0,0,0-2.14-.44l-7.89-.89h-.06a7.11,7.11,0,0,0-1.39.37,2.33,2.33,0,0,0-1.2.84l.29-.09a2.87,2.87,0,0,0-2.69.15,3.36,3.36,0,0,0-1.33,2.12l.06-.11-6.58,5.92-1.77,1.63a3.82,3.82,0,0,0-.59.6,4.85,4.85,0,0,0,.66-.52l1.85-1.55,6.69-5.78.05,0,0-.07a3,3,0,0,1,1.17-1.85,2.48,2.48,0,0,1,2.27-.09l.18.07.11-.16a2,2,0,0,1,1-.64,6.78,6.78,0,0,1,1.29-.33h-.07l7.89.93a6.92,6.92,0,0,1,2,.42,5,5,0,0,1,1.7,1.13,9.6,9.6,0,0,1,1.24,1.75l1.2,1.9c.65,1,1.29,2,1.89,3l0,0a27.26,27.26,0,0,1,1.41,3.64,4.22,4.22,0,0,1,.17.89,1.07,1.07,0,0,1-.25.71,1.44,1.44,0,0,1-1.41.47l-.27,0,0,.25a12.58,12.58,0,0,1-.31,1.41,2.55,2.55,0,0,1-.54,1.12.67.67,0,0,1-.21,0l-.32,0c-.21,0-.43-.1-.65-.16l-.64-.22-.15-.06h0l-.31.11h0l0,0,0,.06a1.46,1.46,0,0,1-.17.24,1.65,1.65,0,0,1-1,.57,1.37,1.37,0,0,1-.57,0,.88.88,0,0,1-.48-.2,3.24,3.24,0,0,1-.56-2.17v-.19l-.18,0-5.2-.81h-.06l-.05,0a50.38,50.38,0,0,0-5.45,3.94c-.6.51-1.05.92-1.35,1.2A2.94,2.94,0,0,0,133,280.73Z" style="fill:#eb996e"></path><path d="M212.32,245.54l-64.47.53c-2.1,0-4.09,1-4.41,3.07l-7,47H103.18a1.94,1.94,0,0,0,0,3.87H209.26l7.25-49.6A4.24,4.24,0,0,0,212.32,245.54Z" style="fill:#e0e0e0"></path><path d="M212.32,245.54a3.57,3.57,0,0,1,1,.1,4.27,4.27,0,0,1,3.26,3.69,11.31,11.31,0,0,1-.24,2.65l-.93,6.55c-1.42,9.85-3.46,24.05-6,41.51l0,.17h-.17l-102.91.06h-2.77a2.65,2.65,0,0,1-1.46-.28,2.19,2.19,0,0,1,0-3.84,2.68,2.68,0,0,1,1.46-.27H136.4l-.25.22c2.53-16.83,4.9-32.53,7-46.62a3.66,3.66,0,0,1,1.2-2.45,4.81,4.81,0,0,1,2.46-1.09,20.87,20.87,0,0,1,2.6-.09l2.53,0,9.71-.06,17.25-.11,24.56-.13h8.84s-.19,0-.57,0l-1.7,0-6.57.09-24.56.27-17.25.18-9.71.09-2.53,0a23.4,23.4,0,0,0-2.53.09,4.35,4.35,0,0,0-2.25,1,3.18,3.18,0,0,0-1.05,2.2c-2.1,14.09-4.44,29.79-7,46.62l0,.22h-33a2.12,2.12,0,0,0-1.2.2,1.7,1.7,0,0,0-.77,2,1.74,1.74,0,0,0,.76.89,2.23,2.23,0,0,0,1.21.21h2.77l102.91.06-.2.17c2.59-17.45,4.69-31.64,6.15-41.49.37-2.45.7-4.64,1-6.53a11.93,11.93,0,0,0,.27-2.61,4.19,4.19,0,0,0-3.13-3.65A10,10,0,0,0,212.32,245.54Z" style="fill:#263238"></path><circle cx="177.35" cy="272.18" r="4.04" style="fill:#fff"></circle><path d="M139,299.57c.09,0,2.14-11.95,4.58-26.72s4.35-26.77,4.26-26.78-2.15,11.95-4.59,26.72S138.92,299.56,139,299.57Z" style="fill:#263238"></path></g></svg>