<svg xmlns="http://www.w3.org/2000/svg" xmlns:xlink="http://www.w3.org/1999/xlink" viewBox="0 0 500 500"><defs><clipPath id="freepik--clip-path--inject-139"><path d="M300.23,453.71s-2.57-25.57-12.17-49.65c-6.11-15.33-76.85,2.26-76.85,2.26s-11.17,29.73-8.1,57.39" style="fill:#fff;stroke:#263238;stroke-linecap:round;stroke-linejoin:round"></path></clipPath><clipPath id="freepik--clip-path-2--inject-139"><path d="M234.19,294a34.82,34.82,0,0,0,14.59,14.65s10.55-6.59,14.46-14.65a13.76,13.76,0,0,1,7.32,6.1s17.16-4.31,26.62,2.93c3.84,2.95-16.58,81.3-16.58,81.3,5.42,9.51,10.32,25,10.32,25-16.64,11.06-36.33,8-36.33,8l-3.93-11-3.57,11s-19.35.39-36.88-11A100.48,100.48,0,0,1,221,383.13S203.67,316,203.67,304.76s24.56-6.23,24.56-6.23S232.23,295.24,234.19,294Z" style="fill:#FF81AE;stroke:#263238;stroke-linecap:round;stroke-linejoin:round"></path></clipPath><clipPath id="freepik--clip-path-3--inject-139"><path d="M209.85,298.21s-11.31,1.67-12.51,16c-1.52,18.09,4.92,54.23,7.93,61.11s16.14,7.7,21.64,3.38,10.15-28.29,10.15-28.29l3.06,1.15,1.14-12.74L229,329.49l-6.36,9.88-3.59,3.47s3.95-16.9-1.37-27.58" style="fill:#FF81AE;stroke:#263238;stroke-linecap:round;stroke-linejoin:round"></path></clipPath><clipPath id="freepik--clip-path-4--inject-139"><path d="M297.18,303.05c9.27,6.11,5.58,74.45,1.46,81.06-3.42,5.47-33.61,5.2-33.61,5.2l-.49,2.45-12.37-2.12-2.63-14.8,8-1c2.93-4.66,21.35-8.39,21.35-8.39s1.71-12.73,1.93-18.22c.34-8.39,1.22-26.61,10.25-32" style="fill:#FF81AE;stroke:#263238;stroke-linecap:round;stroke-linejoin:round"></path></clipPath></defs><g id="freepik--background-simple--inject-139"><path d="M67.93,167.09s-27.88,72,11.3,144.5S199.11,422.39,263.7,455.14s131.66,16.8,163.53-36.84-11.84-91.93-11.9-168.42,11.45-96.74-30-161.36-143.06-78.93-219.9-31S67.93,167.09,67.93,167.09Z" style="fill:#fff;opacity:0.7000000000000001"></path><path d="M133.54,447.91c23.6,24.91,81.54,15.79,106.63,0,81.46-51.26,224.25-136.57,230.71-260.17,2.75-52.54-43.57-80.12-62.93-88.21C361.47,80.09,310.47,74.26,260.14,72c-52.57-2.36-109-.52-156.31,25.13C85.9,106.85,69,119.31,57.4,136.32c-11.77,17.28-18.54,37.85-20.33,58.62-2.9,33.5,6.11,67.09,19.74,97.83S88.62,352,105.3,381.17C116.18,400.22,113.66,426.92,133.54,447.91Z" style="fill:#FF81AE"></path><path d="M133.54,447.91c23.6,24.91,81.54,15.79,106.63,0,81.46-51.26,224.25-136.57,230.71-260.17,2.75-52.54-43.57-80.12-62.93-88.21C361.47,80.09,310.47,74.26,260.14,72c-52.57-2.36-109-.52-156.31,25.13C85.9,106.85,69,119.31,57.4,136.32c-11.77,17.28-18.54,37.85-20.33,58.62-2.9,33.5,6.11,67.09,19.74,97.83S88.62,352,105.3,381.17C116.18,400.22,113.66,426.92,133.54,447.91Z" style="fill:#fff;opacity:0.7000000000000001"></path></g><g id="freepik--Character--inject-139"><path d="M238.42,228s-15.06-4.88-23,4.39-3.09,28.16.81,42.48,3.42,21.16-1.95,23.6c0,0,11.56,1.31,13-12.85a13.68,13.68,0,0,1-1.46,8.3s8-.65,8-21.65S238.42,228,238.42,228Z" style="fill:#263238"></path><path d="M222,233.58s-5.54,1.64-7.12,11.07,9.1,29.82,7.12,44.28" style="fill:none;stroke:#fff;stroke-linecap:round;stroke-linejoin:round;opacity:0.2"></path><path d="M229.81,284.2s1.91-19.08-5.05-29.42" style="fill:none;stroke:#fff;stroke-linecap:round;stroke-linejoin:round;opacity:0.2"></path><path d="M273.28,302s-16.3,10.36-23.71,10.36-28.06-10.58-28.06-10.58c6.52-.69,14.76-4.12,16.29-8,.81-2,.29-8.59-.38-14.39-.14-1.18-.29-2.33-.43-3.41h0c-.5-3.78-1-6.63-1-6.63l9.54,1.45,15,2.29s-.91,5.34-1.31,11c0,.56-.07,1.12-.1,1.68a39.88,39.88,0,0,0,.25,7.75C260.63,300.41,273.28,302,273.28,302Z" style="fill:#fff;stroke:#263238;stroke-linecap:round;stroke-linejoin:round"></path><path d="M260.63,273s-.91,5.34-1.31,11c-14,4.87-22-7.65-22.33-8.13h0l8.59-5.18Z" style="fill:#263238"></path><path d="M300.23,453.71s-2.57-25.57-12.17-49.65c-6.11-15.33-76.85,2.26-76.85,2.26s-11.17,29.73-8.1,57.39" style="fill:#fff"></path><g style="clip-path:url(#freepik--clip-path--inject-139)"><path d="M298.25,440.58c-4.79-7.63-9.33-14.28-9.33-14.28s-9,2.37-9.32-1.32-5.13-4.75-5.13-4.75c-7.27,6.21-33.55,19-35.92,18.39s4-8.89,4-8.89c-12.14-1.06-27.7-14.77-27.7-14.77-4.79,3.61-5,15.29-6.85,22.41s.79,14.25-3.38,16.62a7.64,7.64,0,0,0-2,1.66c-.5-25.08,8.61-49.33,8.61-49.33s10.16-2.53,23.12-4.83l6.93,1.33,44.07-1.89a6.74,6.74,0,0,1,2.73,3.13A197.65,197.65,0,0,1,298.25,440.58Z" style="fill:#FF81AE;opacity:0.4"></path></g><path d="M300.23,453.71s-2.57-25.57-12.17-49.65c-6.11-15.33-76.85,2.26-76.85,2.26s-11.17,29.73-8.1,57.39" style="fill:none;stroke:#263238;stroke-linecap:round;stroke-linejoin:round"></path><path d="M224.76,255.75s-2.78-2.24-3.9-1.26a5.3,5.3,0,0,0-1.36,5.57c.92,2.07,4.24,5.46,4.72,7.62s2.26,4.45,3.72,2.81S224.76,255.75,224.76,255.75Z" style="fill:#fff;stroke:#263238;stroke-linecap:round;stroke-linejoin:round"></path><path d="M268.88,250.53s2.18-2.82,3.49-2.14a5.29,5.29,0,0,1,2.62,5.1c-.41,2.23-2.84,6.31-2.8,8.51s-1.16,4.86-3,3.61S268.88,250.53,268.88,250.53Z" style="fill:#fff;stroke:#263238;stroke-linecap:round;stroke-linejoin:round"></path><path d="M243.68,222.1c-31.14,3.68-19.5,37.87-12.19,50.5,2.56,4.44,15.8,10.69,20.84,10.09,4.69-.55,13.17-10.18,14.55-14.79C271.1,253.83,273.36,218.59,243.68,222.1Z" style="fill:#fff;stroke:#263238;stroke-linecap:round;stroke-linejoin:round"></path><path d="M241.43,248.33c-2.16,1.69-8.41-1.55-10.32,3.76" style="fill:none;stroke:#263238;stroke-linecap:round;stroke-linejoin:round"></path><path d="M237.34,255.11c.11,1,.69,1.68,1.29,1.61s1-.91.88-1.86-.69-1.68-1.29-1.61S237.22,254.16,237.34,255.11Z" style="fill:#263238"></path><path d="M250.94,244.74s7.81-1,10.91,3.71" style="fill:none;stroke:#263238;stroke-linecap:round;stroke-linejoin:round"></path><path d="M258.58,252c.12,1-.28,1.79-.88,1.86s-1.17-.64-1.29-1.6.28-1.79.88-1.86S258.47,251,258.58,252Z" style="fill:#263238"></path><path d="M248.87,253c-.78,2.56,3.44,7,2.36,8.36a15.07,15.07,0,0,0-1.72,2.82" style="fill:#fff;stroke:#263238;stroke-linecap:round;stroke-linejoin:round"></path><path d="M252.17,271.06s-5.37-1.88-8.79-1.88" style="fill:#fff;stroke:#263238;stroke-linecap:round;stroke-linejoin:round"></path><path d="M251.41,227.53s-3.28,13.83-15.14,19c0,0,7.83-7.63,9.87-14.62,0,0-10.18,13.23-19,21.18l-1.06,6.12s-5.42-1.71-7-7.14c-8.27-29.44,20.7-43.76,33.56-34.65,0,0,6.74-1.63,12.92,6,7.11,8.82,6.72,24.91,6.72,24.91s-1.47,4.88-4.05,5.85l-.07,3.43-1.69-5.58A29.74,29.74,0,0,1,263,243C262,238.63,262.79,228.34,251.41,227.53Z" style="fill:#263238"></path><path d="M234.19,294a34.82,34.82,0,0,0,14.59,14.65s10.55-6.59,14.46-14.65a13.76,13.76,0,0,1,7.32,6.1s17.16-4.31,26.62,2.93c3.84,2.95-16.58,81.3-16.58,81.3,5.42,9.51,10.32,25,10.32,25-16.64,11.06-36.33,8-36.33,8l-3.93-11-3.57,11s-19.35.39-36.88-11A100.48,100.48,0,0,1,221,383.13S203.67,316,203.67,304.76s24.56-6.23,24.56-6.23S232.23,295.24,234.19,294Z" style="fill:#FF81AE"></path><g style="clip-path:url(#freepik--clip-path-2--inject-139)"><path d="M288.34,401.87c1.59,4.32,2.58,7.45,2.58,7.45-16.64,11.06-36.33,8-36.33,8l-3.93-11-3.57,11s-19.35.39-36.88-11A93.44,93.44,0,0,1,215.53,393a95.08,95.08,0,0,1,5.42-9.82s-4.76-18.48-9.28-37.67c-4.1-17.39-8-35.36-8-40.7,0-11.23,24.56-6.23,24.56-6.23s4-3.29,6-4.51a34.82,34.82,0,0,0,14.59,14.65s10.55-6.59,14.46-14.65a13.76,13.76,0,0,1,7.32,6.1s17.16-4.31,26.62,2.93c1.85,1.42-1.94,20.39-6.37,39.65-4.74,20.66-10.21,41.65-10.21,41.65A126.55,126.55,0,0,1,288.34,401.87Z" style="fill:#fff;opacity:0.30000000000000004"></path><path d="M280.6,384.35a126.55,126.55,0,0,1,7.74,17.52c-11.31-1.37-22-7.29-22-7.29L263.93,397l-17.4-8.51a77.64,77.64,0,0,1-31,4.5,95.08,95.08,0,0,1,5.42-9.82s-4.76-18.48-9.28-37.67c2.14-14.27,4.76-25.82,7.51-23.87,6.68,4.75,7.2,24.33,7.2,24.33l12-25.51-5-11.18c-5.53,1.09-10.2,5.24-10.2,5.24l1.59-5.56,9.35-5.86,9.61,7.84,2.54,7.93a67.85,67.85,0,0,0-1.91,19.59c.72,9.7,2.57,13.25,2.57,13.25L242.51,353l-3.3,26.68,28.09-4.92c4.74-31.65,19.78-46.28,19.78-46.28s1.66,5.82,3.73,14.18C286.07,363.36,280.6,384.35,280.6,384.35Z" style="opacity:0.2"></path><path d="M253.48,312.34l9.27-9.29,10.53,5.21s.18,3.32,0,6.51c0,0-5.77-6.65-8.49-7.25C264.79,307.52,259.73,307.36,253.48,312.34Z" style="opacity:0.2"></path></g><path d="M234.19,294a34.82,34.82,0,0,0,14.59,14.65s10.55-6.59,14.46-14.65a13.76,13.76,0,0,1,7.32,6.1s17.16-4.31,26.62,2.93c3.84,2.95-16.58,81.3-16.58,81.3,5.42,9.51,10.32,25,10.32,25-16.64,11.06-36.33,8-36.33,8l-3.93-11-3.57,11s-19.35.39-36.88-11A100.48,100.48,0,0,1,221,383.13S203.67,316,203.67,304.76s24.56-6.23,24.56-6.23S232.23,295.24,234.19,294Z" style="fill:none;stroke:#263238;stroke-linecap:round;stroke-linejoin:round"></path><path d="M228.23,298.53s-3.86,5-3.47,10.38l9.35-5.86a64.75,64.75,0,0,1,12.15,10.58" style="fill:none;stroke:#263238;stroke-linecap:round;stroke-linejoin:round"></path><path d="M270.56,300.12a16.49,16.49,0,0,1,2.72,8.14,41.07,41.07,0,0,0-10.53-5.21s-7.07,5.21-9.64,9.93" style="fill:none;stroke:#263238;stroke-linecap:round;stroke-linejoin:round"></path><path d="M243.38,282.73s2.5-6,3.58-6.67c.82-.51,4.69.54,5.84,2.3.63,1,1.16,5.65,1.16,5.65-2.55.32-3.34-2.64-3.34-2.64l-1.84-.54-.59,3s6.47,2.13,7.32,3.5c.54.87.09,2.92.09,2.92s3.41,2.36,3,4.89a11.71,11.71,0,0,1-3.5,6.51c-1.08,9.43-6.32,14.08-6.32,14.08l-12.51,31.49-9.89-8.3,14.88-29Z" style="fill:#fff;stroke:#263238;stroke-linecap:round;stroke-linejoin:round"></path><path d="M255.1,301.67s0-3.83-.81-5.29" style="fill:none;stroke:#263238;stroke-linecap:round;stroke-linejoin:round"></path><path d="M254.7,297.54s1.91-.92,2.07-1.73" style="fill:none;stroke:#263238;stroke-linecap:round;stroke-linejoin:round"></path><path d="M255.6,290.27a25.44,25.44,0,0,0-5-1.34" style="fill:none;stroke:#263238;stroke-linecap:round;stroke-linejoin:round"></path><path d="M209.85,298.21s-11.31,1.67-12.51,16c-1.52,18.09,4.92,54.23,7.93,61.11s16.14,7.7,21.64,3.38,10.15-28.29,10.15-28.29l3.06,1.15,1.14-12.74L229,329.49l-6.36,9.88-3.59,3.47s3.95-16.9-1.37-27.58" style="fill:#FF81AE"></path><g style="clip-path:url(#freepik--clip-path-3--inject-139)"><path d="M209.85,298.21s-11.31,1.67-12.51,16c-1.52,18.09,4.92,54.23,7.93,61.11s16.14,7.7,21.64,3.38,10.15-28.29,10.15-28.29l3.06,1.15,1.14-12.74L229,329.49l-6.36,9.88-3.59,3.47s3.95-16.9-1.37-27.58" style="fill:#fff;opacity:0.30000000000000004"></path><path d="M237.06,350.43s-8.8-3.39-11-5.63l.36-8.83" style="fill:none;stroke:#263238;stroke-linecap:round;stroke-linejoin:round"></path><path d="M219.08,342.84s-8.09,4.7-8.88,11.71" style="fill:none;stroke:#263238;stroke-linecap:round;stroke-linejoin:round"></path><path d="M211.1,334.52s6.13,1.71,8.08,6.72" style="fill:none;stroke:#263238;stroke-linecap:round;stroke-linejoin:round"></path></g><path d="M209.85,298.21s-11.31,1.67-12.51,16c-1.52,18.09,4.92,54.23,7.93,61.11s16.14,7.7,21.64,3.38,10.15-28.29,10.15-28.29l3.06,1.15,1.14-12.74L229,329.49l-6.36,9.88-3.59,3.47s3.95-16.9-1.37-27.58" style="fill:none;stroke:#263238;stroke-linecap:round;stroke-linejoin:round"></path><path d="M215.12,374.58s6.17-2.09,7.88-2.09,11.17,3.8,13.23,4.05,15.48,0,15.48,0l1.44,10s-14.16-1-18.29,0-21.28-.06-22.38-.8c-2.12-1.41-6-3.11-7.32-5.67-.59-1.17-.87-5.67-.17-5.22,2.73,1.74,2.36,4,5.51,5.15s8,.1,10.59-.51c1.95-.46,2.86-1.38,1.34-2.84C221.23,375.51,216.57,377.09,215.12,374.58Z" style="fill:#fff;stroke:#263238;stroke-linecap:round;stroke-linejoin:round"></path><path d="M297.18,303.05c9.27,6.11,5.58,74.45,1.46,81.06-3.42,5.47-33.61,5.2-33.61,5.2l-.49,2.45-12.37-2.12-2.63-14.8,8-1c2.93-4.66,21.35-8.39,21.35-8.39s1.71-12.73,1.93-18.22c.34-8.39,1.22-26.61,10.25-32" style="fill:#FF81AE"></path><g style="clip-path:url(#freepik--clip-path-4--inject-139)"><path d="M297.18,303.05c9.27,6.11,5.58,74.45,1.46,81.06-3.42,5.47-33.61,5.2-33.61,5.2l-.49,2.45-12.37-2.12-2.63-14.8,8-1c2.93-4.66,21.35-8.39,21.35-8.39s1.71-12.73,1.93-18.22c.34-8.39,1.22-26.61,10.25-32" style="fill:#fff;opacity:0.30000000000000004"></path><path d="M265,389.31a84.31,84.31,0,0,0,.29-12.2l-9.59-1.06,3.27-.79" style="fill:none;stroke:#263238;stroke-linecap:round;stroke-linejoin:round"></path><path d="M278.89,365.46s7.4-1.8,11.35,1.36" style="fill:none;stroke:#263238;stroke-linecap:round;stroke-linejoin:round"></path><path d="M288.79,361.55s-5.69.92-7.53,3.43" style="fill:none;stroke:#263238;stroke-linecap:round;stroke-linejoin:round"></path></g><path d="M297.18,303.05c9.27,6.11,5.58,74.45,1.46,81.06-3.42,5.47-33.61,5.2-33.61,5.2l-.49,2.45-12.37-2.12-2.63-14.8,8-1c2.93-4.66,21.35-8.39,21.35-8.39s1.71-12.73,1.93-18.22c.34-8.39,1.22-26.61,10.25-32" style="fill:none;stroke:#263238;stroke-linecap:round;stroke-linejoin:round"></path><path d="M277.94,324.23s.15,9.24,3.32,15.56" style="fill:none;stroke:#263238;stroke-linecap:round;stroke-linejoin:round"></path><path d="M223.17,320.6a24.87,24.87,0,0,1-2.85,13.45" style="fill:none;stroke:#263238;stroke-linecap:round;stroke-linejoin:round"></path><path d="M250.85,328.64a1.32,1.32,0,1,1-1.31-1.31A1.32,1.32,0,0,1,250.85,328.64Z" style="fill:#263238"></path><path d="M250.85,355.86a1.32,1.32,0,1,1-1.31-1.31A1.32,1.32,0,0,1,250.85,355.86Z" style="fill:#263238"></path><path d="M252,399.1a1.32,1.32,0,1,1-1.32-1.31A1.32,1.32,0,0,1,252,399.1Z" style="fill:#263238"></path><path d="M270.2,425S251,442.12,232.75,445" style="fill:none;stroke:#263238;stroke-linecap:round;stroke-linejoin:round"></path><path d="M217.71,447.4s24.87,17.67,61.89,14.5" style="fill:none;stroke:#263238;stroke-linecap:round;stroke-linejoin:round"></path><g style="opacity:0.2"><path d="M248.4,219.74s-9.81,18.72-22.67,25.31" style="fill:none;stroke:#fff;stroke-linecap:round;stroke-linejoin:round"></path><path d="M239.42,220.43S235.69,229.17,223,231" style="fill:none;stroke:#fff;stroke-linecap:round;stroke-linejoin:round"></path><path d="M254.76,222.61A30.68,30.68,0,0,1,271,242.55" style="fill:none;stroke:#fff;stroke-linecap:round;stroke-linejoin:round"></path></g></g></svg>
