<svg xmlns="http://www.w3.org/2000/svg" viewBox="0 0 500 500"><g id="freepik--background-simple--inject-166"><path d="M408,128s-24-54-77-62-90,31-129,51c-20.42,10.47-43.75,6.41-65.43,11.48C67.24,144.69,41.12,246.24,70,304c25,50,69,76,136,82s114,13,174-36S436,199,408,128Z" style="fill:#FF81AE"></path><path d="M408,128s-24-54-77-62-90,31-129,51c-20.42,10.47-43.75,6.41-65.43,11.48C67.24,144.69,41.12,246.24,70,304c25,50,69,76,136,82s114,13,174-36S436,199,408,128Z" style="fill:#fff;opacity:0.7000000000000001"></path></g><g id="freepik--Wall--inject-166"><polyline points="393 197.33 393 206 428.33 206" style="fill:none;stroke:#263238;stroke-linecap:round;stroke-linejoin:round"></polyline><polyline points="410.33 208 410.33 218 388.33 218" style="fill:none;stroke:#263238;stroke-linecap:round;stroke-linejoin:round"></polyline><polyline points="393.67 221.33 393.67 229.33 422.33 229.33" style="fill:none;stroke:#263238;stroke-linecap:round;stroke-linejoin:round"></polyline><line x1="419.67" y1="218.67" x2="435.67" y2="218.67" style="fill:none;stroke:#263238;stroke-linecap:round;stroke-linejoin:round"></line><line x1="410.33" y1="233.33" x2="410.33" y2="244.67" style="fill:none;stroke:#263238;stroke-linecap:round;stroke-linejoin:round"></line><line x1="432.33" y1="204.67" x2="432.33" y2="196" style="fill:none;stroke:#263238;stroke-linecap:round;stroke-linejoin:round"></line><line x1="411.67" y1="193.33" x2="411.67" y2="184" style="fill:none;stroke:#263238;stroke-linecap:round;stroke-linejoin:round"></line><line x1="423.67" y1="194.67" x2="444.33" y2="194.67" style="fill:none;stroke:#263238;stroke-linecap:round;stroke-linejoin:round"></line><polyline points="355.67 102.67 355.67 111.33 391 111.33" style="fill:none;stroke:#263238;stroke-linecap:round;stroke-linejoin:round"></polyline><polyline points="373 113.33 373 123.33 351 123.33" style="fill:none;stroke:#263238;stroke-linecap:round;stroke-linejoin:round"></polyline><polyline points="356.33 126.67 356.33 134.67 385 134.67" style="fill:none;stroke:#263238;stroke-linecap:round;stroke-linejoin:round"></polyline><line x1="382.33" y1="124" x2="398.33" y2="124" style="fill:none;stroke:#263238;stroke-linecap:round;stroke-linejoin:round"></line><line x1="373" y1="138.67" x2="373" y2="150" style="fill:none;stroke:#263238;stroke-linecap:round;stroke-linejoin:round"></line><line x1="395" y1="110" x2="395" y2="101.33" style="fill:none;stroke:#263238;stroke-linecap:round;stroke-linejoin:round"></line><line x1="374.33" y1="98.67" x2="374.33" y2="89.33" style="fill:none;stroke:#263238;stroke-linecap:round;stroke-linejoin:round"></line><line x1="386.33" y1="100" x2="407" y2="100" style="fill:none;stroke:#263238;stroke-linecap:round;stroke-linejoin:round"></line><polyline points="251.67 322 251.67 330.67 287 330.67" style="fill:none;stroke:#263238;stroke-linecap:round;stroke-linejoin:round"></polyline><polyline points="269 332.67 269 342.67 247 342.67" style="fill:none;stroke:#263238;stroke-linecap:round;stroke-linejoin:round"></polyline><polyline points="252.33 346 252.33 354 281 354" style="fill:none;stroke:#263238;stroke-linecap:round;stroke-linejoin:round"></polyline><line x1="278.33" y1="343.33" x2="294.33" y2="343.33" style="fill:none;stroke:#263238;stroke-linecap:round;stroke-linejoin:round"></line><line x1="269" y1="358" x2="269" y2="369.33" style="fill:none;stroke:#263238;stroke-linecap:round;stroke-linejoin:round"></line><line x1="291" y1="329.33" x2="291" y2="320.67" style="fill:none;stroke:#263238;stroke-linecap:round;stroke-linejoin:round"></line><line x1="270.33" y1="318" x2="270.33" y2="308.67" style="fill:none;stroke:#263238;stroke-linecap:round;stroke-linejoin:round"></line><line x1="282.33" y1="319.33" x2="303" y2="319.33" style="fill:none;stroke:#263238;stroke-linecap:round;stroke-linejoin:round"></line><polyline points="95.67 284.67 95.67 293.33 131 293.33" style="fill:none;stroke:#263238;stroke-linecap:round;stroke-linejoin:round"></polyline><polyline points="113 295.33 113 305.33 91 305.33" style="fill:none;stroke:#263238;stroke-linecap:round;stroke-linejoin:round"></polyline><polyline points="96.33 308.67 96.33 316.67 125 316.67" style="fill:none;stroke:#263238;stroke-linecap:round;stroke-linejoin:round"></polyline><line x1="122.33" y1="306" x2="138.33" y2="306" style="fill:none;stroke:#263238;stroke-linecap:round;stroke-linejoin:round"></line><line x1="113" y1="320.67" x2="113" y2="332" style="fill:none;stroke:#263238;stroke-linecap:round;stroke-linejoin:round"></line><line x1="135" y1="292" x2="135" y2="283.33" style="fill:none;stroke:#263238;stroke-linecap:round;stroke-linejoin:round"></line><line x1="114.33" y1="280.67" x2="114.33" y2="271.33" style="fill:none;stroke:#263238;stroke-linecap:round;stroke-linejoin:round"></line><line x1="126.33" y1="282" x2="147" y2="282" style="fill:none;stroke:#263238;stroke-linecap:round;stroke-linejoin:round"></line><polyline points="293 346 293 354.67 328.33 354.67" style="fill:none;stroke:#263238;stroke-linecap:round;stroke-linejoin:round"></polyline><polyline points="310.33 356.67 310.33 366.67 288.33 366.67" style="fill:none;stroke:#263238;stroke-linecap:round;stroke-linejoin:round"></polyline><polyline points="293.67 370 293.67 378 322.33 378" style="fill:none;stroke:#263238;stroke-linecap:round;stroke-linejoin:round"></polyline><line x1="319.67" y1="367.33" x2="335.67" y2="367.33" style="fill:none;stroke:#263238;stroke-linecap:round;stroke-linejoin:round"></line><line x1="310.33" y1="382" x2="310.33" y2="393.33" style="fill:none;stroke:#263238;stroke-linecap:round;stroke-linejoin:round"></line><line x1="332.33" y1="353.33" x2="332.33" y2="344.67" style="fill:none;stroke:#263238;stroke-linecap:round;stroke-linejoin:round"></line><line x1="311.67" y1="342" x2="311.67" y2="332.67" style="fill:none;stroke:#263238;stroke-linecap:round;stroke-linejoin:round"></line><line x1="323.67" y1="343.33" x2="344.33" y2="343.33" style="fill:none;stroke:#263238;stroke-linecap:round;stroke-linejoin:round"></line><polyline points="163.67 346 163.67 354.67 199 354.67" style="fill:none;stroke:#263238;stroke-linecap:round;stroke-linejoin:round"></polyline><polyline points="181 356.67 181 366.67 159 366.67" style="fill:none;stroke:#263238;stroke-linecap:round;stroke-linejoin:round"></polyline><polyline points="164.33 370 164.33 378 193 378" style="fill:none;stroke:#263238;stroke-linecap:round;stroke-linejoin:round"></polyline><line x1="190.33" y1="367.33" x2="206.33" y2="367.33" style="fill:none;stroke:#263238;stroke-linecap:round;stroke-linejoin:round"></line><line x1="181" y1="382" x2="181" y2="393.33" style="fill:none;stroke:#263238;stroke-linecap:round;stroke-linejoin:round"></line><line x1="203" y1="353.33" x2="203" y2="344.67" style="fill:none;stroke:#263238;stroke-linecap:round;stroke-linejoin:round"></line><line x1="182.33" y1="342" x2="182.33" y2="332.67" style="fill:none;stroke:#263238;stroke-linecap:round;stroke-linejoin:round"></line><line x1="194.33" y1="343.33" x2="215" y2="343.33" style="fill:none;stroke:#263238;stroke-linecap:round;stroke-linejoin:round"></line><polyline points="71.67 197.33 71.67 206 107 206" style="fill:none;stroke:#263238;stroke-linecap:round;stroke-linejoin:round"></polyline><polyline points="89 208 89 218 67 218" style="fill:none;stroke:#263238;stroke-linecap:round;stroke-linejoin:round"></polyline><polyline points="72.33 221.33 72.33 229.33 101 229.33" style="fill:none;stroke:#263238;stroke-linecap:round;stroke-linejoin:round"></polyline><line x1="98.33" y1="218.67" x2="114.33" y2="218.67" style="fill:none;stroke:#263238;stroke-linecap:round;stroke-linejoin:round"></line><line x1="89" y1="233.33" x2="89" y2="244.67" style="fill:none;stroke:#263238;stroke-linecap:round;stroke-linejoin:round"></line><line x1="111" y1="204.67" x2="111" y2="196" style="fill:none;stroke:#263238;stroke-linecap:round;stroke-linejoin:round"></line><line x1="90.33" y1="193.33" x2="90.33" y2="184" style="fill:none;stroke:#263238;stroke-linecap:round;stroke-linejoin:round"></line><line x1="102.33" y1="194.67" x2="123" y2="194.67" style="fill:none;stroke:#263238;stroke-linecap:round;stroke-linejoin:round"></line><polyline points="129.67 118 129.67 126.67 165 126.67" style="fill:none;stroke:#263238;stroke-linecap:round;stroke-linejoin:round"></polyline><polyline points="147 128.67 147 138.67 125 138.67" style="fill:none;stroke:#263238;stroke-linecap:round;stroke-linejoin:round"></polyline><polyline points="130.33 142 130.33 150 159 150" style="fill:none;stroke:#263238;stroke-linecap:round;stroke-linejoin:round"></polyline><line x1="156.33" y1="139.33" x2="172.33" y2="139.33" style="fill:none;stroke:#263238;stroke-linecap:round;stroke-linejoin:round"></line><line x1="147" y1="154" x2="147" y2="165.33" style="fill:none;stroke:#263238;stroke-linecap:round;stroke-linejoin:round"></line><line x1="169" y1="125.33" x2="169" y2="116.67" style="fill:none;stroke:#263238;stroke-linecap:round;stroke-linejoin:round"></line><line x1="148.33" y1="114" x2="148.33" y2="104.67" style="fill:none;stroke:#263238;stroke-linecap:round;stroke-linejoin:round"></line><line x1="160.33" y1="115.33" x2="181" y2="115.33" style="fill:none;stroke:#263238;stroke-linecap:round;stroke-linejoin:round"></line><polyline points="351 264.67 351 273.33 386.33 273.33" style="fill:none;stroke:#263238;stroke-linecap:round;stroke-linejoin:round"></polyline><polyline points="368.33 275.33 368.33 285.33 346.33 285.33" style="fill:none;stroke:#263238;stroke-linecap:round;stroke-linejoin:round"></polyline><polyline points="351.67 288.67 351.67 296.67 380.33 296.67" style="fill:none;stroke:#263238;stroke-linecap:round;stroke-linejoin:round"></polyline><line x1="377.67" y1="286" x2="393.67" y2="286" style="fill:none;stroke:#263238;stroke-linecap:round;stroke-linejoin:round"></line><line x1="368.33" y1="300.67" x2="368.33" y2="312" style="fill:none;stroke:#263238;stroke-linecap:round;stroke-linejoin:round"></line><line x1="390.33" y1="272" x2="390.33" y2="263.33" style="fill:none;stroke:#263238;stroke-linecap:round;stroke-linejoin:round"></line><line x1="369.67" y1="260.67" x2="369.67" y2="251.33" style="fill:none;stroke:#263238;stroke-linecap:round;stroke-linejoin:round"></line><line x1="381.67" y1="262" x2="402.33" y2="262" style="fill:none;stroke:#263238;stroke-linecap:round;stroke-linejoin:round"></line><line x1="88" y1="400" x2="428" y2="400" style="fill:none;stroke:#263238;stroke-linecap:round;stroke-linejoin:round"></line></g><g id="freepik--Shadow--inject-166"><ellipse cx="155.33" cy="417" rx="54.33" ry="17" style="fill:#FF81AE"></ellipse><ellipse cx="155.33" cy="417" rx="54.33" ry="17" style="fill:#fff;opacity:0.5"></ellipse></g><g id="freepik--Character--inject-166"><polygon points="167.96 89.33 167.96 313.33 363.96 313.33 363.96 82 213.29 82 167.96 89.33" style="fill:#FF81AE;stroke:#263238;stroke-miterlimit:10"></polygon><path d="M341.23,227a7.81,7.81,0,0,0-7.53-7.79,1.77,1.77,0,0,1-.52.08,1.74,1.74,0,0,1-.56-.1h-.14v0a1.71,1.71,0,0,1,0-3.13v0h.08a1.85,1.85,0,0,1,.62-.12,1.72,1.72,0,0,1,.52.09,8.08,8.08,0,0,0,7.49-8V206a8.08,8.08,0,0,0-8.09-8.08h0a1.72,1.72,0,0,1,0-3.43h.1a7.49,7.49,0,0,0,7.4-7.49v-3.44a7.5,7.5,0,0,0-7.5-7.5H286.55a117.63,117.63,0,0,1,2.19-11.56c1.25-4.68,6.87-11.56,7.81-20s-5.31-24.69-12.81-26.25-9.06,4.37-8.75,12.81-11.25,23.43-19.06,31.25-17.41,20.47-17.41,20.47l.54,59.83,9.68,4.68c9.69,4.69,20.94,5,20.94,5H328a6.25,6.25,0,0,0,6.25-6.25v-1.56c0-3.45-1.19-5.37-3.65-6.25v0a1.71,1.71,0,0,1,0-3.4v0h2.82A7.81,7.81,0,0,0,341.23,227Z" style="fill:#fff;stroke:#263238;stroke-linecap:round;stroke-linejoin:round;stroke-width:5px"></path><rect x="197.81" y="175.32" width="42.49" height="79.68" rx="6.42" style="fill:#263238"></rect><path d="M201,192l-10.67-31.67a38.71,38.71,0,0,1-1-5.33c0-1.33,5.31-9,5.31-9s-1.24-3.58.78-4.2,6.69,3.89,7.16,4.67.31,2.33-.31,3.73-4.83,10.12-5.45,10.58,7.31,13.85,12.6,21.32,10,14.31,8.87,17.27-6.06.62-9.8-1.09a30.16,30.16,0,0,1-7.47-5.6Z" style="fill:#fff;stroke:#263238;stroke-linecap:round;stroke-linejoin:round"></path><line x1="196.31" y1="145.39" x2="198.46" y2="147" style="fill:none;stroke:#263238;stroke-linecap:round;stroke-linejoin:round"></line><path d="M120.35,262.87s2,6,7.61,7.36S148.63,253,148.63,253l.66-5.67L126.63,250S119.35,254.2,120.35,262.87Z" style="fill:#fff;stroke:#263238;stroke-linecap:round;stroke-linejoin:round"></path><path d="M205.29,84.67S200.63,95,200.63,96s.12,1.58,2.09,2,20.43,3.94,23.91,3c2.54-.65,4.66-13.33,4.66-13.33a35,35,0,0,0-6.33-1c-2.33,0-8.67-.67-8.67-.67l-2.66,2.33,1-3-4-.66-1,2.33L209,84.33Z" style="fill:#fff;stroke:#263238;stroke-miterlimit:10"></path><path d="M226.63,101c1-.26,2-2.53,2.78-5.13l-27.58-3.24a19.23,19.23,0,0,0-1.2,3.37c0,1,.12,1.58,2.09,2S223.15,101.89,226.63,101Z" style="fill:#263238;stroke:#263238;stroke-miterlimit:10"></path><path d="M125.54,310.42a1.51,1.51,0,0,1-1.38-2.09l89-211a1.5,1.5,0,0,1,2.77,1.17l-89,211A1.52,1.52,0,0,1,125.54,310.42Z" style="fill:#263238;stroke:#263238;stroke-miterlimit:10"></path><path d="M191.21,163s-2-4.75-1.12-12.32c.26-2.25,2.65-5.29,2.8-6.38s-.78-2.33.62-2.33,2.8,1.86,2.8,3.42-1.08,4-.93,4.67a14.88,14.88,0,0,1-.15,2.95" style="fill:#fff;stroke:#263238;stroke-linecap:round;stroke-linejoin:round"></path><path d="M167.51,159.21s4.5,4.86,5,6.12.36,4,.36,4.5,1.44,1.26,1.8,2.34,2.88,8.45,2.88,9.53-1.62,2.52-3.24,3.24l-3.6,1.62-.54,5.76-14,2.16-1.62-6.12s4.5-1.26,5-5.22-5.58-9.53-4.14-15.83S163.37,157.77,167.51,159.21Z" style="fill:#fff;stroke:#263238;stroke-linecap:round;stroke-linejoin:round"></path><path d="M166.43,159.57a24.14,24.14,0,0,0-1.26,5.22c0,1.62,3.78,1.26,3.78,3.24a12.7,12.7,0,0,1-1.44,4.68s2,2,1.62,3-2,2.16-2.52.9-2.88-.72-2,1.8a13,13,0,0,0,2.7,4.32,13.52,13.52,0,0,1-3.42,5.22c-2.7,2.7-6.84,3.6-7.92,2.88s-7-5.4-10.07-9.72-5.76-11-3.06-17.81a14.89,14.89,0,0,1,10.79-9c1.8-.36-3.06-.9-1.26-3.42s6.84-4.32,9.72-2.88,2,3.24,3.6,3.78,3.24-2.16,4.86.18S174,161.73,166.43,159.57Z" style="fill:#263238;stroke:#263238;stroke-linecap:round;stroke-linejoin:round"></path><path d="M165.17,164.79s-.67,7.84-4.9,12.61-11.66,5.83-11.66,5.83" style="fill:none;stroke:#fff;stroke-linecap:round;stroke-linejoin:round"></path><path d="M154.55,188.36s4.13.16,8.89-4.08" style="fill:none;stroke:#fff;stroke-linecap:round;stroke-linejoin:round"></path><path d="M168.59,178.1s-2.7-4.31-4.14-2.7.36,6.48,2.88,7.38,3.42-.72,3.42-.72" style="fill:#fff;stroke:#263238;stroke-linecap:round;stroke-linejoin:round"></path><path d="M148.44,198.26s.89-4,2.69-5.22,15.12-2.7,18.72-3.06,7.38,1.8,7.38,1.8l1.8,3.06Z" style="fill:#fff;stroke:#263238;stroke-linecap:round;stroke-linejoin:round"></path><path d="M122,248.67s-3.67,4-4.33,6-1,6.33,2.66,9,9.34,3.33,12,2,4.34-4,4.34-8.34a16.86,16.86,0,0,0-1.34-7S126.63,245,122,248.67Z" style="fill:#fff;stroke:#263238;stroke-linecap:round;stroke-linejoin:round"></path><path d="M196.63,194.67s2.66-4.67,7.66-5,7.67.33,11.34,3.66S222,201.67,220,205s-4,5-8,5.33-8-4.33-8-4.33Z" style="fill:#fff;stroke:#263238;stroke-linecap:round;stroke-linejoin:round"></path><path d="M172.29,404.33s10.67-.66,12.67,2,.83,6.6-6.32,10.57c-6.24,3.47-20.49,7-25.28,6-5.6-1.08-2.4-11.27-2.4-11.27S166.29,412.33,172.29,404.33Z" style="fill:#fff;stroke:#263238;stroke-linecap:round;stroke-linejoin:round"></path><path d="M184.84,406.2a16.11,16.11,0,0,1-4.46,7.05c-4.45,4-14.78,6.51-21.3,7.47a16.58,16.58,0,0,1-8.77-.94,3.81,3.81,0,0,0,3.05,3.16c4.79.93,19-2.57,25.28-6,7.15-4,8.32-7.9,6.32-10.57Z" style="fill:#263238;stroke:#263238;stroke-linecap:round;stroke-linejoin:round"></path><path d="M121.29,407.33s-1.33,6,.34,8.67,10.66,4,14,2.33,4.33-6,4.33-10S134.29,412.67,121.29,407.33Z" style="fill:#fff;stroke:#263238;stroke-linecap:round;stroke-linejoin:round"></path><path d="M120.84,413.18a6.43,6.43,0,0,0,.79,2.82c1.66,2.67,10.66,4,14,2.33a6.84,6.84,0,0,0,3.09-3.36C129,418.39,123.18,415.1,120.84,413.18Z" style="fill:#263238;stroke:#263238;stroke-linecap:round;stroke-linejoin:round"></path><path d="M140.29,265.67s-2.33,12.33-2,14.66,1.34,8,1.34,8-8,47.67-8.67,59.34-5.33,32.33-6.67,40-2,15-4,18,2.67,5.33,5,6.66,11.67-.33,13-1,2.34-4.66,2.67-7.66S148.63,382,150,370s9.67-56,10.33-59.33,2.34-13,2.34-13-2.34,40.33-2.67,51-6,24.33-7,33.66-2.33,17.67-2.33,21.34-1,10.33,1,11.66,5.66.34,11.33-1.33,9.33-5.33,9.67-8,1-4,1-5.67,6.33-36.66,10.33-55,6.67-42.66,4.33-56.66a169.33,169.33,0,0,1-2.33-25S155.29,272,140.29,265.67Z" style="fill:#263238;stroke:#263238;stroke-linecap:round;stroke-linejoin:round"></path><line x1="162.63" y1="297.67" x2="152.96" y2="291.33" style="fill:none;stroke:#fff;stroke-linecap:round;stroke-linejoin:round"></line><path d="M150,197.33s-21.33,6-22,11.67-5,28.67-6,35.33-3.67,12.34.67,15.67,10.33,1,11.66-1.67,4-9,4-9,.67,13,.67,15,.33,5,7,5.67,20,1.33,26.33-.33,13-2,13.67-6-1.33-17.34,0-25,2.33-20,2.33-20,23.67-9.67,27.34-11-.34-10.67-4.34-13-8.33-2.34-13.66-1.34-12-.33-15.34-.33S150,197.33,150,197.33Z" style="fill:#fff;stroke:#263238;stroke-linecap:round;stroke-linejoin:round"></path><polyline points="190.29 202.33 188.29 218.67 194.63 204.33" style="fill:none;stroke:#263238;stroke-linecap:round;stroke-linejoin:round"></polyline><line x1="138.29" y1="249.33" x2="135.29" y2="219.67" style="fill:none;stroke:#263238;stroke-linecap:round;stroke-linejoin:round"></line><line x1="135.63" y1="228" x2="130.29" y2="215.33" style="fill:none;stroke:#263238;stroke-linecap:round;stroke-linejoin:round"></line><path d="M185,236.33s-4.67,16.34-15,22.67" style="fill:none;stroke:#263238;stroke-linecap:round;stroke-linejoin:round"></path><path d="M175,251s-4.67,5-14.67,10" style="fill:none;stroke:#263238;stroke-linecap:round;stroke-linejoin:round"></path><path d="M168,89.33l4,19.34s20-14,44-21.34,47.76-5.41,47.76-5.41S218,76,198,80.67,168,89.33,168,89.33Z" style="fill:#fff;stroke:#263238;stroke-miterlimit:10"></path></g><g id="freepik--Plants--inject-166"><path d="M339.24,265.7a3.6,3.6,0,0,1,2.89-4.52c3-.41,6.74,3.65,7.92,6.11.1.21,1.3,3.71,1.25,3.71s-5.36.12-7.55-.83C341.89,269.35,339.74,267.8,339.24,265.7Zm77.67-9.31c-.44,2.1-2.55,3.72-4.39,4.58s-6.2,1-7.27,1c-.59.69-1.2,1.43-1.86,2.26-1.16,1.48-2.44,3.17-3.72,5.09-.34.51-.69,1.07-1,1.61.77-.79,1.84-1.86,2-2,2.13-1.7,7.24-3.72,9.79-2a3.62,3.62,0,0,1,.63,5.34c-1.37,1.66-4,2.13-6,2s-6.1-2-7-2.45c-.75,1.21-1.49,2.47-2.18,3.83a46,46,0,0,0-3.2,7.65l.15.08c.62-.82,2-2.5,2.1-2.62,1.93-1.93,6.79-4.5,9.5-3.11a3.61,3.61,0,0,1,1.22,5.24c-1.18,1.8-3.73,2.55-5.76,2.69-2.33.17-7.17-1.66-7.35-1.73a62.2,62.2,0,0,0-1.76,8.06c-.32,2-.55,4.06-.77,6.12.42-.58,2.19-2.79,2.33-2.94,1.93-1.92,6.79-4.5,9.51-3.1a3.62,3.62,0,0,1,1.21,5.24c-1.18,1.8-3.72,2.55-5.75,2.69-2.29.16-6.93-1.57-7.32-1.72-.1.94-.2,1.87-.29,2.81-.3,3.07-.59,6.14-1,9.17-.13,1-.3,2.07-.46,3.1.66-.85,1.89-2.39,2-2.51,1.93-1.92,6.79-4.5,9.5-3.1A3.6,3.6,0,0,1,401,313c-1.18,1.81-3.72,2.55-5.75,2.7s-6-1.23-7.08-1.63c-.28,1.71-.6,3.4-1,5.06-.19.7-.33,1.44-.55,2.11l-.6,2c-.46,1.36-.89,2.63-1.35,3.89-.23.64-.46,1.23-.69,1.85.54-1,1.42-2.49,1.52-2.62,1.61-2.19,6-5.47,8.92-4.5a3.61,3.61,0,0,1,2,5c-.89,2-3.29,3.08-5.28,3.53-2.18.5-6.88-.46-7.45-.58-.57,1.51-1.14,3-1.7,4.33-1.76,4.3-3.39,7.81-4.56,10.26-.07.13-.13.26-.19.39h8.55l-2.95,57.6a8.23,8.23,0,0,1-8.22,7.81h0a8.24,8.24,0,0,1-8.23-7.81l-2.95-57.6h9.18c0-.4-.09-.82-.14-1.3-.31-2.66-.8-6.46-1.6-11-.23-1.31-.49-2.69-.77-4.11-.6.08-5.34.68-7.48,0-1.95-.6-4.26-1.9-5-3.92a3.62,3.62,0,0,1,2.36-4.83c2.95-.75,7.11,2.85,8.56,5.16.09.15,1,2,1.43,3-.17-.86-.34-1.71-.54-2.6-.27-1.27-.6-2.62-.92-3.92-.18-.67-.37-1.35-.56-2s-.43-1.33-.65-2c-.34-1-.73-2-1.13-3-1.28.36-5.07,1.34-7,1.05s-4.5-1.22-5.54-3.11a3.62,3.62,0,0,1,1.6-5.13c2.81-1.19,7.46,1.74,9.25,3.8.05.07.39.54.77,1.11-.41-1-.82-1.93-1.27-2.89-1.29-2.74-2.68-5.48-4.06-8.23-.29-.58-.57-1.16-.86-1.73-1.08.3-5.18,1.4-7.22,1.11s-4.5-1.23-5.53-3.12a3.61,3.61,0,0,1,1.59-5.13c2.81-1.19,7.47,1.74,9.25,3.8.06.08.46.64.89,1.28-.73-1.5-1.44-3-2.09-4.54a61.85,61.85,0,0,1-2.9-8c-.38.11-5.16,1.5-7.43,1.17-2-.3-4.5-1.23-5.53-3.12a3.59,3.59,0,0,1,1.6-5.12c2.8-1.2,7.46,1.74,9.24,3.8.13.14,1.54,2.21,2,3l0-.1a47,47,0,0,1-1.39-8.25,63.94,63.94,0,0,1-.18-7.48c.06-2.32.25-4.43.44-6.3.11-1,.22-1.94.34-2.8l-.05,0c-.05,0-1.07-3.53-1.11-3.77-.45-2.68.26-8.14,3-9.54a3.61,3.61,0,0,1,5,2c.8,2-.07,4.51-1.13,6.25s-4.61,4.27-5.5,4.88c-.1.89-.21,1.85-.3,2.92-.14,1.87-.29,4-.29,6.29,0,.61,0,1.27,0,1.91.21-1.08.51-2.57.56-2.71.84-2.59,4-7.1,7-7.1a3.63,3.63,0,0,1,3.47,4.11c-.23,2.14-2.15,4-3.89,5s-6.2,1.68-7.16,1.8c0,1.42.12,2.88.29,4.39a46.46,46.46,0,0,0,1.55,8.15l.17,0c.07-1,.27-3.17.3-3.35.55-2.66,3.19-7.5,6.22-7.83a3.62,3.62,0,0,1,3.9,3.7c0,2.15-1.7,4.18-3.31,5.42-1.86,1.43-6.91,2.57-7.09,2.62a64,64,0,0,0,3,7.69c.85,1.85,1.79,3.69,2.74,5.53,0-.72.29-3.54.33-3.74.55-2.67,3.18-7.5,6.21-7.83a3.61,3.61,0,0,1,3.9,3.7c0,2.15-1.7,4.18-3.31,5.41-1.82,1.4-6.64,2.52-7,2.61.43.84.86,1.67,1.31,2.5,1.44,2.73,2.9,5.45,4.25,8.18.47.94.9,1.89,1.33,2.84.08-1.08.26-3,.29-3.2.55-2.67,3.19-7.5,6.22-7.83a3.61,3.61,0,0,1,3.9,3.69c0,2.16-1.7,4.18-3.31,5.42s-5.66,2.28-6.8,2.55c.71,1.58,1.37,3.17,2,4.77.23.69.52,1.38.71,2.06s.41,1.35.61,2c.37,1.4.71,2.69,1,4,.16.66.3,1.29.45,1.93-.08-1.11-.19-2.86-.18-3,.14-2.72,2-7.89,5-8.68a3.61,3.61,0,0,1,4.41,3.06,4.3,4.3,0,0,1,.05.8,14,14,0,0,1,1.88,6.82c0,.18-.28,2.23-.45,3.28.33-.81.65-1.62,1-2.47.48-1.21.94-2.52,1.4-3.78.22-.66.43-1.33.65-2s.37-1.35.57-2c.26-1,.48-2.06.71-3.11-1.27-.41-5-1.69-6.45-3s-3.07-3.5-2.9-5.65a3.62,3.62,0,0,1,4.17-3.39c3,.55,5.26,5.57,5.61,8.27,0,.08,0,.66,0,1.35.19-1,.38-2.06.53-3.12.44-3,.79-6,1.15-9.1.08-.64.17-1.28.24-1.92-1.07-.34-5.09-1.68-6.63-3.06s-3.07-3.5-2.9-5.65a3.61,3.61,0,0,1,4.17-3.39c3,.55,5.26,5.57,5.61,8.27,0,.1,0,.79,0,1.56.22-1.66.47-3.31.76-4.95a63.74,63.74,0,0,1,2-8.28c-.37-.12-5.13-1.6-6.84-3.13-1.51-1.35-3.07-3.5-2.89-5.65a3.6,3.6,0,0,1,4.16-3.39c3,.55,5.26,5.56,5.61,8.27,0,.19.07,2.69.05,3.58l0-.1a46.84,46.84,0,0,1,3.4-7.65,62.36,62.36,0,0,1,4-6.33c1.32-1.9,2.65-3.56,3.83-5,.65-.78,1.26-1.49,1.83-2.14H405c-.06,0,1.05-3.54,1.15-3.75,1.11-2.49,4.71-6.65,7.75-6.32A3.61,3.61,0,0,1,416.91,256.39Zm-35,73.19c-.52-.25-4.52-2.23-6.08-3.92a39.58,39.58,0,0,1-4.17,2c.35,1.57.68,3.11,1,4.55.9,4.55,1.48,8.38,1.85,11.07.08.57.15,1.08.21,1.55h.2c.21-.39.42-.82.67-1.3,1.21-2.39,2.9-5.84,4.73-10.06C380.84,332.22,381.39,330.92,381.93,329.58Zm16-58.23s1-3.56,1-3.8c.38-2.69-.48-8.13-3.23-9.46a3.61,3.61,0,0,0-4.91,2.18c-.74,2,.19,4.51,1.3,6.21C393.38,268.49,397.91,271.34,397.91,271.35Z" style="fill:#263238"></path></g></svg>