<svg xmlns="http://www.w3.org/2000/svg" viewBox="0 0 500 500"><g id="freepik--background-simple--inject-3"><path d="M452.28,118.76q-2.49-4.14-5.18-8.12c-24-35.26-64-59.4-102.78-70.33a220.85,220.85,0,0,0-51.9-8C178.07,28.21,136.07,122.49,99.23,146.79S5.85,212.62,13,299.84c5.38,66.32,43.11,129.73,112,158.58a194.27,194.27,0,0,0,23.91,8.25,227.93,227.93,0,0,0,50.5,7.77c52.09,2.32,94.39-10.24,135.76-41.86,9.62-7.35,19.19-15.64,31.67-16.55,9.07-.66,17.67,2.6,8.19,11.37-11.15,10.3,1.71,30.57,30,16.49,47.25-23.52,66.69-74.26,75.85-125.85C492.08,254.71,486.63,176,452.28,118.76Z" style="fill:#FF81AE"></path><path d="M452.28,118.76q-2.49-4.14-5.18-8.12c-24-35.26-64-59.4-102.78-70.33a220.85,220.85,0,0,0-51.9-8C178.07,28.21,136.07,122.49,99.23,146.79S5.85,212.62,13,299.84c5.38,66.32,43.11,129.73,112,158.58a194.27,194.27,0,0,0,23.91,8.25,227.93,227.93,0,0,0,50.5,7.77c52.09,2.32,94.39-10.24,135.76-41.86,9.62-7.35,19.19-15.64,31.67-16.55,9.07-.66,17.67,2.6,8.19,11.37-11.15,10.3,1.71,30.57,30,16.49,47.25-23.52,66.69-74.26,75.85-125.85C492.08,254.71,486.63,176,452.28,118.76Z" style="fill:#fff;opacity:0.7000000000000001"></path></g><g id="freepik--Clouds--inject-3"><path d="M465.13,148.51H287.57a.51.51,0,0,1-.44-.26.5.5,0,0,1,0-.5c.22-.36,5.42-8.94,11.66-10.72,3.18-.91,6.62,1.16,9.94,3.15S315,144,317,142.37c1-.81,2.1-1.89,3.25-3,3.89-3.85,8.73-8.64,16.26-9.32,4.91-.46,8.23,1.71,11.15,3.62s5,3.3,7.89,1.69c1.46-.84,2.88-3.18,4.68-6.14,5.12-8.45,13.69-22.58,36.74-19.29,28.33,4,35.26,23.23,36.17,26.23a14.8,14.8,0,0,0,4.67-1.31c3.19-1.28,6.8-2.73,12.64-.4,8.79,3.52,14.85,12.92,15.1,13.32a.49.49,0,0,1,0,.51A.51.51,0,0,1,465.13,148.51Zm-176.65-1h175.7c-1.65-2.33-7-9.33-14.11-12.16-5.46-2.18-8.73-.87-11.89.4a14.38,14.38,0,0,1-5.41,1.39.5.5,0,0,1-.49-.39c0-.21-5.55-21.59-35.45-25.86-22.41-3.2-30.43,10-35.75,18.81-1.87,3.09-3.35,5.53-5,6.5-3.36,1.92-6.07.15-8.93-1.72s-5.92-3.89-10.51-3.47c-7.17.65-11.87,5.3-15.64,9-1.18,1.16-2.29,2.26-3.34,3.1-2.53,2-5.86,0-9.4-2.11-3.14-1.89-6.39-3.84-9.14-3C294.26,139.37,289.91,145.37,288.48,147.51Z" style="fill:#263238"></path><path d="M161.18,211H33.91a.52.52,0,0,1-.44-.25.52.52,0,0,1,0-.51c.16-.26,3.91-6.45,8.44-7.74,2.34-.67,4.83.82,7.24,2.27s4.41,2.66,5.75,1.58c.72-.58,1.5-1.35,2.33-2.16,2.8-2.78,6.29-6.23,11.73-6.73,3.58-.32,6.08,1.31,8.09,2.62s3.55,2.33,5.5,1.21c1-.58,2.08-2.33,3.31-4.35,3.69-6.09,9.86-16.27,26.48-13.89,20.07,2.86,25.22,16.3,26,18.79a10.9,10.9,0,0,0,3.19-.92c2.31-.93,4.93-2,9.16-.29,6.35,2.54,10.71,9.32,10.9,9.6a.52.52,0,0,1,0,.51A.49.49,0,0,1,161.18,211ZM34.83,210h125.4c-1.34-1.84-5.07-6.51-9.89-8.44-3.86-1.55-6.18-.61-8.42.28a10.29,10.29,0,0,1-3.93,1,.5.5,0,0,1-.49-.38c0-.16-4-15.39-25.29-18.43-16-2.29-21.7,7.16-25.49,13.42-1.35,2.23-2.42,4-3.66,4.7-2.48,1.42-4.46.13-6.55-1.24s-4.21-2.76-7.45-2.46c-5.08.46-8.43,3.78-11.12,6.44-.84.83-1.64,1.62-2.4,2.23-1.89,1.51-4.32,0-6.9-1.5-2.22-1.34-4.52-2.72-6.44-2.17C38.94,204.34,36,208.28,34.83,210Z" style="fill:#263238"></path><path d="M209.91,75.51H129.27a.49.49,0,0,1-.44-.25.47.47,0,0,1,0-.5c.1-.17,2.52-4.16,5.45-5,1.56-.44,3.24.57,4.73,1.47s2.69,1.61,3.44,1a19.08,19.08,0,0,0,1.46-1.36c1.8-1.78,4-4,7.55-4.31a7.82,7.82,0,0,1,5.24,1.69c1.41.93,2.2,1.38,3.29.76a8.7,8.7,0,0,0,2-2.7c2.36-3.89,6.31-10.4,17-8.88,12.46,1.78,15.93,10,16.58,11.89a7.14,7.14,0,0,0,1.82-.56,7,7,0,0,1,5.94-.18c4.08,1.63,6.88,6,7,6.15a.5.5,0,0,1-.42.77Zm-79.71-1H209a15.6,15.6,0,0,0-6-5,6,6,0,0,0-5.2.18,6.76,6.76,0,0,1-2.56.65.49.49,0,0,1-.48-.38c-.1-.4-2.5-9.63-15.88-11.54-10-1.44-13.59,4.49-16,8.41a8.83,8.83,0,0,1-2.39,3c-1.67,1-3,.06-4.34-.79a6.82,6.82,0,0,0-4.6-1.53c-3.16.28-5.25,2.36-6.94,4-.54.53-1,1-1.53,1.43-1.3,1-3,0-4.58-.94-1.38-.82-2.8-1.68-3.94-1.35C132.72,71.25,131,73.36,130.2,74.51Z" style="fill:#263238"></path></g><g id="freepik--Sun--inject-3"><path d="M309.45,90.82a23.49,23.49,0,1,1,23.48-23.48A23.51,23.51,0,0,1,309.45,90.82Zm0-46a22.49,22.49,0,1,0,22.48,22.49A22.52,22.52,0,0,0,309.45,44.85Z" style="fill:#263238"></path><path d="M309.45,38.62a.5.5,0,0,1-.5-.5V28.77a.5.5,0,0,1,.5-.5.5.5,0,0,1,.5.5v9.35A.5.5,0,0,1,309.45,38.62Z" style="fill:#263238"></path><path d="M309.45,108a.5.5,0,0,1-.5-.5V98.12a.5.5,0,0,1,.5-.5.5.5,0,0,1,.5.5v9.34A.5.5,0,0,1,309.45,108Z" style="fill:#263238"></path><path d="M330.66,47.41a.51.51,0,0,1-.36-.15.51.51,0,0,1,0-.71l6.62-6.61a.5.5,0,0,1,.7,0,.5.5,0,0,1,0,.71L331,47.26A.49.49,0,0,1,330.66,47.41Z" style="fill:#263238"></path><path d="M281.62,96.44a.5.5,0,0,1-.35-.15.48.48,0,0,1,0-.7L287.88,89a.5.5,0,0,1,.71,0,.5.5,0,0,1,0,.7L282,96.29A.51.51,0,0,1,281.62,96.44Z" style="fill:#263238"></path><path d="M348.79,68.62h-9.35a.51.51,0,0,1-.5-.5.5.5,0,0,1,.5-.5h9.35a.5.5,0,0,1,.5.5A.5.5,0,0,1,348.79,68.62Z" style="fill:#263238"></path><path d="M279.45,68.62H270.1a.5.5,0,0,1-.5-.5.5.5,0,0,1,.5-.5h9.35a.5.5,0,0,1,.5.5A.5.5,0,0,1,279.45,68.62Z" style="fill:#263238"></path><path d="M337.27,96.44a.47.47,0,0,1-.35-.15l-6.62-6.61a.5.5,0,0,1,0-.7.5.5,0,0,1,.71,0l6.61,6.61a.5.5,0,0,1-.35.85Z" style="fill:#263238"></path><path d="M288.23,47.41a.5.5,0,0,1-.35-.15l-6.61-6.61a.5.5,0,0,1,0-.71.51.51,0,0,1,.71,0l6.61,6.61a.51.51,0,0,1,0,.71A.51.51,0,0,1,288.23,47.41Z" style="fill:#263238"></path></g><g id="freepik--Birds--inject-3"><path d="M364.87,195.22s4.61-1.15,6-.69-.92,2.1-.92,2.1a5,5,0,0,1,1.84,2.28c.69,1.62-2.3.92-2.3.92a1.6,1.6,0,0,1,0,2.08c-.92.93-5.07-3.69-5.07-3.69s-3,1.85-5.78,1.62-4.38-.93-6.23-3.7a28.78,28.78,0,0,0-3.23-4.15l-1.85-.69,2.77-1.62s2.31-2.08,4.62-1.85a6.8,6.8,0,0,1,3.23.93s1.39-3.7,3.46-5.08,8.54-3.23,10.62-4.39,1.62.7.93,1.85-2.77,2.08-3.7,2.54,4.85.69,3.93,1.85-4.39,1.61-4.39,1.61,3.23,1.16,2.54,2.08-3.46.92-3.46.92.92,2.31-.46,2.31H366S366.71,195.68,364.87,195.22Z" style="fill:#FF81AE"></path><path d="M369.16,202.54h0c-1.32,0-3.87-2.65-4.82-3.69a11.11,11.11,0,0,1-5.72,1.48c-2.8-.23-4.6-.9-6.6-3.91a31.05,31.05,0,0,0-3.1-4l-1.74-.66a.47.47,0,0,1-.32-.42.51.51,0,0,1,.24-.48l2.73-1.59c.34-.29,2.61-2.16,5-1.93a9.26,9.26,0,0,1,2.93.71c.48-1.11,1.72-3.64,3.44-4.79a36.06,36.06,0,0,1,6.14-2.59,41.64,41.64,0,0,0,4.51-1.81c.34-.19,1.38-.77,2-.16s-.18,2.38-.38,2.7a7.53,7.53,0,0,1-3,2.27l.26.05c1.69.34,2.81.61,3.06,1.3a.83.83,0,0,1-.16.82,6.13,6.13,0,0,1-3.12,1.49,2.92,2.92,0,0,1,1.44,1.34,1,1,0,0,1-.16.85c-.61.81-2.22,1-3.19,1.1a2.41,2.41,0,0,1-.11,1.83,1.15,1.15,0,0,1-1,.5h-.8a5.33,5.33,0,0,1,0,1.38,11.67,11.67,0,0,1,4.43-.28,1,1,0,0,1,.77.81c.1.63-.5,1.3-1,1.76a5.87,5.87,0,0,1,1.49,2.1,1.13,1.13,0,0,1-.09,1.28,2.16,2.16,0,0,1-1.82.47,1.85,1.85,0,0,1-.5,1.8A1,1,0,0,1,369.16,202.54Zm-4.75-4.82a.51.51,0,0,1,.37.17c1.83,2,3.88,3.76,4.39,3.65.56-.58-.05-1.36-.07-1.4a.5.5,0,0,1,0-.57.49.49,0,0,1,.53-.22,3.11,3.11,0,0,0,1.8,0h0a.55.55,0,0,0-.07-.25,4.56,4.56,0,0,0-1.63-2.05.51.51,0,0,1-.25-.41.52.52,0,0,1,.21-.43,3.77,3.77,0,0,0,1.15-1.18l-.1,0c-.74-.24-2.93.09-4.65.46a1.39,1.39,0,0,1-1.31.25.5.5,0,0,1-.38-.49.48.48,0,0,1,.38-.48c.1,0,.38-.1.76-.18a4,4,0,0,0,0-2,.5.5,0,0,1,.49-.6h1.39c.15,0,.18,0,.19-.06a2.52,2.52,0,0,0-.2-1.56.52.52,0,0,1,.05-.47.51.51,0,0,1,.42-.22c1,0,2.69-.22,3.06-.72a5.68,5.68,0,0,0-2.31-1.31.5.5,0,0,1,.1-1c1.21-.17,3.29-.67,4-1.34a10.25,10.25,0,0,0-2.23-.61c-1.27-.26-1.75-.35-1.81-.85a.58.58,0,0,1,.37-.62l.32-.16c.92-.44,2.62-1.28,3.17-2.19a3,3,0,0,0,.51-1.48,3.87,3.87,0,0,0-.76.33,40.92,40.92,0,0,1-4.66,1.87,38.48,38.48,0,0,0-5.93,2.49c-1.92,1.29-3.26,4.81-3.27,4.84a.51.51,0,0,1-.33.31.53.53,0,0,1-.44-.08,6.47,6.47,0,0,0-3-.83c-2.06-.21-4.21,1.7-4.23,1.72s-.05,0-.08.06l-1.86,1.09.86.32a.62.62,0,0,1,.17.11,29.71,29.71,0,0,1,3.3,4.24c1.79,2.68,3.31,3.26,5.86,3.47a10.78,10.78,0,0,0,5.46-1.55A.64.64,0,0,1,364.41,197.72Z" style="fill:#263238"></path><path d="M357.94,188.76s-1.84-3.7-.92-6,9.46-8.31,9.23-6a5.57,5.57,0,0,1-2.54,3.7s3.47-1.16,3.47-.23v.92s-3.93.92-5.78,2.54A18.92,18.92,0,0,0,357.94,188.76Z" style="fill:#263238"></path><path d="M357.94,189.26a.49.49,0,0,1-.44-.28c-.08-.16-1.94-3.92-.95-6.41.85-2.13,7.66-7.25,9.53-6.8a.9.9,0,0,1,.67,1,5,5,0,0,1-1.16,2.64,2.65,2.65,0,0,1,1.76.13.78.78,0,0,1,.32.65v.92a.5.5,0,0,1-.38.49s-3.83.91-5.56,2.43A18.15,18.15,0,0,0,358.4,189a.54.54,0,0,1-.45.29Zm7.78-12.54c-1.34,0-7.48,4.33-8.24,6.22-.56,1.4,0,3.45.5,4.64a16.51,16.51,0,0,1,3.1-4.28,15.87,15.87,0,0,1,5.59-2.55v-.39a8.77,8.77,0,0,0-2.8.56.5.5,0,0,1-.41-.9,5.07,5.07,0,0,0,2.29-3.29Z" style="fill:#263238"></path><circle cx="352.54" cy="190.56" r="0.69" style="fill:#263238"></circle><path d="M361.81,197.61c-.41,1.4-2.62,2-4.91,1.3s-3.83-2.37-3.42-3.77,2.62-2,4.92-1.3S362.23,196.21,361.81,197.61Z" style="fill:#fff"></path><path d="M358.79,199.44a6.91,6.91,0,0,1-2-.29,6.16,6.16,0,0,1-2.83-1.69,2.25,2.25,0,0,1,1.18-4,6.71,6.71,0,0,1,6.14,1.82,2.25,2.25,0,0,1-1.19,4A5.16,5.16,0,0,1,358.79,199.44Zm-2.29-5.64a4.64,4.64,0,0,0-1.2.15,2.05,2.05,0,0,0-1.58,1.26,2,2,0,0,0,.64,1.91A6.22,6.22,0,0,0,360,198.8a2,2,0,0,0,1.57-1.26h0a2,2,0,0,0-.63-1.92,5.86,5.86,0,0,0-2.61-1.54A6.62,6.62,0,0,0,356.5,193.8Z" style="fill:#263238"></path><path d="M135.27,136.06s-4.61-1.16-6-.69.92,2.09.92,2.09a5.11,5.11,0,0,0-1.84,2.29c-.7,1.62,2.3.92,2.3.92a1.6,1.6,0,0,0,0,2.08c.92.93,5.07-3.69,5.07-3.69s3,1.85,5.77,1.61,4.39-.92,6.24-3.69a28.78,28.78,0,0,1,3.23-4.15l1.85-.7-2.77-1.61s-2.31-2.08-4.62-1.85a6.89,6.89,0,0,0-3.23.92s-1.39-3.69-3.47-5.07-8.54-3.23-10.61-4.39-1.62.69-.93,1.85,2.77,2.08,3.7,2.54-4.85.69-3.93,1.84,4.39,1.62,4.39,1.62-3.23,1.15-2.54,2.08,3.46.92,3.46.92-.92,2.31.46,2.31h1.39S133.43,136.52,135.27,136.06Z" style="fill:#FF81AE"></path><path d="M131,143.37a1,1,0,0,1-.68-.26,1.85,1.85,0,0,1-.5-1.8,2.2,2.2,0,0,1-1.82-.47,1.15,1.15,0,0,1-.09-1.29,5.94,5.94,0,0,1,1.48-2.09c-.53-.46-1.13-1.13-1-1.76a1,1,0,0,1,.77-.81,11.85,11.85,0,0,1,4.43.27,5.25,5.25,0,0,1,0-1.37h-.8a1.15,1.15,0,0,1-1-.5,2.37,2.37,0,0,1-.11-1.83c-1-.07-2.58-.29-3.19-1.1a1,1,0,0,1-.16-.86,2.91,2.91,0,0,1,1.44-1.33,6.21,6.21,0,0,1-3.12-1.49.85.85,0,0,1-.16-.83c.25-.68,1.37-.95,3.06-1.29l.26-.06a7.45,7.45,0,0,1-3-2.27c-.19-.31-1.1-1.94-.38-2.69s1.64,0,2,.15a37.87,37.87,0,0,0,4.51,1.81,36.79,36.79,0,0,1,6.14,2.6c1.72,1.15,3,3.68,3.44,4.79a9.2,9.2,0,0,1,2.93-.72c2.35-.23,4.62,1.64,5,1.94l2.73,1.59a.51.51,0,0,1,.24.48.49.49,0,0,1-.32.42l-1.74.66a30.1,30.1,0,0,0-3.1,4c-2,3-3.8,3.68-6.6,3.91a11,11,0,0,1-5.72-1.48c-1,1-3.5,3.65-4.82,3.68Zm-.33-3.2a.5.5,0,0,1,.42.23.51.51,0,0,1,0,.58c-.06.08-.61.84,0,1.42.47.08,2.51-1.63,4.35-3.68a.53.53,0,0,1,.64-.09,10.85,10.85,0,0,0,5.46,1.55c2.54-.22,4.07-.79,5.86-3.48a30.54,30.54,0,0,1,3.29-4.23.58.58,0,0,1,.18-.11l.86-.32L149.79,131l-.08-.06s-2.18-1.93-4.23-1.72a6.62,6.62,0,0,0-3,.83.49.49,0,0,1-.44.07.46.46,0,0,1-.32-.3s-1.36-3.56-3.27-4.84a37.51,37.51,0,0,0-5.93-2.49,40.92,40.92,0,0,1-4.66-1.87c-.61-.34-.81-.3-.82-.3a4.35,4.35,0,0,0,.57,1.45c.55.91,2.26,1.75,3.17,2.19l.32.16a.58.58,0,0,1,.37.62c-.06.5-.54.59-1.81.85a10.43,10.43,0,0,0-2.23.6c.7.69,2.77,1.18,4,1.34a.52.52,0,0,1,.44.45.51.51,0,0,1-.33.52,5.2,5.2,0,0,0-2.31,1.34c.37.46,2,.69,3.06.69a.51.51,0,0,1,.42.22.52.52,0,0,1,.05.47,2.44,2.44,0,0,0-.2,1.56s0,.06.19.06h1.39a.53.53,0,0,1,.39.18.53.53,0,0,1,.1.42,4,4,0,0,0,0,2l.76.18a.5.5,0,0,1,.38.49.48.48,0,0,1-.38.48,1.37,1.37,0,0,1-1.31-.24c-1.72-.37-3.91-.71-4.65-.46a.33.33,0,0,0-.13.06,4.61,4.61,0,0,0,1.18,1.16.48.48,0,0,1,.21.43.51.51,0,0,1-.25.41,4.56,4.56,0,0,0-1.63,2,.43.43,0,0,0-.06.25,2.88,2.88,0,0,0,1.78,0Z" style="fill:#263238"></path><path d="M142.2,129.59s1.84-3.69.92-6-9.46-8.31-9.23-6a5.57,5.57,0,0,0,2.54,3.7s-3.47-1.16-3.47-.24V122s3.93.92,5.77,2.54A18.81,18.81,0,0,1,142.2,129.59Z" style="fill:#263238"></path><path d="M142.2,130.09h0a.5.5,0,0,1-.45-.28,18.3,18.3,0,0,0-3.33-4.92c-1.74-1.51-5.52-2.42-5.56-2.43a.49.49,0,0,1-.39-.48v-.93a.77.77,0,0,1,.33-.64,2.59,2.59,0,0,1,1.76-.13,5,5,0,0,1-1.16-2.64.9.9,0,0,1,.67-1c1.88-.47,8.67,4.67,9.52,6.8,1,2.49-.86,6.25-.94,6.41A.48.48,0,0,1,142.2,130.09Zm-8.74-8.5a15.91,15.91,0,0,1,5.6,2.55,16.64,16.64,0,0,1,3.1,4.27c.45-1.19,1.06-3.23.5-4.63-.77-1.91-7-6.27-8.27-6.22a5.19,5.19,0,0,0,2.29,3.3.49.49,0,0,1,.2.63.49.49,0,0,1-.61.27,8.87,8.87,0,0,0-2.81-.56Z" style="fill:#263238"></path><path d="M146.91,131.39a.69.69,0,1,0,1.38,0,.69.69,0,0,0-1.38,0Z" style="fill:#263238"></path><path d="M138.33,138.45c.41,1.4,2.61,2,4.91,1.3s3.83-2.37,3.42-3.77-2.62-2-4.92-1.3S137.91,137.05,138.33,138.45Z" style="fill:#fff"></path><path d="M141.37,140.28c-1.63,0-3-.65-3.28-1.76h0c-.46-1.53,1.15-3.36,3.58-4.08s4.77-.06,5.23,1.46a2.53,2.53,0,0,1-.75,2.4,6.31,6.31,0,0,1-2.84,1.69A7.13,7.13,0,0,1,141.37,140.28Zm-2.8-1.9c.37,1.26,2.44,1.77,4.6,1.13a5.73,5.73,0,0,0,2.61-1.55,2,2,0,0,0,.64-1.91c-.38-1.27-2.45-1.78-4.61-1.13s-3.62,2.19-3.24,3.46Z" style="fill:#263238"></path></g><g id="freepik--Plants--inject-3"><path d="M122.88,308a72.93,72.93,0,0,0-25.67-23.09c-16.54-8.58-23.6-17.05-15-16.55,10.41.62,34,8.89,44.72,38,4.63,12.55-4,1.65-4,1.65" style="fill:#FF81AE"></path><path d="M127.78,312.85c-1.43,0-3.88-2.79-5.3-4.57l0,0c-.09-.14-9.25-14.5-25.47-22.91-12-6.21-19.75-12.74-18.89-15.88.33-1.21,1.73-1.74,4.14-1.6,11,.64,34.54,9.48,45.16,38.31,1.89,5.14,1.52,6.2.83,6.59A.93.93,0,0,1,127.78,312.85Zm-4.5-5.17c1.85,2.32,3.94,4.31,4.47,4.18,0,0,.41-.73-1.3-5.37-10.44-28.34-33.53-37-44.28-37.66-1.83-.1-2.93.21-3.11.87-.6,2.19,6.25,8.44,18.38,14.73C113.59,292.81,122.84,307,123.28,307.68Z" style="fill:#263238"></path><path d="M122.33,304.67a.5.5,0,0,1-.45-.27c-.08-.17-8.38-16.49-23.67-24.29a.49.49,0,0,1-.22-.67.5.5,0,0,1,.67-.22c15.59,7.95,24,24.56,24.11,24.73a.49.49,0,0,1-.22.67A.44.44,0,0,1,122.33,304.67Z" style="fill:#263238"></path><path d="M132.82,318a66,66,0,0,1-2.07-31.13c3.14-16.55,1.06-26.29-3.37-19.91-5.38,7.74-12.68,29.13,2,53,6.34,10.3,3.43-2,3.43-2" style="fill:#FF81AE"></path><path d="M132.89,324.58c-.68,0-1.73-.8-3.92-4.36-14.57-23.67-7.68-45.37-2-53.55,1.26-1.81,2.44-2.5,3.5-2.06,2.74,1.15,3.05,10.34.77,22.35a66,66,0,0,0,2,30.87.14.14,0,0,1,0,.06c.65,2.74,1.17,6.11-.06,6.62A1,1,0,0,1,132.89,324.58Zm-3-59.09c-.54,0-1.27.62-2.06,1.76-5.55,8-12.27,29.22,2,52.44,2.29,3.73,3,3.88,3.09,3.89.27-.33,0-2.88-.57-5.44a67.14,67.14,0,0,1-2.08-31.37c2.54-13.37,1.4-20.57-.18-21.23A.46.46,0,0,0,129.85,265.49Z" style="fill:#263238"></path><path d="M130.44,316a.51.51,0,0,1-.46-.28c-.07-.16-7.17-15.45-4.11-31a.5.5,0,0,1,1,.19c-3,15.21,4,30.21,4,30.36a.5.5,0,0,1-.24.67A.52.52,0,0,1,130.44,316Z" style="fill:#263238"></path><path d="M123.55,300.67a66,66,0,0,1-2.07-31.14c3.14-16.54,1.06-26.28-3.37-19.9-5.38,7.74-12.68,29.12,2,53,6.34,10.3,3.43-1.95,3.43-1.95" style="fill:#FF81AE"></path><path d="M123.62,307.25c-.68,0-1.73-.8-3.92-4.36-14.57-23.67-7.68-45.38-2-53.55,1.26-1.81,2.44-2.5,3.5-2.06,2.73,1.15,3,10.34.77,22.35a66,66,0,0,0,2,30.87l0,.05c.65,2.74,1.17,6.12-.06,6.63A1,1,0,0,1,123.62,307.25Zm-3-59.09c-.54,0-1.27.62-2.06,1.75-5.55,8-12.27,29.22,2,52.45,2.29,3.72,3,3.88,3.09,3.88.27-.33,0-2.88-.57-5.43A67.14,67.14,0,0,1,121,269.44c2.54-13.37,1.39-20.58-.18-21.24A.59.59,0,0,0,120.58,248.16Z" style="fill:#263238"></path><path d="M122.33,304.67a.51.51,0,0,1-.47-.31c-.08-.22-8.31-21.45-5.26-37a.51.51,0,0,1,.59-.4.5.5,0,0,1,.39.59c-3,15.23,5.13,36.19,5.21,36.4a.5.5,0,0,1-.28.65A.57.57,0,0,1,122.33,304.67Z" style="fill:#263238"></path><path d="M331.2,289.89a73,73,0,0,1,25.66-23.09c16.55-8.58,23.6-17.05,15-16.54-10.41.61-34,8.88-44.72,38-4.62,12.56,4.05,1.65,4.05,1.65" style="fill:#FF81AE"></path><path d="M326.29,294.77a.82.82,0,0,1-.44-.11c-.69-.38-1.06-1.45.83-6.59,10.62-28.83,34.19-37.67,45.16-38.31,2.41-.14,3.81.39,4.14,1.6.86,3.14-6.9,9.67-18.89,15.88-16.22,8.42-25.38,22.77-25.47,22.92l0,0C330.17,292,327.72,294.77,326.29,294.77Zm46.29-44c-.21,0-.44,0-.68,0-10.75.63-33.84,9.31-44.28,37.66-1.71,4.63-1.31,5.32-1.26,5.39.49.11,2.58-1.89,4.43-4.21.44-.69,9.69-14.87,25.84-23.24,12.13-6.29,19-12.55,18.38-14.74C374.86,251,374,250.74,372.58,250.74ZM331.2,289.89h0Z" style="fill:#263238"></path><path d="M331.75,286.6a.46.46,0,0,1-.23-.06.5.5,0,0,1-.22-.67c.08-.16,8.52-16.78,24.11-24.72a.49.49,0,0,1,.67.21.51.51,0,0,1-.21.68c-15.29,7.79-23.59,24.12-23.68,24.28A.48.48,0,0,1,331.75,286.6Z" style="fill:#263238"></path><path d="M321.25,299.93a65.91,65.91,0,0,0,2.07-31.14c-3.14-16.55-1.06-26.29,3.37-19.91,5.39,7.75,12.68,29.13-2,53-6.34,10.3-3.43-1.95-3.43-1.95" style="fill:#FF81AE"></path><path d="M321.18,306.51a.86.86,0,0,1-.36-.08c-1.23-.51-.71-3.88-.06-6.62,0,0,0,0,0-.05a66.1,66.1,0,0,0,2.05-30.88c-2.28-12-2-21.2.77-22.34q1.61-.67,3.51,2.06c5.67,8.17,12.56,29.87-2,53.54C322.91,305.71,321.86,306.51,321.18,306.51Zm.55-6.44c-.6,2.55-.83,5.1-.49,5.46,0,0,.72-.19,3-3.91,14.3-23.23,7.58-44.47,2-52.45-.92-1.32-1.75-1.94-2.3-1.71-1.57.66-2.72,7.86-.18,21.23A67.21,67.21,0,0,1,321.73,300.07Z" style="fill:#263238"></path><path d="M323.64,297.92a.54.54,0,0,1-.22-.05.51.51,0,0,1-.24-.67c.07-.15,7-15.15,4-30.35a.49.49,0,0,1,.39-.59.5.5,0,0,1,.59.39c3.06,15.54-4,30.83-4.11,31A.51.51,0,0,1,323.64,297.92Z" style="fill:#263238"></path><path d="M330.52,282.59a65.85,65.85,0,0,0,2.07-31.13c-3.14-16.55-1.06-26.29,3.38-19.91,5.38,7.74,12.67,29.13-2,53-6.34,10.3-3.43-2-3.43-2" style="fill:#FF81AE"></path><path d="M330.45,289.17a.86.86,0,0,1-.36-.07c-1.22-.51-.71-3.88-.06-6.62,0,0,0,0,0-.06a66,66,0,0,0,2.05-30.87c-2.28-12-2-21.2.77-22.35,1.06-.44,2.24.25,3.51,2.07,5.67,8.17,12.56,29.87-2,53.54C332.18,288.37,331.13,289.17,330.45,289.17Zm.55-6.44c-.6,2.56-.83,5.1-.49,5.47,0,0,.72-.19,3-3.91,14.3-23.23,7.58-44.47,2-52.45-.92-1.32-1.75-1.94-2.3-1.71-1.57.66-2.72,7.86-.18,21.23A67.14,67.14,0,0,1,331,282.73Z" style="fill:#263238"></path><path d="M331.75,286.6a.43.43,0,0,1-.19,0,.5.5,0,0,1-.28-.64c.08-.21,8.21-21.18,5.21-36.41a.48.48,0,0,1,.39-.58.5.5,0,0,1,.59.39c3.06,15.51-5.18,36.75-5.26,37A.49.49,0,0,1,331.75,286.6Z" style="fill:#263238"></path></g><g id="freepik--House--inject-3"><polygon points="335.36 238.14 240.3 238.14 187.12 153.58 282.18 153.58 335.36 238.14" style="fill:#263238"></polygon><path d="M335.36,238.64H240.3a.48.48,0,0,1-.42-.23L186.7,153.84a.49.49,0,0,1,0-.51.52.52,0,0,1,.44-.25h95.06a.48.48,0,0,1,.42.23l53.18,84.57a.49.49,0,0,1,0,.51A.52.52,0,0,1,335.36,238.64Zm-94.78-1h93.88L281.9,154.08H188Z" style="fill:#263238"></path><rect x="129.64" y="235.24" width="97.43" height="86.06" style="fill:#c7c7c7"></rect><path d="M227.07,321.8H129.64a.5.5,0,0,1-.5-.5V235.24a.5.5,0,0,1,.5-.5h97.43a.5.5,0,0,1,.5.5V321.3A.5.5,0,0,1,227.07,321.8Zm-96.93-1h96.43V235.74H130.14Z" style="fill:#263238"></path><polygon points="324.5 321.3 227.07 321.3 227.07 235.24 276.6 156.48 324.5 235.24 324.5 321.3" style="fill:#fff"></polygon><path d="M324.5,321.8H227.07a.5.5,0,0,1-.5-.5V235.24a.5.5,0,0,1,.08-.27l49.53-78.75a.49.49,0,0,1,.42-.24h0a.49.49,0,0,1,.42.24L324.93,235a.48.48,0,0,1,.07.26V321.3A.5.5,0,0,1,324.5,321.8Zm-96.93-1H324V235.38l-47.41-77.95-49,77.95Z" style="fill:#263238"></path><rect x="238.44" y="250.66" width="9.74" height="29.23" style="fill:#c7c7c7"></rect><path d="M248.18,280.39h-9.74a.5.5,0,0,1-.5-.5V250.66a.5.5,0,0,1,.5-.5h9.74a.5.5,0,0,1,.5.5v29.23A.5.5,0,0,1,248.18,280.39Zm-9.24-1h8.74V251.16h-8.74Z" style="fill:#263238"></path><rect x="248.18" y="250.66" width="9.74" height="29.23" style="fill:#263238"></rect><path d="M257.93,280.39h-9.75a.5.5,0,0,1-.5-.5V250.66a.51.51,0,0,1,.5-.5h9.75a.51.51,0,0,1,.5.5v29.23A.5.5,0,0,1,257.93,280.39Zm-9.25-1h8.75V251.16h-8.75Z" style="fill:#263238"></path><rect x="257.93" y="250.66" width="9.74" height="29.23" style="fill:#c7c7c7"></rect><path d="M267.67,280.39h-9.74a.5.5,0,0,1-.5-.5V250.66a.5.5,0,0,1,.5-.5h9.74a.5.5,0,0,1,.5.5v29.23A.5.5,0,0,1,267.67,280.39Zm-9.24-1h8.74V251.16h-8.74Z" style="fill:#263238"></path><rect x="195.41" y="250.66" width="8.12" height="29.23" style="fill:#919191"></rect><path d="M203.53,280.39h-8.12a.5.5,0,0,1-.5-.5V250.66a.5.5,0,0,1,.5-.5h8.12a.5.5,0,0,1,.5.5v29.23A.5.5,0,0,1,203.53,280.39Zm-7.62-1H203V251.16h-7.12Z" style="fill:#263238"></path><rect x="203.53" y="250.66" width="8.12" height="29.23" style="fill:#263238"></rect><path d="M211.65,280.39h-8.12a.5.5,0,0,1-.5-.5V250.66a.5.5,0,0,1,.5-.5h8.12a.51.51,0,0,1,.5.5v29.23A.5.5,0,0,1,211.65,280.39Zm-7.62-1h7.12V251.16H204Z" style="fill:#263238"></path><rect x="211.65" y="250.66" width="8.12" height="29.23" style="fill:#919191"></rect><path d="M219.77,280.39h-8.12a.5.5,0,0,1-.5-.5V250.66a.5.5,0,0,1,.5-.5h8.12a.51.51,0,0,1,.5.5v29.23A.5.5,0,0,1,219.77,280.39Zm-7.62-1h7.12V251.16h-7.12Z" style="fill:#263238"></path><rect x="135.33" y="250.66" width="8.12" height="29.23" style="fill:#919191"></rect><path d="M143.45,280.39h-8.12a.5.5,0,0,1-.5-.5V250.66a.5.5,0,0,1,.5-.5h8.12a.51.51,0,0,1,.5.5v29.23A.5.5,0,0,1,143.45,280.39Zm-7.62-1H143V251.16h-7.12Z" style="fill:#263238"></path><rect x="143.45" y="250.66" width="8.12" height="29.23" style="fill:#263238"></rect><path d="M151.57,280.39h-8.12a.5.5,0,0,1-.5-.5V250.66a.5.5,0,0,1,.5-.5h8.12a.51.51,0,0,1,.5.5v29.23A.5.5,0,0,1,151.57,280.39Zm-7.62-1h7.12V251.16H144Z" style="fill:#263238"></path><rect x="151.57" y="250.66" width="8.12" height="29.23" style="fill:#919191"></rect><path d="M159.69,280.39h-8.12a.5.5,0,0,1-.5-.5V250.66a.5.5,0,0,1,.5-.5h8.12a.51.51,0,0,1,.5.5v29.23A.5.5,0,0,1,159.69,280.39Zm-7.62-1h7.12V251.16h-7.12Z" style="fill:#263238"></path><rect x="287.97" y="250.66" width="9.74" height="29.23" style="fill:#c7c7c7"></rect><path d="M297.71,280.39H288a.5.5,0,0,1-.5-.5V250.66a.5.5,0,0,1,.5-.5h9.74a.5.5,0,0,1,.5.5v29.23A.5.5,0,0,1,297.71,280.39Zm-9.24-1h8.74V251.16h-8.74Z" style="fill:#263238"></path><rect x="297.71" y="250.66" width="9.74" height="29.23" style="fill:#263238"></rect><path d="M307.45,280.39h-9.74a.5.5,0,0,1-.5-.5V250.66a.5.5,0,0,1,.5-.5h9.74a.5.5,0,0,1,.5.5v29.23A.5.5,0,0,1,307.45,280.39Zm-9.24-1H307V251.16h-8.74Z" style="fill:#263238"></path><rect x="307.45" y="250.66" width="9.74" height="29.23" style="fill:#c7c7c7"></rect><path d="M317.2,280.39h-9.75a.5.5,0,0,1-.5-.5V250.66a.51.51,0,0,1,.5-.5h9.75a.51.51,0,0,1,.5.5v29.23A.5.5,0,0,1,317.2,280.39Zm-9.25-1h8.75V251.16H308Z" style="fill:#263238"></path><rect x="268.48" y="202.76" width="6.5" height="17.86" style="fill:#c7c7c7"></rect><path d="M275,221.12h-6.5a.5.5,0,0,1-.5-.5V202.76a.5.5,0,0,1,.5-.5H275a.5.5,0,0,1,.5.5v17.86A.5.5,0,0,1,275,221.12Zm-6-1h5.5V203.26H269Z" style="fill:#263238"></path><rect x="274.98" y="202.76" width="6.5" height="17.86" style="fill:#263238"></rect><path d="M281.47,221.12H275a.5.5,0,0,1-.5-.5V202.76a.5.5,0,0,1,.5-.5h6.49a.5.5,0,0,1,.5.5v17.86A.5.5,0,0,1,281.47,221.12Zm-6-1H281V203.26h-5.49Z" style="fill:#263238"></path><rect x="281.47" y="202.76" width="6.5" height="17.86" style="fill:#c7c7c7"></rect><path d="M288,221.12h-6.5a.5.5,0,0,1-.5-.5V202.76a.5.5,0,0,1,.5-.5H288a.5.5,0,0,1,.5.5v17.86A.5.5,0,0,1,288,221.12Zm-6-1h5.5V203.26H282Z" style="fill:#263238"></path><polygon points="124.22 238.14 228.84 238.14 282.02 153.58 177.4 153.58 124.22 238.14" style="fill:#FF81AE"></polygon><path d="M228.84,238.64H124.22a.52.52,0,0,1-.44-.25.52.52,0,0,1,0-.51L177,153.31a.48.48,0,0,1,.42-.23H282a.51.51,0,0,1,.44.25.52.52,0,0,1,0,.51l-53.18,84.57A.51.51,0,0,1,228.84,238.64Zm-103.71-1H228.57l52.55-83.56H177.68Z" style="fill:#263238"></path><rect x="164.59" y="191.77" width="41.31" height="27.34" style="fill:#c7c7c7"></rect><path d="M205.91,219.62H164.59a.51.51,0,0,1-.5-.5V191.77a.51.51,0,0,1,.5-.5h41.32a.51.51,0,0,1,.5.5v27.35A.51.51,0,0,1,205.91,219.62Zm-40.82-1h40.32V192.27H165.09Z" style="fill:#263238"></path><polygon points="205.91 191.78 234.46 172.17 205.91 219.12 205.91 191.78" style="fill:#fff"></polygon><path d="M205.91,219.62l-.14,0a.5.5,0,0,1-.36-.48V191.77a.52.52,0,0,1,.21-.41l28.55-19.6a.5.5,0,0,1,.63,0,.52.52,0,0,1,.08.63l-28.55,46.95A.49.49,0,0,1,205.91,219.62Zm.5-27.58v25.29l26.41-43.43Z" style="fill:#263238"></path><polygon points="161.28 192.7 204.55 192.7 234.46 172.17 191.19 172.17 161.28 192.7" style="fill:#FF81AE"></polygon><path d="M204.55,193.2H161.28a.5.5,0,0,1-.48-.35.51.51,0,0,1,.2-.56l29.91-20.53a.47.47,0,0,1,.28-.09h43.27a.5.5,0,0,1,.28.91l-29.9,20.54A.6.6,0,0,1,204.55,193.2Zm-41.66-1H204.4l28.44-19.53H191.35Z" style="fill:#263238"></path><rect x="174.71" y="197.58" width="6.5" height="17.86" style="fill:#919191"></rect><path d="M181.2,215.94h-6.49a.5.5,0,0,1-.5-.5V197.58a.5.5,0,0,1,.5-.5h6.49a.5.5,0,0,1,.5.5v17.86A.5.5,0,0,1,181.2,215.94Zm-6-1h5.49V198.08h-5.49Z" style="fill:#263238"></path><rect x="181.2" y="197.58" width="6.5" height="17.86" style="fill:#263238"></rect><path d="M187.7,215.94h-6.5a.5.5,0,0,1-.5-.5V197.58a.5.5,0,0,1,.5-.5h6.5a.5.5,0,0,1,.5.5v17.86A.5.5,0,0,1,187.7,215.94Zm-6-1h5.5V198.08h-5.5Z" style="fill:#263238"></path><rect x="187.7" y="197.58" width="6.5" height="17.86" style="fill:#919191"></rect><path d="M194.19,215.94H187.7a.5.5,0,0,1-.5-.5V197.58a.5.5,0,0,1,.5-.5h6.49a.5.5,0,0,1,.5.5v17.86A.5.5,0,0,1,194.19,215.94Zm-6-1h5.49V198.08H188.2Z" style="fill:#263238"></path><polygon points="256.84 140.75 253.2 140.75 253.2 167.28 256.84 161.42 256.84 140.75" style="fill:#fff"></polygon><path d="M253.2,167.78h-.13a.51.51,0,0,1-.37-.49V140.75a.5.5,0,0,1,.5-.5h3.64a.5.5,0,0,1,.5.5v20.67a.5.5,0,0,1-.08.26l-3.63,5.87A.5.5,0,0,1,253.2,167.78Zm.5-26.53v24.28l2.64-4.25v-20Z" style="fill:#263238"></path><rect x="242.63" y="140.75" width="10.74" height="26.53" style="fill:#c7c7c7"></rect><path d="M253.37,167.78H242.63a.5.5,0,0,1-.5-.5V140.75a.5.5,0,0,1,.5-.5h10.74a.5.5,0,0,1,.5.5v26.53A.5.5,0,0,1,253.37,167.78Zm-10.24-1h9.74V141.25h-9.74Z" style="fill:#263238"></path><rect x="165.86" y="255.58" width="25.01" height="65.72" style="fill:#263238"></rect><path d="M190.86,321.8h-25a.5.5,0,0,1-.5-.5V255.58a.5.5,0,0,1,.5-.5h25a.5.5,0,0,1,.5.5V321.3A.5.5,0,0,1,190.86,321.8Zm-24.5-1h24V256.08h-24Z" style="fill:#263238"></path><path d="M189.54,288.36a2.21,2.21,0,1,0-2.21,2.21A2.21,2.21,0,0,0,189.54,288.36Z" style="fill:#fff"></path><path d="M187.33,291.07a2.72,2.72,0,1,1,2.71-2.71A2.71,2.71,0,0,1,187.33,291.07Zm0-4.43a1.72,1.72,0,1,0,1.71,1.72A1.71,1.71,0,0,0,187.33,286.64Z" style="fill:#263238"></path></g><g id="freepik--Hand--inject-3"><path d="M124.49,307.55S103.54,296.09,84,294s-30.88,7-30.78,10.94,13.67,4.26,16.25,4.92,18.3-3.69,41.51,1.83,26.19,6.65,26.19,6.65Z" style="fill:#fff"></path><path d="M137.16,318.8a.57.57,0,0,1-.18,0c-.13,0-3.34-1.22-26.12-6.64a105.2,105.2,0,0,0-36.91-2,18.22,18.22,0,0,1-4.62.21,31.84,31.84,0,0,0-3.26-.45c-5.28-.58-13.27-1.47-13.36-4.93,0-1.32.93-2.93,2.7-4.56C60.11,296,70.11,292,84,293.47c19.43,2.11,40.48,13.53,40.69,13.64l.08.06,12.67,10.75a.5.5,0,0,1-.32.88ZM87,308.32a104.26,104.26,0,0,1,24.1,2.84c14.32,3.41,20.94,5.14,23.92,6L124.2,308c-1.08-.59-21.46-11.46-40.27-13.51-13.6-1.48-23.3,2.46-27.85,6.63-1.51,1.39-2.39,2.81-2.37,3.8.06,2.59,8.14,3.49,12.47,4a33.35,33.35,0,0,1,3.4.47,19.39,19.39,0,0,0,4.27-.24A123.4,123.4,0,0,1,87,308.32Z" style="fill:#263238"></path><path d="M115.73,307.29s-21.86-9.61-41.52-10.05-30.16,9.61-29.72,13.55,14,3.06,16.61,3.49S79,309,102.62,312.54s26.66,4.37,26.66,4.37Z" style="fill:#fff"></path><path d="M129.27,317.41l-.13,0c-.13,0-3.43-.93-26.6-4.36a105.28,105.28,0,0,0-36.95,1.14,18.32,18.32,0,0,1-4.58.61c-.58-.1-1.83-.13-3.29-.17-5.31-.13-13.35-.33-13.73-3.77-.14-1.3.67-3,2.29-4.77,4.32-4.71,13.92-9.66,27.94-9.33,19.54.43,41.49,10,41.71,10.09l.09.05,13.54,9.62a.5.5,0,0,1,.17.62A.52.52,0,0,1,129.27,317.41Zm-42-6.51A104.75,104.75,0,0,1,102.69,312c14.56,2.16,21.3,3.32,24.35,3.89l-11.56-8.2c-1.13-.49-22.37-9.57-41.28-10-13.68-.33-23,4.45-27.18,9-1.38,1.51-2.14,3-2,4,.28,2.57,8.4,2.78,12.76,2.88a32.33,32.33,0,0,1,3.43.18,20.26,20.26,0,0,0,4.23-.6A109.92,109.92,0,0,1,87.31,310.9Z" style="fill:#263238"></path><path d="M395.07,299.2,364.72,291s-21.49-17.06-47.41-15.17-49.31,12-56.9,17.7-17.07,11.38-19,12.65-27.82-5.69-41.73,0-24.65,17.07-24.65,17.07-58.8-17.71-73.34-20.23-31.61-1.27-43.62,7.58S48.63,325.12,55,326.39s7.59-5.06,42.36,4.42S174.43,365,191.5,374.43,237,397.19,256,391.5s70.8-25.29,82.81-25.29,50.58,2.53,50.58,2.53Z" style="fill:#fff"></path><path d="M245.8,393.37c-17.21,0-38.46-9.57-54.54-18.5l-4.81-2.69C167.79,361.72,129,340,97.18,331.29c-24.9-6.79-32.57-5.43-37.16-4.62a13.05,13.05,0,0,1-5.17.21c-3.07-.62-5.1-2.21-5.58-4.37-.53-2.36.53-6.42,8.55-12.33,10.69-7.88,26.73-10.68,44-7.68,13.88,2.42,68.59,18.81,73.1,20.16,1.6-1.63,11.84-11.74,24.61-17,9.73-4,25.17-1.86,34.39-.6,3.31.46,6.73.92,7.25.65s1.21-.78,2.27-1.44c3.77-2.37,10.77-6.76,16.67-11.19,8.11-6.08,31.89-15.95,57.16-17.8,25-1.82,46.18,14.06,47.68,15.22l30.25,8.19a.49.49,0,0,1,.36.52l-5.69,69.54a.49.49,0,0,1-.53.46c-.38,0-38.68-2.53-50.54-2.53-8.23,0-35.8,9.45-57.95,17-10.13,3.48-18.88,6.48-24.72,8.23A36,36,0,0,1,245.8,393.37ZM67.19,325c5.64,0,14.57,1.07,30.25,5.35,31.91,8.7,70.8,30.5,89.5,41,1.76,1,3.37,1.89,4.81,2.68,19.33,10.75,46.14,22.42,64.09,17,5.82-1.74,14.57-4.74,24.69-8.21,22.22-7.62,49.87-17.1,58.27-17.1,11.16,0,45.59,2.21,50.12,2.5l5.61-68.63-29.94-8.11a.51.51,0,0,1-.18-.09c-.21-.17-21.63-16.94-47.07-15.07-25.06,1.83-48.61,11.59-56.63,17.6-5.93,4.45-13,8.86-16.74,11.23-1.05.66-1.83,1.15-2.25,1.43-.71.48-2.82.22-7.93-.49-9.13-1.25-24.4-3.34-33.88.54-13.65,5.58-24.37,16.84-24.48,16.95a.49.49,0,0,1-.51.13c-.59-.17-58.93-17.72-73.27-20.21-17-3-32.76-.23-43.24,7.49-8,5.89-8.54,9.62-8.17,11.31s2.15,3.07,4.81,3.61a12.08,12.08,0,0,0,4.8-.22A38.08,38.08,0,0,1,67.19,325Z" style="fill:#263238"></path><polygon points="378.56 341.02 352.48 366.06 389.38 368.74 378.56 341.02" style="fill:#263238"></polygon><path d="M389.38,369.24h0l-36.89-2.68a.51.51,0,0,1-.44-.33.52.52,0,0,1,.13-.53l26.08-25a.51.51,0,0,1,.81.18l10.81,27.72a.51.51,0,0,1-.06.48A.51.51,0,0,1,389.38,369.24Zm-35.74-3.6,35,2.55L378.37,341.9Z" style="fill:#263238"></path><path d="M178.8,345.84c-4.15,0-6.74-1.24-7.62-4.78a22.72,22.72,0,0,1,3.49-18.14.5.5,0,0,1,.79.61c-.05.07-5.69,7.65-3.31,17.29,1.38,5.55,7.52,4.57,21.27,1.82,4.43-.89,5.89-1.65,7.17-2.33,2.52-1.32,4.18-2.2,24.39-2.49,22.13-.31,45-.85,57.24-1.14,4.61-.1,7.4-.17,7.89-.17a.5.5,0,0,1,0,1c-.48,0-3.42.07-7.87.17-12.27.29-35.11.83-57.24,1.14-20,.29-21.56,1.12-23.95,2.38a23.38,23.38,0,0,1-7.43,2.42C187.49,344.84,182.52,345.84,178.8,345.84Z" style="fill:#263238"></path><path d="M174.85,345.17h-.08a.5.5,0,0,1-.42-.57,10.21,10.21,0,0,1,5.09-6.81c.32-.17,7.45-3.84,12.09-3.84a8.77,8.77,0,0,1,7.4,4.65,2.39,2.39,0,0,1,0,2.63.5.5,0,0,1-.77-.64c.25-.3.21-.87-.11-1.56a7.82,7.82,0,0,0-6.5-4.08c-4.4,0-11.54,3.68-11.61,3.71a9.37,9.37,0,0,0-4.58,6.09A.5.5,0,0,1,174.85,345.17Z" style="fill:#263238"></path><path d="M214.14,337.63a.5.5,0,0,1-.5-.5v-5.38a.5.5,0,0,1,.5-.5.5.5,0,0,1,.5.5v5.38A.5.5,0,0,1,214.14,337.63Z" style="fill:#263238"></path><path d="M217.1,334.67H217a.5.5,0,0,1-.44-.56,21.25,21.25,0,0,0-.26-7.34.51.51,0,0,1,.36-.62.5.5,0,0,1,.61.35,22,22,0,0,1,.28,7.73A.5.5,0,0,1,217.1,334.67Z" style="fill:#263238"></path><path d="M380.89,286.63h40.77a0,0,0,0,1,0,0V397.9a0,0,0,0,1,0,0H380.89a4.49,4.49,0,0,1-4.49-4.49V291.12A4.49,4.49,0,0,1,380.89,286.63Z" style="fill:#FF81AE"></path><path d="M421.66,398.4H380.89a5,5,0,0,1-5-5V291.12a5,5,0,0,1,5-5h40.77a.5.5,0,0,1,.5.5V397.9A.5.5,0,0,1,421.66,398.4ZM380.89,287.13a4,4,0,0,0-4,4V393.41a4,4,0,0,0,4,4h40.27V287.13Z" style="fill:#263238"></path><path d="M422,280.91h72.19a0,0,0,0,1,0,0V406.59a0,0,0,0,1,0,0H422a3.41,3.41,0,0,1-3.41-3.41V284.33A3.41,3.41,0,0,1,422,280.91Z" style="fill:#FF81AE"></path><path d="M494.19,407.09H422a3.92,3.92,0,0,1-3.92-3.91V284.33a3.92,3.92,0,0,1,3.92-3.91h72.19a.5.5,0,0,1,.5.5V406.59A.5.5,0,0,1,494.19,407.09ZM422,281.42a2.91,2.91,0,0,0-2.92,2.91V403.18a2.91,2.91,0,0,0,2.92,2.91h71.69V281.42Z" style="fill:#263238"></path><path d="M416.32,297.32H382.67a.5.5,0,0,1-.5-.5.51.51,0,0,1,.5-.5h33.65a.5.5,0,0,1,.5.5A.5.5,0,0,1,416.32,297.32Z" style="fill:#263238"></path><path d="M415.87,310.53H381.66a.5.5,0,0,1-.5-.5.5.5,0,0,1,.5-.5h34.21a.5.5,0,0,1,.5.5A.51.51,0,0,1,415.87,310.53Z" style="fill:#263238"></path><path d="M403.86,334.53h-23.4a.5.5,0,0,1-.5-.5.5.5,0,0,1,.5-.5h23.4a.5.5,0,0,1,.5.5A.5.5,0,0,1,403.86,334.53Z" style="fill:#263238"></path><path d="M415.87,334.53h-7.81a.5.5,0,0,1-.5-.5.51.51,0,0,1,.5-.5h7.81a.51.51,0,0,1,.5.5A.5.5,0,0,1,415.87,334.53Z" style="fill:#263238"></path></g></svg>
